<REAPER_PROJECT 0.1 "3.66/x64"
  RIPPLE 0
  GROUPOVERRIDE 0 0 0
  AUTOXFADE 1
  ENVATTACH 1
  MIXERUIFLAGS 11 48
  PEAKGAIN 1.00000000000000
  FEEDBACK 0
  AUTOMUTE 0 8.00000000000000
  PANLAW 1.00000000000000
  PROJOFFS 0.00000000000000 0
  MAXPROJLEN 0 600.00000000000000
  GRID 3199 8 1.00000000000000 8 1.00000000000000 0
  TIMEMODE 1 0 -1
  CURSOR 0.00000000000000
  ZOOM 9.13579078940048 0 0
  VZOOMEX 3
  USE_REC_CFG 0
  RECMODE 1
  SMPTESYNC 0 30.000000 100 40 1000 300 0 0.000000
  LOOP 0
  LOOPGRAN 0 4.00000000000000
  RECORD_PATH "" ""
  <RECORD_CFG
  >
  <APPLYFX_CFG
  >
  RENDER_FILE "D:\Rowsdower WIP\git-music\Dm 4-4 git proj\Dm 4-4 git proj mixdown.mp3"
  RENDER_FMT 0 2 48000
  RENDER_1X 0
  RENDER_RANGE 2 1.84615384615385 192.95490716180370
  RENDER_RESAMPLE 4 0 1
  RENDER_ADDTOPROJ 0
  RENDER_STEMS 0
  RENDER_DITHER 0
  TIMELOCKMODE 0
  ITEMMIX 0
  DEFPITCHMODE 393216
  TAKELANE 1
  SAMPLERATE 44100 0
  <RENDER_CFG
    bDNwbSAAAAABAAAA/////wQAAAAEAAAAQAEAAAABAAA=
  >
  LOCK 1
  <METRONOME 6 2.000000
    VOL 0.250000 0.125000
    FREQ 800 1600
    BEATLEN 4
    SAMPLES "" ""
  >
  GLOBAL_AUTO -1
  TEMPO 130.00000000000000 4 4
  PLAYRATE 1.00000000000000 0 0.25000 4.00000
  SELECTION 1.84615384615385 192.95490716180370
  SELECTION2 1.84615384615385 192.95490716180370
  MASTERAUTOMODE 0
  MASTERTRACKHEIGHT 0
  MASTERMUTESOLO 0
  MASTERTRACKVIEW 1 0.666700 0.500000 0.500000 -1 -1 -1
  MASTERHWOUT 0 0 1.00000000000000 0.00000000000000 0 0 0 -1.00000000000000
  MASTER_NCH 2
  MASTER_VOLUME 0.99777925350277 0.00000000000000 -1.00000000000000
  MASTER_FX 1
  MASTER_SEL 0
  <MASTERFXLIST
    WNDRECT 24 52 1003 602
    SHOW 0
    LASTSEL 1
    DOCKED 0
    BYPASS 0 0
    <VST "VST: ReaEQ (Cockos)" "reaeq.dll" 0 ""
      cWVlcu5e7f4CAAAAAQAAAAAAAAACAAAAAAAAAAIAAAABAAAAAAAAAA==
      AgAAAAAAAACgAAAAAQAAAAAAEAAhAAAABAAAAAAAAAABAAAAk++xiw==
      dNQ6QHf2hg1Xz8Y/g5MYBFYO3T8BCAAAAAEAAAAfB/ckhhl9QGAK+g==
      ryCF7D8BAAAAAAAAQAEIAAAAAQAAAK9NZks28aJAXzJYBa908D9LNw==
      iUFg5fI/AQEAAAABAAAANXKZQkCnqECmVod6REboP5bC9Shcj/Q/AQ==
      AQAAAAEAAAAAAAAAAADwPwAAAAA=
    >
    FLOATPOS 805 144 721 505
    FXID {E8681B40-0C21-465D-94C9-74C7F1C4FB8B}
    WAK 0
    BYPASS 0 0
    <VST "VST: ReaComp (Cockos)" "reacomp.dll" 0 ""
      bWNlcu9e7f4EAAAAAQAAAAAAAAACAAAAAAAAAAQAAAAAAAAACAAAAA==
      AAAAAAIAAAABAAAAAAAAAAIAAAAAAAAAVAAAAAAAAAAAABAA776t3g==
      DfCt3p7xMjxTjIU8dXQqPQrXozwAAAAAAAAAAAAAgD8AAAAAAAAAAA==
      AAAAAONk9j4jPjFAAAAAAM3MTD0j23k9AAAAAAAAAAAAAAAAAAAAAA==
    >
    FLOATPOS 572 111 677 469
    FXID {DF437C89-F6D4-47D1-A9FF-281022FE0E04}
    WAK 0
    BYPASS 0 0
    <JS "LOSER/masterLimiter" ""
      -3.800000 268.000000 288.000000 0.800000 138.000000 -0.720000 0.000000 - - - - - - - - - - - - - - - - - - - - - - - - - - - - - - - - - - - - - - - - - - - - - - - - - - - - - - - - -
    >
    FLOATPOS 719 355 670 251
    FXID {DF113CE9-4D1F-4AA3-8A4E-0DE3500EA035}
    WAK 0
  >
  <MASTERPLAYSPEEDENV
    ACT 0
    VIS 0 1 1.000000
    LANEHEIGHT 0 0
    ARM 0
    DEFSHAPE 0
  >
  <TEMPOENVEX
    ACT 0
    VIS 1 0 1.000000
    LANEHEIGHT 0 0
    ARM 0
    DEFSHAPE 1
    PT 0.000000000000 130.0000000000 1
    PT 153.230769230769 145.0000000000 1
  >
  <MASTERVOLENV
    ACT 0
    VIS 0 1 1.000000
    LANEHEIGHT 0 0
    ARM 0
    DEFSHAPE 0
  >
  <MASTERPANENV
    ACT 0
    VIS 0 1 1.000000
    LANEHEIGHT 0 0
    ARM 0
    DEFSHAPE 0
  >
  <MASTERVOLENV2
    ACT 1
    VIS 1 1 1.000000
    LANEHEIGHT 0 0
    ARM 1
    DEFSHAPE 0
    PT 5.538462 0.993289 0
    PT 123.697598 0.993289 0
    PT 151.384616 1.000000 0
    PT 185.470790 1.000000 0
    PT 187.161804 0.255319 0
    PT 191.299735 0.000000 0 0 1
  >
  <MASTERPANENV2
    ACT 0
    VIS 0 1 1.000000
    LANEHEIGHT 0 0
    ARM 0
    DEFSHAPE 0
  >
  <TRACK '{533A8F8C-2CF3-4E7B-A751-D57915DC73C8}'
    NAME ""
    PEAKCOL 16576
    BEAT -1
    AUTOMODE 0
    VOLPAN 0.86310987229952 0.00000000000000 -1.00000000000000
    MUTESOLO 0 0 0
    IPHASE 0
    ISBUS 0 0
    BUSCOMP 0 0
    SHOWINMIX 1 0.666700 0.500000 1 0.500000 -1 -1 -1
    FREEMODE 0
    SEL 0
    REC 0 0 0 0 0 0 0
    TRACKHEIGHT 0 0
    INQ 0 0 0 0.5000000000 100 0 0 100
    NCHAN 2
    FX 1
    TRACKID {533A8F8C-2CF3-4E7B-A751-D57915DC73C8}
    PERF 0
    MIDIOUT -1
    MAINSEND 1
    <FXCHAIN
      WNDRECT 353 224 952 495
      SHOW 0
      LASTSEL 0
      DOCKED 0
      BYPASS 0 0
      <JS "schwa/midi_humanizer" ""
        0.000000 0.000000 0.000000 6.750000 0.790000 0.000000 0.100000 3.000000 - - - - - - - - - - - - - - - - - - - - - - - - - - - - - - - - - - - - - - - - - - - - - - - - - - - - - - - -
      >
      FLOATPOS 782 178 670 272
      FXID {0011818A-0F9E-4F6B-92EB-E6A78D116A58}
      WAK 0
      BYPASS 0 0
      <VST "VSTi: Superior Drummer 2 (x86) (Toontrack) (32 out)" "Superior Drummer.dll" 0 ""
        MmhmZO5e7f4AAAAAIAAAAAEAAAAAAAAAAgAAAAAAAAAEAAAAAAAAAA==
        CAAAAAAAAAAQAAAAAAAAACAAAAAAAAAAQAAAAAAAAACAAAAAAAAAAA==
        AAEAAAAAAAAAAgAAAAAAAAAEAAAAAAAAAAgAAAAAAAAAEAAAAAAAAA==
        ACAAAAAAAAAAQAAAAAAAAACAAAAAAAAAAAABAAAAAAAAAAIAAAAAAA==
        AAAEAAAAAAAAAAgAAAAAAAAAEAAAAAAAAAAgAAAAAAAAAEAAAAAAAA==
        AACAAAAAAAAAAAABAAAAAAAAAAIAAAAAAAAABAAAAAAAAAAIAAAAAA==
        AAAAEAAAAAAAAAAgAAAAAAAAAEAAAAAAAAAAgAAAAADpJwAAAQAAAA==
        AAAQACNWIDIuMi4xCnZlcnNpb24gNApIUSB7CnNvdW5kbGliICJFWg==
        UE9QUk9DSyIKY2FjaGUKbWFzdGVydm9sIDAuOTEzNzIyCmVuZ2luZQ==
        dm9sIDAuNjUKMTZiaXQgMQp9CmxheWxpbXMgewp9CmRydW1zIHsKcw==
        dGlja3MgICJEcnVtc3RpY2tzIgpraWNrdG9vbCAiRmVsdCIKY3JtYQ==
        dCAxCiJLaWNrIiAiMjJHTVMyIgoiU25hcmUiICJQaWNjb2xvIgoiSA==
        YXRzIiAiMTRaaWxkamlhbjMiCiJSYWNrdG9tIDEiICIxMkdNUyIKIg==
        UmFja3RvbSAyIiAiMTRHTVMyIgoiRmxvb3J0b20gMSIgIjE2R01TMg==
        IgoiUmlkZSA0IiAiMjJTYWJpYW4iCiJDeW1iYWwgMiIgIjE5Q3Jhcw==
        aDMiCiJDeW1iYWwgNSIgIjE4Q3Jhc2gyIgoiQ293YmVsbCIgIkNvdw==
        QmVsbCIKfQpwYWRzIHsKcGFkIGhhdHNUaXBUcmlnIHsKY3ljbGUgUw==
        IAphbHRlcm5hdGUKdmVsdm9sCnNlbmRub3Rlb2ZmCn0KcGFkIGhhdA==
        c1RyaWcgewpjeWNsZSBTIAphbHRlcm5hdGUKdmVsdm9sCnNlbmRubw==
        dGVvZmYKfQpwYWQgaGF0c0N0cmwgewpjeWNsZSBTIAphbHRlcm5hdA==
        ZQp2ZWx2b2wKc2VuZG5vdGVvZmYKfQpwYWQga2lja1IgewpjeWNsZQ==
        IFMgCmFsdGVybmF0ZQp2ZWx2b2wKfQpwYWQgc25hcmVSIHsKY3ljbA==
        ZSBTIAphbHRlcm5hdGUKdmVsdm9sCn0KcGFkIHNuYXJlTCB7CmN5Yw==
        bGUgUyAKYWx0ZXJuYXRlCnZlbHZvbAp9CnBhZCBoYXRzQ0wgewpjeQ==
        Y2xlIFMgCmFsdGVybmF0ZQp2ZWx2b2wKfQpwYWQgaGF0c1RQIHsKYw==
        eWNsZSBTIAphbHRlcm5hdGUKdmVsdm9sCn0KcGFkIGhhdHNQTCB7Cg==
        Y3ljbGUgUyAKYWx0ZXJuYXRlCnZlbHZvbAp9CnBhZCBoYXRzTzIgew==
        CmN5Y2xlIFMgCmFsdGVybmF0ZQp2ZWx2b2wKfQpwYWQgdG9tMVIgew==
        CmN5Y2xlIFMgCmFsdGVybmF0ZQp2ZWx2b2wKfQpwYWQgdG9tMUwgew==
        CmN5Y2xlIFMgCmFsdGVybmF0ZQp2ZWx2b2wKfQpwYWQgdG9tMlIgew==
        CmN5Y2xlIFMgCmFsdGVybmF0ZQp2ZWx2b2wKfQpwYWQgdG9tMkwgew==
        CmN5Y2xlIFMgCmFsdGVybmF0ZQp2ZWx2b2wKfQpwYWQgdG9tNFIgew==
        CmN5Y2xlIFMgCmFsdGVybmF0ZQp2ZWx2b2wKfQpwYWQgdG9tNEwgew==
        CmN5Y2xlIFMgCmFsdGVybmF0ZQp2ZWx2b2wKfQpwYWQgcmlkZTQgew==
        CmN5Y2xlIFMgCmFsdGVybmF0ZQp2ZWx2b2wKfQpwYWQgY3Jhc2g1IA==
        ewpjeWNsZSBTIAphbHRlcm5hdGUKdmVsdm9sCn0KcGFkIGNyYXNoMg==
        IHsKY3ljbGUgUyAKYWx0ZXJuYXRlCnZlbHZvbAp9CnBhZCBzbmFyZQ==
        U0wgewpjeWNsZSBTIAphbHRlcm5hdGUKdmVsdm9sCn0KcGFkIHNuYQ==
        cmVGWCB7CmN5Y2xlIFMgCmFsdGVybmF0ZQp2ZWx2b2wKfQpwYWQgaA==
        YXRzTzEgewpjeWNsZSBTIAphbHRlcm5hdGUKdmVsdm9sCn0KcGFkIA==
        aGF0c08zIHsKY3ljbGUgUyAKYWx0ZXJuYXRlCnZlbHZvbAp9CnBhZA==
        IGhhdHNPNCB7CmN5Y2xlIFMgCmFsdGVybmF0ZQp2ZWx2b2wKfQpwYQ==
        ZCBoYXRzVFQgewpjeWNsZSBTIAphbHRlcm5hdGUKdmVsdm9sCn0KcA==
        YWQgaGF0c0NUIHsKY3ljbGUgUyAKYWx0ZXJuYXRlCnZlbHZvbAp9Cg==
        cGFkIHJpZGU0UFUgewpjeWNsZSBTIAphbHRlcm5hdGUKdmVsdm9sCg==
        fQpwYWQgcmlkZTRCTCB7CmN5Y2xlIFMgCmFsdGVybmF0ZQp2ZWx2bw==
        bAp9CnBhZCBjcmFzaDVNIHsKIGN5Y2xlIE5PVCBTIApjeWNsZSBOTw==
        VCBIIAphbHRlcm5hdGUKfQpwYWQgY3Jhc2gyTSB7CiBjeWNsZSBOTw==
        VCBTIApjeWNsZSBOT1QgSCAKYWx0ZXJuYXRlCn0KcGFkIHRvbTRGWA==
        IHsKY3ljbGUgUyAKYWx0ZXJuYXRlCnZlbHZvbAp9CnBhZCB0b20yRg==
        WCB7CmN5Y2xlIFMgCmFsdGVybmF0ZQp2ZWx2b2wKfQpwYWQgdG9tMQ==
        RlggewpjeWNsZSBTIAphbHRlcm5hdGUKdmVsdm9sCn0KcGFkIGhhdA==
        c1NRSCB7CmN5Y2xlIFMgCmFsdGVybmF0ZQp9CnBhZCBoYXRzU1FMIA==
        ewpjeWNsZSBTIAphbHRlcm5hdGUKfQpwYWQgaGF0c1BMTyB7CmN5Yw==
        bGUgUyAKYWx0ZXJuYXRlCnZlbHZvbAp9CnBhZCBDb3dCZWxsIHsKYw==
        eWNsZSBTIAphbHRlcm5hdGUKdmVsdm9sCn0KfQpwYWRzb2Z0dmVsIA==
        ewpwYWQgaGF0c0NMIHsKdmVsb2NpdHlrbmVlIEwgNDUKfQpwYWQgaA==
        YXRzVFAgewp2ZWxvY2l0eWtuZWUgTCAzOAp9CnBhZCBoYXRzUEwgew==
        CnZlbG9jaXR5a25lZSBMIDI0Cn0KcGFkIGhhdHNPMiB7CnZlbG9jaQ==
        dHlrbmVlIEwgNDUKfQpwYWQgaGF0c08xIHsKdmVsb2NpdHlrbmVlIA==
        TCA0NQp9CnBhZCBoYXRzTzMgewp2ZWxvY2l0eWtuZWUgTCA0NQp9Cg==
        cGFkIGhhdHNPNCB7CnZlbG9jaXR5a25lZSBMIDQ1Cn0KcGFkIGhhdA==
        c0NUIHsKdmVsb2NpdHlrbmVlIEwgMzgKfQpwYWQgcmlkZTRQVSB7Cg==
        dmVsb2NpdHlrbmVlIEwgMjIKfQpwYWQgQ293QmVsbCB7CnZlbG9jaQ==
        dHlrbmVlIEwgMzgKfQp9CnBhZHBhZHZvbCB7CnBhZCByaWRlNCB7Cg==
        cHZvbHVtZSAxLjI1Cn0KcGFkIHJpZGU0UFUgewpwdm9sdW1lIDAuNg==
        NQp9CnBhZCByaWRlNEJMIHsKcHZvbHVtZSAxLjI1Cn0KcGFkIENvdw==
        QmVsbCB7CnB2b2x1bWUgMS44Cn0KfQpwYWRwb2x5IHsKcGFkIGhhdA==
        c1RpcFRyaWcgewptYXhwb2x5IDQKfQpwYWQgaGF0c1RyaWcgewptYQ==
        eHBvbHkgNAp9CnBhZCBoYXRzQ3RybCB7Cm1heHBvbHkgNAp9CnBhZA==
        IGtpY2tSIHsKbWF4cG9seSA0Cn0KcGFkIHNuYXJlUiB7Cm1heHBvbA==
        eSA0Cn0KcGFkIHNuYXJlTCB7Cm1heHBvbHkgNAp9CnBhZCBoYXRzQw==
        TCB7Cm1heHBvbHkgNAp9CnBhZCBoYXRzVFAgewptYXhwb2x5IDQKfQ==
        CnBhZCBoYXRzUEwgewptYXhwb2x5IDQKfQpwYWQgaGF0c08yIHsKbQ==
        YXhwb2x5IDQKfQpwYWQgdG9tMVIgewptYXhwb2x5IDQKfQpwYWQgdA==
        b20xTCB7Cm1heHBvbHkgNAp9CnBhZCB0b20yUiB7Cm1heHBvbHkgNA==
        Cn0KcGFkIHRvbTJMIHsKbWF4cG9seSA0Cn0KcGFkIHRvbTRSIHsKbQ==
        YXhwb2x5IDQKfQpwYWQgdG9tNEwgewptYXhwb2x5IDQKfQpwYWQgcg==
        aWRlNCB7Cm1heHBvbHkgNAp9CnBhZCBjcmFzaDUgewptYXhwb2x5IA==
        NAp9CnBhZCBjcmFzaDIgewptYXhwb2x5IDQKfQpwYWQgc25hcmVTTA==
        IHsKbWF4cG9seSA0Cn0KcGFkIHNuYXJlRlggewptYXhwb2x5IDQKfQ==
        CnBhZCBoYXRzTzEgewptYXhwb2x5IDQKfQpwYWQgaGF0c08zIHsKbQ==
        YXhwb2x5IDQKfQpwYWQgaGF0c080IHsKbWF4cG9seSA0Cn0KcGFkIA==
        aGF0c1RUIHsKbWF4cG9seSA0Cn0KcGFkIGhhdHNDVCB7Cm1heHBvbA==
        eSA0Cn0KcGFkIHJpZGU0UFUgewptYXhwb2x5IDQKfQpwYWQgcmlkZQ==
        NEJMIHsKbWF4cG9seSA0Cn0KcGFkIGNyYXNoNU0gewptYXhwb2x5IA==
        NAp9CnBhZCBjcmFzaDJNIHsKbWF4cG9seSA0Cn0KcGFkIHRvbTRGWA==
        IHsKbWF4cG9seSA0Cn0KcGFkIHRvbTJGWCB7Cm1heHBvbHkgNAp9Cg==
        cGFkIHRvbTFGWCB7Cm1heHBvbHkgNAp9CnBhZCBoYXRzU1FIIHsKbQ==
        YXhwb2x5IDQKfQpwYWQgaGF0c1NRTCB7Cm1heHBvbHkgNAp9CnBhZA==
        IGhhdHNQTE8gewptYXhwb2x5IDQKfQpwYWQgQ293QmVsbCB7Cm1heA==
        cG9seSA0Cn0KfQp1c2FnZSB7CiJLaWNrIiAiS2ljayIgIlNuYXJlQg==
        b3R0b20iICJPaCIgIk9oUiIgIkFtYmllbmNlIiAiQW1iaWVuY2VSIg==
        CiJTbmFyZSIgIlNuYXJlVG9wIiAiU25hcmVCb3R0b20iICJPaCIgIg==
        T2hSIiAiQW1iaWVuY2UiICJBbWJpZW5jZVIiCiJIYXRzIiAiU25hcg==
        ZUJvdHRvbSIgIkhhdHMiICJPaCIgIk9oUiIgIkFtYmllbmNlIiAiQQ==
        bWJpZW5jZVIiCiJSYWNrdG9tIDEiICJTbmFyZUJvdHRvbSIgIlRvbQ==
        MSIgIk9oIiAiT2hSIiAiQW1iaWVuY2UiICJBbWJpZW5jZVIiCiJSYQ==
        Y2t0b20gMiIgIlNuYXJlQm90dG9tIiAiVG9tMiIgIk9oIiAiT2hSIg==
        ICJBbWJpZW5jZSIgIkFtYmllbmNlUiIKIkZsb29ydG9tIDEiICJTbg==
        YXJlQm90dG9tIiAiVG9tNCIgIk9oIiAiT2hSIiAiQW1iaWVuY2UiIA==
        IkFtYmllbmNlUiIKIlJpZGUgNCIgIlNuYXJlQm90dG9tIiAiT2giIA==
        Ik9oUiIgIkFtYmllbmNlIiAiQW1iaWVuY2VSIgoiQ3ltYmFsIDIiIA==
        IlNuYXJlQm90dG9tIiAiT2giICJPaFIiICJBbWJpZW5jZSIgIkFtYg==
        aWVuY2VSIgoiQ3ltYmFsIDUiICJTbmFyZUJvdHRvbSIgIk9oIiAiTw==
        aFIiICJBbWJpZW5jZSIgIkFtYmllbmNlUiIKIkNvd2JlbGwiICJTbg==
        YXJlQm90dG9tIiAiT2giICJPaFIiICJBbWJpZW5jZSIgIkFtYmllbg==
        Y2VSIgp9CmJsZWVkIHsKIkNvd2JlbGwiIHsKbGVha3ZvbHVtZSAiQQ==
        bWJpZW5jZSIgMC43Cn0KfQpwYWRzb3VuZCB7CnBhZCByaWRlNCB7Cg==
        ZmFkZSAxCmZhZGVzdGFydCAwCmJsb2Nrbm90ZW9mZiAxCmZhZGV0aQ==
        bWUgMC4xMgp9CnBhZCBjcmFzaDUgewpmYWRlIDEKZmFkZXN0YXJ0IA==
        MApibG9ja25vdGVvZmYgMQpmYWRldGltZSAwLjEyCn0KcGFkIGNyYQ==
        c2gyIHsKZmFkZSAxCmZhZGVzdGFydCAwCmJsb2Nrbm90ZW9mZiAxCg==
        ZmFkZXRpbWUgMC4xMgp9CnBhZCByaWRlNFBVIHsKZmFkZSAxCmZhZA==
        ZXN0YXJ0IDAKYmxvY2tub3Rlb2ZmIDEKZmFkZXRpbWUgMC4xMgp9Cg==
        cGFkIHJpZGU0QkwgewpmYWRlIDEKZmFkZXN0YXJ0IDAKYmxvY2tubw==
        dGVvZmYgMQpmYWRldGltZSAwLjEyCn0KcGFkIGNyYXNoNU0gewpmYQ==
        ZGUgMQpmYWRlc3RhcnQgMApibG9ja25vdGVvZmYgMQpmYWRldGltZQ==
        IDAuMTIKfQpwYWQgY3Jhc2gyTSB7CmZhZGUgMQpmYWRlc3RhcnQgMA==
        CmJsb2Nrbm90ZW9mZiAxCmZhZGV0aW1lIDAuMTIKfQp9CnBhZHBpdA==
        Y2ggewp9Cm1pZGkgewpuIDE5IDE5IDggOSAyMApuIDE4IDE4IDcKbg==
        IDEzMiAxMzIgQ0MxCm4gMzYgMzYgMzQgMzUKbiAzOCAzOCA2IDM5IA==
        NjggNjkgNzAgMTI1Cm4gMzMgMzMgNjYKbiAyMiAyMiAxMSAyNiAxMg==
        MgpuIDYxIDYxIDQyIDExOQpuIDIxIDIxIDEwIDQ0Cm4gMjUgMjUgMQ==
        NCAxNSA0NiAxMjAKbiA0OCA0OCAxIDUwCm4gODEgODEKbiA0NyA0Nw==
        IDIgMyA0NQpuIDc5IDc5IDc3Cm4gNDMgNDMgNCA1IDQxCm4gNzQgNw==
        NCA3MgpuIDUxIDUxIDg0IDg3IDg4IDg5IDkyIDkzIDk2IDk5IDEwMA==
        IDEwMSAxMDQgMTA1IDEwOCAxMTEgMTEyIDExMyAxMTYgMTE3Cm4gNQ==
        NyA1NyAzMCAzMSAzMiA1MgpuIDQ5IDQ5IDI3IDI4IDI5IDU1Cm4gMw==
        NyAzNyA2NyA3MSAxMjcKbiA0MCA0MCAxMjYKbiAyNCAyNCAxMiAxMw==
        IDEyMwpuIDI2IDE2IDE3IDEyMSAxMjQKbiA2MCA2MApuIDYzIDYzCg==
        biA2MiA2MgpuIDU5IDU5IDg2IDkxIDk4IDEwMyAxMTAgMTE1Cm4gNQ==
        MyA1MyA4NSA5MCA5NyAxMDIgMTA5IDExNApuIDU4IDU4IDEwNiAxMA==
        NyAxMTgKbiA1NCA1NCA4MyA5NCA5NQpuIDc1IDc1IDczCm4gODAgOA==
        MCA3OApuIDgyIDgyCm4gNjQgNjQKbiA2NSA2NQpuIDIzIDIzCm4gNQ==
        NiA1NiA3Ngp9Cm1peGVyIHsKS2ljayB7CnBhbiAwLjUKdm9sdW1lIA==
        MQpwaGFzZXJldmVyc2UgMApub2JsZWVkIDAKeHRyYWZhZGUgMApsZQ==
        YWt2b2wgMQpzb2xvIDAKbXV0ZSAwCnJvdXRlIDAKfQpTbmFyZVRvcA==
        IHsKcGFuIDAuNQp2b2x1bWUgMQpwaGFzZXJldmVyc2UgMApub2JsZQ==
        ZWQgMAp4dHJhZmFkZSAwCmxlYWt2b2wgMQpzb2xvIDAKbXV0ZSAwCg==
        cm91dGUgMAp9ClNuYXJlQm90dG9tIHsKcGFuIDAuNQp2b2x1bWUgMA==
        LjkKcGhhc2VyZXZlcnNlIDAKbm9ibGVlZCAwCnh0cmFmYWRlIDAKbA==
        ZWFrdm9sIDEKc29sbyAwCm11dGUgMApyb3V0ZSAwCn0KSGF0cyB7Cg==
        cGFuIDAuMgp2b2x1bWUgMC4xNjQyMDQKcGhhc2VyZXZlcnNlIDAKbg==
        b2JsZWVkIDAKeHRyYWZhZGUgMApsZWFrdm9sIDEKc29sbyAwCm11dA==
        ZSAwCnJvdXRlIDAKfQpUb20xIHsKcGFuIDAuMQp2b2x1bWUgMC44NQ==
        CnBoYXNlcmV2ZXJzZSAwCm5vYmxlZWQgMAp4dHJhZmFkZSAwCmxlYQ==
        a3ZvbCAxCnNvbG8gMAptdXRlIDAKcm91dGUgMAp9ClRvbTIgewpwYQ==
        biAwLjMKdm9sdW1lIDAuODUKcGhhc2VyZXZlcnNlIDAKbm9ibGVlZA==
        IDAKeHRyYWZhZGUgMApsZWFrdm9sIDEKc29sbyAwCm11dGUgMApybw==
        dXRlIDAKfQpUb200IHsKcGFuIDAuNwp2b2x1bWUgMC44NQpwaGFzZQ==
        cmV2ZXJzZSAwCm5vYmxlZWQgMAp4dHJhZmFkZSAwCmxlYWt2b2wgMQ==
        CnNvbG8gMAptdXRlIDAKcm91dGUgMAp9CmR1bW15IHsKcGFuIDAuNQ==
        CnZvbHVtZSAxCnBoYXNlcmV2ZXJzZSAwCm5vYmxlZWQgMAp4dHJhZg==
        YWRlIDAKbGVha3ZvbCAxCnNvbG8gMAptdXRlIDAKcm91dGUgMAp9Cg==
        T2ggewpwYW4gMAp2b2x1bWUgMC45CnBoYXNlcmV2ZXJzZSAwCm5vYg==
        bGVlZCAwCnh0cmFmYWRlIDAKbGVha3ZvbCAxCnNvbG8gMAptdXRlIA==
        MApyb3V0ZSAwCn0KT2hSIHsKcGFuIDEKdm9sdW1lIDAuOQpwaGFzZQ==
        cmV2ZXJzZSAwCm5vYmxlZWQgMAp4dHJhZmFkZSAwCmxlYWt2b2wgMQ==
        CnNvbG8gMAptdXRlIDAKcm91dGUgMAp9CkFtYmllbmNlIHsKcGFuIA==
        MAp2b2x1bWUgMC44CnBoYXNlcmV2ZXJzZSAwCm5vYmxlZWQgMAp4dA==
        cmFmYWRlIDAKbGVha3ZvbCAxCnNvbG8gMAptdXRlIDAKcm91dGUgMA==
        Cn0KQW1iaWVuY2VSIHsKcGFuIDEKdm9sdW1lIDAuOApwaGFzZXJldg==
        ZXJzZSAwCm5vYmxlZWQgMAp4dHJhZmFkZSAwCmxlYWt2b2wgMQpzbw==
        bG8gMAptdXRlIDAKcm91dGUgMAp9CmJ1c3MgMCB7CnBhbiAwCnZvbA==
        dW1lIDEKcGhhc2VyZXZlcnNlIDAKc29sbyAwCm11dGUgMApyb3V0ZQ==
        IC0xCn0KYnVzcyAxIHsKcGFuIDEKdm9sdW1lIDEKcGhhc2VyZXZlcg==
        c2UgMApzb2xvIDAKbXV0ZSAwCnJvdXRlIC0xCn0KYnVzcyAyIHsKcA==
        YW4gMAp2b2x1bWUgMQpwaGFzZXJldmVyc2UgMApzb2xvIDAKbXV0ZQ==
        IDAKcm91dGUgLTEKfQpidXNzIDMgewpwYW4gMQp2b2x1bWUgMQpwaA==
        YXNlcmV2ZXJzZSAwCnNvbG8gMAptdXRlIDAKcm91dGUgLTEKfQpidQ==
        c3MgNCB7CnBhbiAwCnZvbHVtZSAxCnBoYXNlcmV2ZXJzZSAwCnNvbA==
        byAwCm11dGUgMApyb3V0ZSAtMQp9CmJ1c3MgNSB7CnBhbiAxCnZvbA==
        dW1lIDEKcGhhc2VyZXZlcnNlIDAKc29sbyAwCm11dGUgMApyb3V0ZQ==
        IC0xCn0KYnVzcyA2IHsKcGFuIDAKdm9sdW1lIDEKcGhhc2VyZXZlcg==
        c2UgMApzb2xvIDAKbXV0ZSAwCnJvdXRlIC0xCn0KYnVzcyA3IHsKcA==
        YW4gMQp2b2x1bWUgMQpwaGFzZXJldmVyc2UgMApzb2xvIDAKbXV0ZQ==
        IDAKcm91dGUgLTEKfQpidXNzIDggewpwYW4gMAp2b2x1bWUgMQpwaA==
        YXNlcmV2ZXJzZSAwCnNvbG8gMAptdXRlIDAKcm91dGUgLTEKfQpidQ==
        c3MgOSB7CnBhbiAxCnZvbHVtZSAxCnBoYXNlcmV2ZXJzZSAwCnNvbA==
        byAwCm11dGUgMApyb3V0ZSAtMQp9CmJ1c3MgMTAgewpwYW4gMAp2bw==
        bHVtZSAxCnBoYXNlcmV2ZXJzZSAwCnNvbG8gMAptdXRlIDAKcm91dA==
        ZSAtMQp9CmJ1c3MgMTEgewpwYW4gMQp2b2x1bWUgMQpwaGFzZXJldg==
        ZXJzZSAwCnNvbG8gMAptdXRlIDAKcm91dGUgLTEKfQpidXNzIDEyIA==
        ewpwYW4gMAp2b2x1bWUgMQpwaGFzZXJldmVyc2UgMApzb2xvIDAKbQ==
        dXRlIDAKcm91dGUgLTEKfQpidXNzIDEzIHsKcGFuIDEKdm9sdW1lIA==
        MQpwaGFzZXJldmVyc2UgMApzb2xvIDAKbXV0ZSAwCnJvdXRlIC0xCg==
        fQpidXNzIDE0IHsKcGFuIDAKdm9sdW1lIDEKcGhhc2VyZXZlcnNlIA==
        MApzb2xvIDAKbXV0ZSAwCnJvdXRlIC0xCn0KYnVzcyAxNSB7CnBhbg==
        IDEKdm9sdW1lIDEKcGhhc2VyZXZlcnNlIDAKc29sbyAwCm11dGUgMA==
        CnJvdXRlIC0xCn0KYnVzcyAxNiB7CnBhbiAwCnZvbHVtZSAxCnBoYQ==
        c2VyZXZlcnNlIDAKc29sbyAwCm11dGUgMApyb3V0ZSAtMQp9CmJ1cw==
        cyAxNyB7CnBhbiAxCnZvbHVtZSAxCnBoYXNlcmV2ZXJzZSAwCnNvbA==
        byAwCm11dGUgMApyb3V0ZSAtMQp9CmJ1c3MgMTggewpwYW4gMAp2bw==
        bHVtZSAxCnBoYXNlcmV2ZXJzZSAwCnNvbG8gMAptdXRlIDAKcm91dA==
        ZSAtMQp9CmJ1c3MgMTkgewpwYW4gMQp2b2x1bWUgMQpwaGFzZXJldg==
        ZXJzZSAwCnNvbG8gMAptdXRlIDAKcm91dGUgLTEKfQpidXNzIDIwIA==
        ewpwYW4gMAp2b2x1bWUgMQpwaGFzZXJldmVyc2UgMApzb2xvIDAKbQ==
        dXRlIDAKcm91dGUgLTEKfQpidXNzIDIxIHsKcGFuIDEKdm9sdW1lIA==
        MQpwaGFzZXJldmVyc2UgMApzb2xvIDAKbXV0ZSAwCnJvdXRlIC0xCg==
        fQpidXNzIDIyIHsKcGFuIDAKdm9sdW1lIDEKcGhhc2VyZXZlcnNlIA==
        MApzb2xvIDAKbXV0ZSAwCnJvdXRlIC0xCn0KYnVzcyAyMyB7CnBhbg==
        IDEKdm9sdW1lIDEKcGhhc2VyZXZlcnNlIDAKc29sbyAwCm11dGUgMA==
        CnJvdXRlIC0xCn0KYnVzcyAyNCB7CnBhbiAwCnZvbHVtZSAxCnBoYQ==
        c2VyZXZlcnNlIDAKc29sbyAwCm11dGUgMApyb3V0ZSAtMQp9CmJ1cw==
        cyAyNSB7CnBhbiAxCnZvbHVtZSAxCnBoYXNlcmV2ZXJzZSAwCnNvbA==
        byAwCm11dGUgMApyb3V0ZSAtMQp9CmJ1c3MgMjYgewpwYW4gMAp2bw==
        bHVtZSAxCnBoYXNlcmV2ZXJzZSAwCnNvbG8gMAptdXRlIDAKcm91dA==
        ZSAtMQp9CmJ1c3MgMjcgewpwYW4gMQp2b2x1bWUgMQpwaGFzZXJldg==
        ZXJzZSAwCnNvbG8gMAptdXRlIDAKcm91dGUgLTEKfQpidXNzIDI4IA==
        ewpwYW4gMAp2b2x1bWUgMQpwaGFzZXJldmVyc2UgMApzb2xvIDAKbQ==
        dXRlIDAKcm91dGUgLTEKfQpidXNzIDI5IHsKcGFuIDEKdm9sdW1lIA==
        MQpwaGFzZXJldmVyc2UgMApzb2xvIDAKbXV0ZSAwCnJvdXRlIC0xCg==
        fQpidXNzIDMwIHsKcGFuIDAKdm9sdW1lIDEKcGhhc2VyZXZlcnNlIA==
        MApzb2xvIDAKbXV0ZSAwCnJvdXRlIC0xCn0KYnVzcyAzMSB7CnBhbg==
        IDEKdm9sdW1lIDEKcGhhc2VyZXZlcnNlIDAKc29sbyAwCm11dGUgMA==
        CnJvdXRlIC0xCn0Kb3V0cHV0IDAgewpwYW4gMAp2b2x1bWUgMQpwaA==
        YXNlcmV2ZXJzZSAwCnNvbG8gMAptdXRlIDAKfQpvdXRwdXQgMSB7Cg==
        cGFuIDEKdm9sdW1lIDEKcGhhc2VyZXZlcnNlIDAKc29sbyAwCm11dA==
        ZSAwCn0Kb3V0cHV0IDIgewpwYW4gMAp2b2x1bWUgMQpwaGFzZXJldg==
        ZXJzZSAwCnNvbG8gMAptdXRlIDAKfQpvdXRwdXQgMyB7CnBhbiAxCg==
        dm9sdW1lIDEKcGhhc2VyZXZlcnNlIDAKc29sbyAwCm11dGUgMAp9Cg==
        b3V0cHV0IDQgewpwYW4gMAp2b2x1bWUgMQpwaGFzZXJldmVyc2UgMA==
        CnNvbG8gMAptdXRlIDAKfQpvdXRwdXQgNSB7CnBhbiAxCnZvbHVtZQ==
        IDEKcGhhc2VyZXZlcnNlIDAKc29sbyAwCm11dGUgMAp9Cm91dHB1dA==
        IDYgewpwYW4gMAp2b2x1bWUgMQpwaGFzZXJldmVyc2UgMApzb2xvIA==
        MAptdXRlIDAKfQpvdXRwdXQgNyB7CnBhbiAxCnZvbHVtZSAxCnBoYQ==
        c2VyZXZlcnNlIDAKc29sbyAwCm11dGUgMAp9Cm91dHB1dCA4IHsKcA==
        YW4gMAp2b2x1bWUgMQpwaGFzZXJldmVyc2UgMApzb2xvIDAKbXV0ZQ==
        IDAKfQpvdXRwdXQgOSB7CnBhbiAxCnZvbHVtZSAxCnBoYXNlcmV2ZQ==
        cnNlIDAKc29sbyAwCm11dGUgMAp9Cm91dHB1dCAxMCB7CnBhbiAwCg==
        dm9sdW1lIDEKcGhhc2VyZXZlcnNlIDAKc29sbyAwCm11dGUgMAp9Cg==
        b3V0cHV0IDExIHsKcGFuIDEKdm9sdW1lIDEKcGhhc2VyZXZlcnNlIA==
        MApzb2xvIDAKbXV0ZSAwCn0Kb3V0cHV0IDEyIHsKcGFuIDAKdm9sdQ==
        bWUgMQpwaGFzZXJldmVyc2UgMApzb2xvIDAKbXV0ZSAwCn0Kb3V0cA==
        dXQgMTMgewpwYW4gMQp2b2x1bWUgMQpwaGFzZXJldmVyc2UgMApzbw==
        bG8gMAptdXRlIDAKfQpvdXRwdXQgMTQgewpwYW4gMAp2b2x1bWUgMQ==
        CnBoYXNlcmV2ZXJzZSAwCnNvbG8gMAptdXRlIDAKfQpvdXRwdXQgMQ==
        NSB7CnBhbiAxCnZvbHVtZSAxCnBoYXNlcmV2ZXJzZSAwCnNvbG8gMA==
        Cm11dGUgMAp9Cm91dHB1dCAxNiB7CnBhbiAwCnZvbHVtZSAxCnBoYQ==
        c2VyZXZlcnNlIDAKc29sbyAwCm11dGUgMAp9Cm91dHB1dCAxNyB7Cg==
        cGFuIDEKdm9sdW1lIDEKcGhhc2VyZXZlcnNlIDAKc29sbyAwCm11dA==
        ZSAwCn0Kb3V0cHV0IDE4IHsKcGFuIDAKdm9sdW1lIDEKcGhhc2VyZQ==
        dmVyc2UgMApzb2xvIDAKbXV0ZSAwCn0Kb3V0cHV0IDE5IHsKcGFuIA==
        MQp2b2x1bWUgMQpwaGFzZXJldmVyc2UgMApzb2xvIDAKbXV0ZSAwCg==
        fQpvdXRwdXQgMjAgewpwYW4gMAp2b2x1bWUgMQpwaGFzZXJldmVycw==
        ZSAwCnNvbG8gMAptdXRlIDAKfQpvdXRwdXQgMjEgewpwYW4gMQp2bw==
        bHVtZSAxCnBoYXNlcmV2ZXJzZSAwCnNvbG8gMAptdXRlIDAKfQpvdQ==
        dHB1dCAyMiB7CnBhbiAwCnZvbHVtZSAxCnBoYXNlcmV2ZXJzZSAwCg==
        c29sbyAwCm11dGUgMAp9Cm91dHB1dCAyMyB7CnBhbiAxCnZvbHVtZQ==
        IDEKcGhhc2VyZXZlcnNlIDAKc29sbyAwCm11dGUgMAp9Cm91dHB1dA==
        IDI0IHsKcGFuIDAKdm9sdW1lIDEKcGhhc2VyZXZlcnNlIDAKc29sbw==
        IDAKbXV0ZSAwCn0Kb3V0cHV0IDI1IHsKcGFuIDEKdm9sdW1lIDEKcA==
        aGFzZXJldmVyc2UgMApzb2xvIDAKbXV0ZSAwCn0Kb3V0cHV0IDI2IA==
        ewpwYW4gMAp2b2x1bWUgMQpwaGFzZXJldmVyc2UgMApzb2xvIDAKbQ==
        dXRlIDAKfQpvdXRwdXQgMjcgewpwYW4gMQp2b2x1bWUgMQpwaGFzZQ==
        cmV2ZXJzZSAwCnNvbG8gMAptdXRlIDAKfQpvdXRwdXQgMjggewpwYQ==
        biAwCnZvbHVtZSAxCnBoYXNlcmV2ZXJzZSAwCnNvbG8gMAptdXRlIA==
        MAp9Cm91dHB1dCAyOSB7CnBhbiAxCnZvbHVtZSAxCnBoYXNlcmV2ZQ==
        cnNlIDAKc29sbyAwCm11dGUgMAp9Cm91dHB1dCAzMCB7CnBhbiAwCg==
        dm9sdW1lIDEKcGhhc2VyZXZlcnNlIDAKc29sbyAwCm11dGUgMAp9Cg==
        b3V0cHV0IDMxIHsKcGFuIDEKdm9sdW1lIDEKcGhhc2VyZXZlcnNlIA==
        MApzb2xvIDAKbXV0ZSAwCn0KfQoA
      >
      FLOATPOS 23 23 391 249
      FXID {EEA0E7E6-1DA4-4EE4-A69E-2D3E8ECE336E}
      WAK 0
      BYPASS 0 0
      <VST "VST: ReaVerbate (Cockos)" "reaverbate.dll" 0 ""
        OGJ2cu9e7f4CAAAAAQAAAAAAAAACAAAAAAAAAAIAAAABAAAAAAAAAA==
        AgAAAAAAAAAoAAAAAAAAAAAAEADvvq3eDfCt3vFDNj/Unlo/l5aWPg==
        AAAAPwAAgD8AAAAAAACAPwAAAAA=
      >
      FLOATPOS 622 152 573 357
      FXID {833E7888-1884-4C6A-A6CE-49D253CE00C7}
      WAK 0
    >
    <ITEM
      POSITION 0.00000000000000
      SNAPOFFS 0.00000000000000
      LENGTH 149.53846153846155
      LOOP 1
      ALLTAKES 0
      SEL 0
      FADEIN 1 0.000000 0.000000
      FADEOUT 1 0.000000 0.000000
      MUTE 0
      IGUID {70372F9E-A58B-43ED-82CF-3B7EB58CC1BB}
      NAME "untitled MIDI item glued"
      VOLPAN 1.000000 0.000000 1.000000 -1.000000
      SOFFS 0.00000000000000 0.00000000000000
      PLAYRATE 1.00000000000000 1 0.00000000000000 -1
      CHANMODE 0
      GUID {DB26AEBC-3274-4011-9EDA-034A789DAB09}
      <SOURCE MIDI
        HASDATA 1 960 QN
        E 7680 90 1d 60
        E 0 90 22 60
        E 160 80 1d 00
        E 0 80 22 00
        E 1760 90 20 60
        E 0 90 22 60
        E 160 80 20 00
        E 0 80 22 00
        E 1760 90 1d 60
        E 0 90 22 60
        E 160 80 1d 00
        E 0 80 22 00
        E 1760 90 1b 60
        E 0 90 20 60
        E 0 90 22 60
        E 160 80 1b 00
        E 0 80 20 00
        E 0 80 22 00
        E 1760 90 1c 7f
        E 0 90 24 7f
        E 360 80 1c 00
        E 0 80 24 00
        E 600 90 19 7f
        E 360 80 19 00
        E 280 90 24 7f
        E 160 80 24 00
        E 160 90 19 7f
        E 0 90 27 7f
        E 160 80 19 00
        E 0 80 27 00
        E 800 90 19 7f
        E 160 80 19 00
        E 480 90 26 7f
        E 160 80 26 00
        E 160 90 1a 7f
        E 0 90 24 7f
        E 160 80 1a 00
        E 0 80 24 00
        E 800 90 19 7f
        E 0 90 24 7f
        E 160 80 19 00
        E 0 80 24 00
        E 480 90 24 7f
        E 160 80 24 00
        E 160 90 19 7f
        E 0 90 26 7f
        E 160 80 19 00
        E 0 80 26 00
        E 800 90 19 7f
        e 0 90 22 7f
        E 160 80 19 00
        e 0 80 22 00
        E 800 90 1c 7f
        E 0 90 24 7f
        E 360 80 1c 00
        E 0 80 24 00
        E 600 90 19 7f
        E 360 80 19 00
        E 280 90 24 7f
        E 160 80 24 00
        E 160 90 19 7f
        E 0 90 27 7f
        E 160 80 19 00
        E 0 80 27 00
        E 800 90 19 7f
        E 160 80 19 00
        E 480 90 26 7f
        E 160 80 26 00
        E 160 90 1a 7f
        E 0 90 24 7f
        E 160 80 1a 00
        E 0 80 24 00
        E 800 90 19 7f
        E 0 90 24 7f
        E 160 80 19 00
        E 0 80 24 00
        E 480 90 24 7f
        E 160 80 24 00
        E 160 90 19 7f
        E 0 90 26 7f
        E 160 80 19 00
        E 0 80 26 00
        E 800 90 19 7f
        E 0 90 26 7f
        E 160 80 19 00
        E 0 80 26 00
        E 800 90 1c 7f
        E 0 90 24 7f
        E 360 80 1c 00
        E 0 80 24 00
        E 600 90 19 7f
        E 360 80 19 00
        E 280 90 24 7f
        E 160 80 24 00
        E 160 90 19 7f
        E 0 90 27 7f
        E 160 80 19 00
        E 0 80 27 00
        E 800 90 19 7f
        E 160 80 19 00
        E 480 90 26 7f
        E 160 80 26 00
        E 160 90 1a 7f
        E 0 90 24 7f
        E 160 80 1a 00
        E 0 80 24 00
        E 800 90 19 7f
        E 0 90 24 7f
        E 160 80 19 00
        E 0 80 24 00
        E 480 90 24 7f
        E 160 80 24 00
        E 160 90 19 7f
        E 0 90 26 7f
        E 160 80 19 00
        E 0 80 26 00
        E 800 90 1e 7f
        E 0 90 24 7f
        E 160 80 1e 00
        E 0 80 24 00
        E 800 90 1c 7f
        E 0 90 24 7f
        E 360 80 1c 00
        E 0 80 24 00
        E 600 90 19 7f
        E 360 80 19 00
        E 280 90 24 7f
        E 160 80 24 00
        E 160 90 19 7f
        E 0 90 27 7f
        E 160 80 19 00
        E 0 80 27 00
        E 800 90 19 7f
        E 160 80 19 00
        E 480 90 26 7f
        E 160 80 26 00
        E 160 90 1a 7f
        E 0 90 24 7f
        E 160 80 1a 00
        E 0 80 24 00
        E 800 90 19 7f
        E 0 90 24 7f
        E 160 80 19 00
        E 0 80 24 00
        E 480 90 24 7f
        E 160 80 24 00
        E 160 90 26 7f
        E 160 80 26 00
        E 160 90 28 7f
        E 160 80 28 00
        E 160 90 26 7f
        E 160 80 26 00
        E 160 90 2d 7f
        E 160 80 2d 00
        E 160 90 2d 7f
        E 160 80 2d 00
        E 160 90 2b 7f
        E 160 80 2b 00
        E 160 90 1c 7f
        E 0 90 1f 7f
        E 0 90 24 7f
        E 360 80 1c 00
        E 0 80 24 00
        E 600 80 1f 00
        E 0 90 19 7f
        E 360 80 19 00
        E 280 90 24 7f
        E 160 80 24 00
        E 160 90 19 7f
        E 0 90 27 7f
        E 160 80 19 00
        E 0 80 27 00
        E 800 90 19 7f
        E 160 80 19 00
        E 480 90 26 7f
        E 160 80 26 00
        E 160 90 1a 7f
        E 0 90 24 7f
        E 160 80 1a 00
        E 0 80 24 00
        E 800 90 19 7f
        E 0 90 24 7f
        E 160 80 19 00
        E 0 80 24 00
        E 480 90 24 7f
        E 160 80 24 00
        E 160 90 19 7f
        E 0 90 26 7f
        E 160 80 19 00
        E 0 80 26 00
        E 800 90 19 7f
        E 160 80 19 00
        E 800 90 1c 7f
        E 0 90 24 7f
        E 360 80 1c 00
        E 0 80 24 00
        E 600 90 19 7f
        E 360 80 19 00
        E 280 90 24 7f
        E 160 80 24 00
        E 160 90 19 7f
        E 0 90 27 7f
        E 160 80 19 00
        E 0 80 27 00
        E 800 90 19 7f
        E 160 80 19 00
        E 480 90 26 7f
        E 160 80 26 00
        E 160 90 1a 7f
        E 0 90 24 7f
        E 160 80 1a 00
        E 0 80 24 00
        E 800 90 19 7f
        E 0 90 24 7f
        E 160 80 19 00
        E 0 80 24 00
        E 480 90 24 7f
        E 160 80 24 00
        E 160 90 19 7f
        E 0 90 26 7f
        E 160 80 19 00
        E 0 80 26 00
        E 800 90 1b 7f
        E 0 90 24 7f
        E 160 80 1b 00
        E 0 80 24 00
        E 800 90 1c 7f
        E 0 90 24 7f
        E 360 80 1c 00
        E 0 80 24 00
        E 600 90 19 7f
        E 360 80 19 00
        E 280 90 24 7f
        E 160 80 24 00
        E 160 90 19 7f
        E 0 90 27 7f
        E 160 80 19 00
        E 0 80 27 00
        E 800 90 19 7f
        E 160 80 19 00
        E 480 90 26 7f
        E 160 80 26 00
        E 160 90 1a 7f
        E 0 90 24 7f
        E 160 80 1a 00
        E 0 80 24 00
        E 800 90 19 7f
        E 0 90 24 7f
        E 160 80 19 00
        E 0 80 24 00
        E 480 90 24 7f
        E 160 80 24 00
        E 160 90 19 7f
        E 0 90 26 7f
        E 160 80 19 00
        E 0 80 26 00
        E 800 90 1a 7f
        E 160 80 1a 00
        E 800 90 1f 7f
        E 0 90 24 7f
        E 360 80 24 00
        E 600 90 19 7f
        E 160 80 1f 00
        E 200 80 19 00
        E 280 90 24 7f
        E 160 80 24 00
        E 160 90 19 7f
        E 0 90 27 7f
        E 160 80 19 00
        E 0 80 27 00
        E 800 90 19 7f
        E 160 80 19 00
        E 480 90 26 7f
        E 160 80 26 00
        E 160 90 1a 7f
        E 0 90 24 7f
        E 160 80 1a 00
        E 0 80 24 00
        E 800 90 19 7f
        E 0 90 24 7f
        E 160 80 19 00
        E 0 80 24 00
        E 320 90 24 7f
        E 160 80 24 00
        E 320 90 19 7f
        E 0 90 26 7f
        E 0 90 2b 7f
        E 160 80 19 00
        E 0 80 26 00
        E 0 80 2b 00
        E 320 90 24 7f
        E 160 80 24 00
        E 320 90 26 7f
        E 0 90 2b 7f
        E 160 80 26 00
        E 0 80 2b 00
        E 320 90 24 7f
        E 160 80 24 00
        E 320 90 1d 7f
        E 0 90 1e 7f
        E 0 90 24 7f
        E 160 80 1d 00
        E 0 80 1e 00
        E 0 80 24 00
        E 800 90 1a 7f
        E 160 80 1a 00
        E 320 90 24 7f
        E 160 80 24 00
        E 320 90 1a 7f
        E 0 90 26 7f
        E 160 80 1a 00
        E 0 80 26 00
        E 800 90 1a 7f
        E 160 80 1a 00
        E 800 90 1d 7f
        E 0 90 24 7f
        E 160 80 1d 00
        E 0 80 24 00
        E 800 90 1a 7f
        E 160 80 1a 00
        E 320 90 24 7f
        E 160 80 24 00
        E 320 90 1a 7f
        E 0 90 26 7f
        E 160 80 1a 00
        E 0 80 26 00
        E 800 90 1a 7f
        E 160 80 1a 00
        E 800 90 1d 7f
        E 0 90 26 7f
        E 160 80 1d 00
        E 0 80 26 00
        E 320 90 24 7f
        E 160 80 24 00
        E 320 90 1a 7f
        E 160 80 1a 00
        E 320 90 24 7f
        E 160 80 24 00
        E 320 90 1a 7f
        E 0 90 26 7f
        E 160 80 1a 00
        E 0 80 26 00
        E 320 90 24 7f
        E 160 80 24 00
        E 320 90 1a 7f
        E 160 80 1a 00
        E 320 90 24 7f
        E 160 80 24 00
        E 320 90 1d 7f
        E 0 90 26 7f
        E 160 80 1d 00
        E 0 80 26 00
        E 320 90 24 7f
        E 160 80 24 00
        E 320 90 1a 7f
        E 160 80 1a 00
        E 800 90 1a 7f
        E 0 90 26 7f
        E 160 80 1a 00
        E 0 80 26 00
        E 320 90 20 7f
        E 0 90 24 7f
        E 160 80 20 00
        E 0 80 24 00
        E 320 90 1a 7f
        E 160 80 1a 00
        E 800 90 1f 7f
        E 0 90 24 7f
        E 160 80 1f 00
        E 0 80 24 00
        E 800 90 35 59
        E 160 80 35 00
        E 320 90 24 7f
        E 0 90 35 59
        E 160 80 24 00
        E 0 80 35 00
        E 320 90 26 7f
        E 0 90 35 59
        E 160 80 26 00
        E 0 80 35 00
        E 320 90 35 59
        E 160 80 35 00
        E 320 90 35 59
        E 160 80 35 00
        E 320 90 24 7f
        E 0 90 35 59
        E 160 80 24 00
        E 0 80 35 00
        E 320 90 2d 7f
        E 0 90 35 59
        E 160 80 2d 00
        E 0 80 35 00
        E 320 90 35 59
        E 160 80 35 00
        E 320 90 35 59
        E 160 80 35 00
        E 320 90 24 7f
        E 0 90 35 59
        E 160 80 24 00
        E 0 80 35 00
        E 320 90 26 7f
        E 0 90 35 59
        E 160 80 26 00
        E 0 80 35 00
        E 320 90 1d 7f
        E 0 90 24 7f
        E 160 80 1d 00
        E 0 80 24 00
        E 800 90 35 7f
        E 160 80 35 00
        E 320 90 1f 7f
        E 0 90 24 7f
        E 160 80 1f 00
        E 0 80 24 00
        E 320 90 35 5d
        E 160 80 35 00
        E 320 90 35 5d
        E 160 80 35 00
        E 320 90 24 7f
        E 0 90 35 5d
        E 160 80 24 00
        E 0 80 35 00
        E 320 90 26 7f
        E 0 90 35 5d
        E 160 80 26 00
        E 0 80 35 00
        E 320 90 35 5d
        E 160 80 35 00
        E 320 90 35 5d
        E 160 80 35 00
        E 320 90 24 7f
        E 0 90 35 5d
        E 160 80 24 00
        E 0 80 35 00
        E 320 90 2b 7f
        E 0 90 35 5d
        E 160 80 2b 00
        E 0 80 35 00
        E 320 90 35 5d
        E 160 80 35 00
        E 320 90 35 5d
        E 160 80 35 00
        E 320 90 24 7f
        E 0 90 35 5d
        E 160 80 24 00
        E 0 80 35 00
        E 320 90 26 7f
        E 0 90 2b 7f
        E 160 80 26 00
        E 0 80 2b 00
        E 320 90 24 7f
        E 160 80 24 00
        E 320 90 26 7f
        E 0 90 2b 7f
        E 160 80 26 00
        E 0 80 2b 00
        E 320 90 24 7f
        E 160 80 24 00
        E 320 90 1f 7f
        E 0 90 24 7f
        E 160 80 1f 00
        E 0 80 24 00
        E 800 90 35 59
        E 160 80 35 00
        E 320 90 24 7f
        E 0 90 35 59
        E 160 80 24 00
        E 0 80 35 00
        E 320 90 26 7f
        E 0 90 35 59
        E 160 80 26 00
        E 0 80 35 00
        E 320 90 35 59
        E 160 80 35 00
        E 320 90 35 59
        E 160 80 35 00
        E 320 90 24 7f
        E 0 90 35 59
        E 160 80 24 00
        E 0 80 35 00
        E 320 90 2d 7f
        E 0 90 35 59
        E 160 80 2d 00
        E 0 80 35 00
        E 320 90 35 59
        E 160 80 35 00
        E 320 90 35 59
        E 160 80 35 00
        E 320 90 24 7f
        E 0 90 35 59
        E 160 80 24 00
        E 0 80 35 00
        E 320 90 26 7f
        E 0 90 35 59
        E 160 80 26 00
        E 0 80 35 00
        E 320 90 1d 7f
        E 0 90 24 7f
        E 160 80 1d 00
        E 0 80 24 00
        E 800 90 35 7f
        E 160 80 35 00
        E 320 90 1f 7f
        E 0 90 24 7f
        E 160 80 1f 00
        E 0 80 24 00
        E 320 90 35 5d
        E 160 80 35 00
        E 320 90 35 5d
        E 160 80 35 00
        E 320 90 24 7f
        E 0 90 35 5d
        E 160 80 24 00
        E 0 80 35 00
        E 320 90 26 7f
        E 0 90 35 5d
        E 160 80 26 00
        E 0 80 35 00
        E 320 90 35 5d
        E 160 80 35 00
        E 320 90 35 5d
        E 160 80 35 00
        E 320 90 24 7f
        E 0 90 35 5d
        E 160 80 24 00
        E 0 80 35 00
        E 320 90 2b 7f
        E 0 90 35 5d
        E 160 80 2b 00
        E 0 80 35 00
        E 320 90 35 5d
        E 160 80 35 00
        E 320 90 35 5d
        E 160 80 35 00
        E 320 90 24 7f
        E 0 90 35 5d
        E 160 80 24 00
        E 0 80 35 00
        E 320 90 26 7f
        E 0 90 2b 7f
        E 160 80 26 00
        E 0 80 2b 00
        E 320 90 24 7f
        E 160 80 24 00
        E 320 90 26 7f
        E 0 90 2b 7f
        E 160 80 26 00
        E 0 80 2b 00
        E 320 90 24 7f
        E 160 80 24 00
        E 320 90 1d 7f
        E 0 90 24 7f
        E 160 80 1d 00
        E 0 80 24 00
        E 800 90 1a 7f
        E 160 80 1a 00
        E 320 90 24 7f
        E 160 80 24 00
        E 320 90 1a 7f
        E 0 90 26 7f
        E 160 80 1a 00
        E 0 80 26 00
        E 800 90 1a 7f
        E 160 80 1a 00
        E 800 90 1d 7f
        E 0 90 24 7f
        E 160 80 1d 00
        E 0 80 24 00
        E 800 90 1a 7f
        E 160 80 1a 00
        E 320 90 24 7f
        E 160 80 24 00
        E 320 90 1a 7f
        E 0 90 26 7f
        E 160 80 1a 00
        E 0 80 26 00
        E 800 90 1a 7f
        E 160 80 1a 00
        E 800 90 1d 7f
        E 0 90 26 7f
        E 160 80 1d 00
        E 0 80 26 00
        E 320 90 24 7f
        E 160 80 24 00
        E 320 90 1a 7f
        E 160 80 1a 00
        E 320 90 24 7f
        E 160 80 24 00
        E 320 90 1a 7f
        E 0 90 26 7f
        E 160 80 1a 00
        E 0 80 26 00
        E 320 90 24 7f
        E 160 80 24 00
        E 320 90 1a 7f
        E 160 80 1a 00
        E 320 90 24 7f
        E 160 80 24 00
        E 320 90 1d 7f
        E 0 90 26 7f
        E 160 80 1d 00
        E 0 80 26 00
        E 320 90 24 7f
        E 160 80 24 00
        E 320 90 1a 7f
        E 160 80 1a 00
        E 800 90 1a 7f
        E 0 90 26 7f
        E 160 80 1a 00
        E 0 80 26 00
        E 320 90 20 7f
        E 0 90 24 7f
        E 160 80 20 00
        E 0 80 24 00
        E 320 90 1a 7f
        E 160 80 1a 00
        E 800 90 1f 7f
        E 0 90 24 7f
        E 160 80 1f 00
        E 0 80 24 00
        E 800 90 35 59
        E 160 80 35 00
        E 320 90 24 7f
        E 0 90 35 59
        E 160 80 24 00
        E 0 80 35 00
        E 320 90 26 7f
        E 0 90 35 59
        E 160 80 26 00
        E 0 80 35 00
        E 320 90 35 59
        E 160 80 35 00
        E 320 90 35 59
        E 160 80 35 00
        E 320 90 24 7f
        E 0 90 35 59
        E 160 80 24 00
        E 0 80 35 00
        E 320 90 2d 7f
        E 0 90 35 59
        E 160 80 2d 00
        E 0 80 35 00
        E 320 90 35 59
        E 160 80 35 00
        E 320 90 35 59
        E 160 80 35 00
        E 320 90 24 7f
        E 0 90 35 59
        E 160 80 24 00
        E 0 80 35 00
        E 320 90 26 7f
        E 0 90 35 59
        E 160 80 26 00
        E 0 80 35 00
        E 320 90 1d 7f
        E 0 90 24 7f
        E 160 80 1d 00
        E 0 80 24 00
        E 800 90 35 7f
        E 160 80 35 00
        E 320 90 1f 7f
        E 0 90 24 7f
        E 160 80 1f 00
        E 0 80 24 00
        E 320 90 35 5d
        E 160 80 35 00
        E 320 90 35 5d
        E 160 80 35 00
        E 320 90 24 7f
        E 0 90 35 5d
        E 160 80 24 00
        E 0 80 35 00
        E 320 90 26 7f
        E 0 90 35 5d
        E 160 80 26 00
        E 0 80 35 00
        E 320 90 35 5d
        E 160 80 35 00
        E 320 90 35 5d
        E 160 80 35 00
        E 320 90 24 7f
        E 0 90 35 5d
        E 160 80 24 00
        E 0 80 35 00
        E 320 90 2b 7f
        E 0 90 35 5d
        E 160 80 2b 00
        E 0 80 35 00
        E 320 90 35 5d
        E 160 80 35 00
        E 320 90 35 5d
        E 160 80 35 00
        E 320 90 24 7f
        E 0 90 35 5d
        E 160 80 24 00
        E 0 80 35 00
        E 320 90 26 7f
        E 0 90 2b 7f
        E 160 80 26 00
        E 0 80 2b 00
        E 320 90 24 7f
        E 160 80 24 00
        E 320 90 26 7f
        E 0 90 2b 7f
        E 160 80 26 00
        E 0 80 2b 00
        E 320 90 24 7f
        E 160 80 24 00
        E 320 90 1f 7f
        E 0 90 24 7f
        E 160 80 1f 00
        E 0 80 24 00
        E 800 90 35 59
        E 160 80 35 00
        E 320 90 24 7f
        E 0 90 35 59
        E 160 80 24 00
        E 0 80 35 00
        E 320 90 26 7f
        E 0 90 35 59
        E 160 80 26 00
        E 0 80 35 00
        E 320 90 35 59
        E 160 80 35 00
        E 320 90 35 59
        E 160 80 35 00
        E 320 90 24 7f
        E 0 90 35 59
        E 160 80 24 00
        E 0 80 35 00
        E 320 90 2d 7f
        E 0 90 35 59
        E 160 80 2d 00
        E 0 80 35 00
        E 320 90 35 59
        E 160 80 35 00
        E 320 90 35 59
        E 160 80 35 00
        E 320 90 24 7f
        E 0 90 35 59
        E 160 80 24 00
        E 0 80 35 00
        E 320 90 26 7f
        E 0 90 35 59
        E 160 80 26 00
        E 0 80 35 00
        E 320 90 1d 7f
        E 0 90 24 7f
        E 160 80 1d 00
        E 0 80 24 00
        E 800 90 35 7f
        E 160 80 35 00
        E 320 90 1f 7f
        E 0 90 24 7f
        E 160 80 1f 00
        E 0 80 24 00
        E 320 90 35 5d
        E 160 80 35 00
        E 320 90 35 5d
        E 160 80 35 00
        E 320 90 24 7f
        E 0 90 35 5d
        E 160 80 24 00
        E 0 80 35 00
        E 320 90 26 7f
        E 0 90 35 5d
        E 160 80 26 00
        E 0 80 35 00
        E 320 90 35 5d
        E 160 80 35 00
        E 320 90 35 5d
        E 160 80 35 00
        E 320 90 24 7f
        E 0 90 35 5d
        E 160 80 24 00
        E 0 80 35 00
        E 320 90 2b 7f
        E 0 90 35 5d
        E 160 80 2b 00
        E 0 80 35 00
        E 320 90 35 5d
        E 160 80 35 00
        E 320 90 35 5d
        E 160 80 35 00
        E 320 90 24 7f
        E 0 90 35 5d
        E 160 80 24 00
        E 0 80 35 00
        E 320 90 26 7f
        E 0 90 2b 7f
        E 160 80 26 00
        E 0 80 2b 00
        E 320 90 24 7f
        E 160 80 24 00
        E 320 90 26 7f
        E 0 90 2b 7f
        E 160 80 26 00
        E 0 80 2b 00
        E 320 90 24 7f
        E 160 80 24 00
        E 320 90 1d 7f
        E 0 90 24 7f
        E 160 80 1d 00
        E 0 80 24 00
        E 800 90 1a 7f
        E 160 80 1a 00
        E 320 90 24 7f
        E 160 80 24 00
        E 320 90 1a 7f
        E 0 90 26 7f
        E 160 80 1a 00
        E 0 80 26 00
        E 800 90 1a 7f
        E 160 80 1a 00
        E 800 90 1d 7f
        E 0 90 24 7f
        E 160 80 1d 00
        E 0 80 24 00
        E 800 90 1a 7f
        E 160 80 1a 00
        E 320 90 24 7f
        E 160 80 24 00
        E 320 90 1a 7f
        E 0 90 26 7f
        E 160 80 1a 00
        E 0 80 26 00
        E 800 90 1a 7f
        E 160 80 1a 00
        E 800 90 1d 7f
        E 0 90 26 7f
        E 160 80 1d 00
        E 0 80 26 00
        E 320 90 24 7f
        E 160 80 24 00
        E 320 90 1a 7f
        E 160 80 1a 00
        E 320 90 24 7f
        E 160 80 24 00
        E 320 90 26 7f
        E 160 80 26 00
        E 320 90 26 7f
        E 160 80 26 00
        E 320 90 2d 7f
        E 160 80 2d 00
        E 320 90 2d 7f
        E 160 80 2d 00
        E 320 90 1d 7f
        E 0 90 26 7f
        E 160 80 1d 00
        E 0 80 26 00
        E 320 90 24 7f
        E 160 80 24 00
        E 1280 90 1c 7f
        E 0 90 1e 7f
        E 0 90 24 7f
        E 160 80 1c 00
        E 0 80 1e 00
        E 0 80 24 00
        E 1760 90 1d 7f
        E 0 90 1f 7f
        E 0 90 24 7f
        E 160 80 1d 00
        E 0 80 1f 00
        E 0 80 24 00
        E 1760 90 35 7f
        E 160 80 35 00
        E 1760 90 35 7f
        E 160 80 35 00
        E 1760 90 26 7f
        E 160 80 26 00
        E 160 90 30 7f
        E 160 80 30 00
        E 160 90 2b 7f
        E 160 80 2b 00
        E 160 90 22 7f
        E 160 80 22 00
        E 320 90 1a 7f
        E 0 90 22 7f
        E 160 80 1a 00
        E 0 80 22 00
        E 320 90 2d 7f
        E 160 80 2d 00
        E 160 90 2b 7f
        E 160 80 2b 00
        E 160 90 22 7f
        E 160 80 22 00
        E 160 90 20 7f
        E 0 90 26 7f
        E 160 80 20 00
        E 0 80 26 00
        E 1760 90 26 7f
        E 160 80 26 00
        E 320 90 26 7f
        E 160 80 26 00
        E 320 90 1e 7f
        E 0 90 22 7f
        E 160 80 1e 00
        E 0 80 22 00
        E 800 90 1a 7f
        E 160 80 1a 00
        E 320 90 22 7f
        E 160 80 22 00
        E 320 90 1a 7f
        E 0 90 26 7f
        E 160 80 1a 00
        E 0 80 26 00
        E 800 90 1a 7f
        E 160 80 1a 00
        E 320 90 22 7f
        E 160 80 22 00
        E 320 90 1a 7f
        E 0 90 22 7f
        E 160 80 1a 00
        E 0 80 22 00
        E 800 90 1a 7f
        E 160 80 1a 00
        E 320 90 22 7f
        E 160 80 22 00
        E 320 90 1a 7f
        E 0 90 26 7f
        E 160 80 1a 00
        E 0 80 26 00
        E 320 90 26 7f
        E 160 80 26 00
        E 320 90 1d 7f
        E 0 90 22 7f
        E 160 80 1d 00
        E 0 80 22 00
        E 800 90 1c 7f
        E 0 90 22 7f
        E 160 80 1c 00
        E 0 80 22 00
        E 800 90 1a 7f
        E 160 80 1a 00
        E 320 90 22 7f
        E 160 80 22 00
        E 320 90 1a 7f
        E 0 90 26 7f
        E 160 80 1a 00
        E 0 80 26 00
        E 800 90 1a 7f
        E 160 80 1a 00
        E 320 90 22 7f
        E 160 80 22 00
        E 320 90 1a 7f
        E 0 90 22 7f
        E 160 80 1a 00
        E 0 80 22 00
        E 800 90 1a 7f
        E 160 80 1a 00
        E 320 90 22 7f
        E 160 80 22 00
        E 320 90 1a 7f
        E 0 90 26 7f
        E 160 80 1a 00
        E 0 80 26 00
        E 320 90 26 7f
        E 160 80 26 00
        E 320 90 26 7f
        E 160 80 26 00
        E 320 90 26 7f
        E 160 80 26 00
        E 320 90 22 7f
        E 0 90 31 7f
        E 160 80 22 00
        E 0 80 31 00
        E 800 90 33 7f
        E 0 90 35 7f
        E 160 80 33 00
        E 0 80 35 00
        E 320 90 27 7f
        E 160 80 27 00
        E 320 90 26 7f
        E 0 90 33 7f
        E 0 90 35 7f
        E 160 80 26 00
        E 0 80 33 00
        E 0 80 35 00
        E 800 90 33 7f
        E 0 90 35 7f
        E 160 80 33 00
        E 0 80 35 00
        E 320 90 27 7f
        E 160 80 27 00
        E 320 90 22 7f
        E 0 90 28 7f
        E 0 90 33 7f
        E 0 90 35 7f
        E 160 80 22 00
        E 0 80 28 00
        E 0 80 33 00
        E 0 80 35 00
        E 800 90 33 7f
        E 0 90 35 7f
        E 160 80 33 00
        E 0 80 35 00
        E 320 90 27 7f
        E 160 80 27 00
        E 320 90 22 7f
        E 0 90 33 7f
        E 0 90 35 7f
        E 160 80 22 00
        E 0 80 33 00
        E 0 80 35 00
        E 320 90 22 7f
        E 160 80 22 00
        E 320 90 22 7f
        E 0 90 33 7f
        E 0 90 35 7f
        E 160 80 22 00
        E 0 80 33 00
        E 0 80 35 00
        E 320 90 26 7f
        E 160 80 26 00
        E 320 90 22 7f
        E 0 90 31 7f
        E 160 80 22 00
        E 0 80 31 00
        E 800 90 33 7f
        E 0 90 35 7f
        E 160 80 33 00
        E 0 80 35 00
        E 320 90 27 7f
        E 160 80 27 00
        E 320 90 26 7f
        E 0 90 33 7f
        E 0 90 35 7f
        E 160 80 26 00
        E 0 80 33 00
        E 0 80 35 00
        E 800 90 33 7f
        E 0 90 35 7f
        E 160 80 33 00
        E 0 80 35 00
        E 320 90 27 7f
        E 160 80 27 00
        E 320 90 22 7f
        E 0 90 28 7f
        E 0 90 33 7f
        E 0 90 35 7f
        E 160 80 22 00
        E 0 80 28 00
        E 0 80 33 00
        E 0 80 35 00
        E 800 90 33 7f
        E 0 90 35 7f
        E 160 80 33 00
        E 0 80 35 00
        E 320 90 27 7f
        E 160 80 27 00
        E 320 90 22 7f
        E 0 90 33 7f
        E 0 90 35 7f
        E 160 80 22 00
        E 0 80 33 00
        E 0 80 35 00
        E 320 90 22 7f
        E 160 80 22 00
        E 320 90 22 7f
        E 0 90 33 7f
        E 0 90 35 7f
        E 160 80 22 00
        E 0 80 33 00
        E 0 80 35 00
        E 320 90 26 7f
        E 160 80 26 00
        E 320 90 1e 7f
        E 0 90 22 7f
        E 160 80 1e 00
        E 0 80 22 00
        E 800 90 1a 7f
        E 160 80 1a 00
        E 320 90 22 7f
        E 160 80 22 00
        E 320 90 1a 7f
        E 0 90 26 7f
        E 160 80 1a 00
        E 0 80 26 00
        E 800 90 1a 7f
        E 160 80 1a 00
        E 320 90 22 7f
        E 160 80 22 00
        E 320 90 1a 7f
        E 0 90 22 7f
        E 160 80 1a 00
        E 0 80 22 00
        E 800 90 1a 7f
        E 160 80 1a 00
        E 320 90 22 7f
        E 160 80 22 00
        E 320 90 1a 7f
        E 0 90 26 7f
        E 160 80 1a 00
        E 0 80 26 00
        E 320 90 26 7f
        E 160 80 26 00
        E 320 90 1d 7f
        E 0 90 22 7f
        E 160 80 1d 00
        E 0 80 22 00
        E 800 90 1e 7f
        E 0 90 22 7f
        E 160 80 1e 00
        E 0 80 22 00
        E 800 90 1a 7f
        E 160 80 1a 00
        E 320 90 22 7f
        E 160 80 22 00
        E 320 90 1a 7f
        E 0 90 26 7f
        E 160 80 1a 00
        E 0 80 26 00
        E 800 90 1a 7f
        E 160 80 1a 00
        E 320 90 22 7f
        E 160 80 22 00
        E 320 90 1a 7f
        E 0 90 22 7f
        E 160 80 1a 00
        E 0 80 22 00
        E 800 90 1a 7f
        E 160 80 1a 00
        E 320 90 22 7f
        E 160 80 22 00
        E 320 90 1a 7f
        E 0 90 26 7f
        E 160 80 1a 00
        E 0 80 26 00
        E 320 90 26 7f
        E 160 80 26 00
        E 320 90 26 7f
        E 160 80 26 00
        E 320 90 26 7f
        E 160 80 26 00
        E 320 90 22 7f
        E 0 90 31 7f
        E 160 80 22 00
        E 0 80 31 00
        E 800 90 33 7f
        E 0 90 35 7f
        E 160 80 33 00
        E 0 80 35 00
        E 320 90 27 7f
        E 160 80 27 00
        E 320 90 26 7f
        E 0 90 33 7f
        E 0 90 35 7f
        E 160 80 26 00
        E 0 80 33 00
        E 0 80 35 00
        E 800 90 33 7f
        E 0 90 35 7f
        E 160 80 33 00
        E 0 80 35 00
        E 320 90 27 7f
        E 160 80 27 00
        E 320 90 22 7f
        E 0 90 28 7f
        E 0 90 33 7f
        E 0 90 35 7f
        E 160 80 22 00
        E 0 80 28 00
        E 0 80 33 00
        E 0 80 35 00
        E 800 90 33 7f
        E 0 90 35 7f
        E 160 80 33 00
        E 0 80 35 00
        E 320 90 27 7f
        E 160 80 27 00
        E 320 90 22 7f
        E 0 90 33 7f
        E 0 90 35 7f
        E 160 80 22 00
        E 0 80 33 00
        E 0 80 35 00
        E 320 90 22 7f
        E 160 80 22 00
        E 320 90 22 7f
        E 0 90 33 7f
        E 0 90 35 7f
        E 160 80 22 00
        E 0 80 33 00
        E 0 80 35 00
        E 320 90 26 7f
        E 160 80 26 00
        E 320 90 22 7f
        E 0 90 31 7f
        E 160 80 22 00
        E 0 80 31 00
        E 800 90 33 7f
        E 0 90 35 7f
        E 160 80 33 00
        E 0 80 35 00
        E 320 90 27 7f
        E 160 80 27 00
        E 320 90 26 7f
        E 0 90 33 7f
        E 0 90 35 7f
        E 160 80 26 00
        E 0 80 33 00
        E 0 80 35 00
        E 800 90 33 7f
        E 0 90 35 7f
        E 160 80 33 00
        E 0 80 35 00
        E 320 90 27 7f
        E 160 80 27 00
        E 320 90 22 7f
        E 0 90 28 7f
        E 0 90 33 7f
        E 0 90 35 7f
        E 160 80 22 00
        E 0 80 28 00
        E 0 80 33 00
        E 0 80 35 00
        E 800 90 33 7f
        E 0 90 35 7f
        E 160 80 33 00
        E 0 80 35 00
        E 320 90 27 7f
        E 160 80 27 00
        E 320 90 22 7f
        E 0 90 33 7f
        E 0 90 35 7f
        E 160 80 22 00
        E 0 80 33 00
        E 0 80 35 00
        E 320 90 22 7f
        E 160 80 22 00
        E 320 90 22 7f
        E 0 90 33 7f
        E 0 90 35 7f
        E 160 80 22 00
        E 0 80 33 00
        E 0 80 35 00
        E 320 90 26 7f
        E 160 80 26 00
        E 320 90 1e 7f
        E 0 90 22 7f
        E 160 80 1e 00
        E 0 80 22 00
        E 800 90 1a 7f
        E 160 80 1a 00
        E 320 90 22 7f
        E 160 80 22 00
        E 320 90 1a 7f
        E 0 90 26 7f
        E 160 80 1a 00
        E 0 80 26 00
        E 800 90 1a 7f
        E 160 80 1a 00
        E 320 90 22 7f
        E 160 80 22 00
        E 320 90 1a 7f
        E 0 90 22 7f
        E 160 80 1a 00
        E 0 80 22 00
        E 800 90 1a 7f
        E 160 80 1a 00
        E 320 90 22 7f
        E 160 80 22 00
        E 320 90 1a 7f
        E 0 90 26 7f
        E 160 80 1a 00
        E 0 80 26 00
        E 320 90 26 7f
        E 160 80 26 00
        E 320 90 1d 7f
        E 0 90 22 7f
        E 160 80 1d 00
        E 0 80 22 00
        E 800 90 1e 7f
        E 0 90 22 7f
        E 160 80 1e 00
        E 0 80 22 00
        E 800 90 1a 7f
        E 160 80 1a 00
        E 320 90 22 7f
        E 160 80 22 00
        E 320 90 1a 7f
        E 0 90 26 7f
        E 160 80 1a 00
        E 0 80 26 00
        E 800 90 1a 7f
        E 160 80 1a 00
        E 320 90 22 7f
        E 160 80 22 00
        E 320 90 1a 7f
        E 0 90 22 7f
        E 160 80 1a 00
        E 0 80 22 00
        E 800 90 1a 7f
        E 160 80 1a 00
        E 320 90 22 7f
        E 160 80 22 00
        E 320 90 1a 7f
        E 0 90 26 7f
        E 160 80 1a 00
        E 0 80 26 00
        E 320 90 26 7f
        E 160 80 26 00
        E 320 90 26 7f
        E 160 80 26 00
        E 320 90 26 7f
        E 160 80 26 00
        E 320 90 22 7f
        E 0 90 31 7f
        E 160 80 22 00
        E 0 80 31 00
        E 800 90 33 7f
        E 0 90 35 7f
        E 160 80 33 00
        E 0 80 35 00
        E 320 90 27 7f
        E 160 80 27 00
        E 320 90 26 7f
        E 0 90 33 7f
        E 0 90 35 7f
        E 160 80 26 00
        E 0 80 33 00
        E 0 80 35 00
        E 800 90 33 7f
        E 0 90 35 7f
        E 160 80 33 00
        E 0 80 35 00
        E 320 90 27 7f
        E 160 80 27 00
        E 320 90 22 7f
        E 0 90 28 7f
        E 0 90 33 7f
        E 0 90 35 7f
        E 160 80 22 00
        E 0 80 28 00
        E 0 80 33 00
        E 0 80 35 00
        E 800 90 33 7f
        E 0 90 35 7f
        E 160 80 33 00
        E 0 80 35 00
        E 320 90 27 7f
        E 160 80 27 00
        E 320 90 22 7f
        E 0 90 33 7f
        E 0 90 35 7f
        E 160 80 22 00
        E 0 80 33 00
        E 0 80 35 00
        E 320 90 22 7f
        E 160 80 22 00
        E 320 90 22 7f
        E 0 90 33 7f
        E 0 90 35 7f
        E 160 80 22 00
        E 0 80 33 00
        E 0 80 35 00
        E 320 90 26 7f
        E 160 80 26 00
        E 320 90 22 7f
        E 0 90 31 7f
        E 160 80 22 00
        E 0 80 31 00
        E 800 90 33 7f
        E 0 90 35 7f
        E 160 80 33 00
        E 0 80 35 00
        E 320 90 27 7f
        E 160 80 27 00
        E 320 90 26 7f
        E 0 90 33 7f
        E 0 90 35 7f
        E 160 80 26 00
        E 0 80 33 00
        E 0 80 35 00
        E 800 90 33 7f
        E 0 90 35 7f
        E 160 80 33 00
        E 0 80 35 00
        E 320 90 27 7f
        E 160 80 27 00
        E 320 90 22 7f
        E 0 90 28 7f
        E 0 90 33 7f
        E 0 90 35 7f
        E 160 80 22 00
        E 0 80 28 00
        E 0 80 33 00
        E 0 80 35 00
        E 800 90 33 7f
        E 0 90 35 7f
        E 160 80 33 00
        E 0 80 35 00
        E 320 90 27 7f
        E 160 80 27 00
        E 320 90 22 7f
        E 0 90 33 7f
        E 0 90 35 7f
        E 160 80 22 00
        E 0 80 33 00
        E 0 80 35 00
        E 320 90 22 7f
        E 160 80 22 00
        E 320 90 22 7f
        E 0 90 33 7f
        E 0 90 35 7f
        E 160 80 22 00
        E 0 80 33 00
        E 0 80 35 00
        E 320 90 26 7f
        E 160 80 26 00
        E 320 90 1e 7f
        E 0 90 22 7f
        E 160 80 1e 00
        E 0 80 22 00
        E 800 90 1a 7f
        E 160 80 1a 00
        E 320 90 22 7f
        E 160 80 22 00
        E 320 90 1a 7f
        E 0 90 26 7f
        E 160 80 1a 00
        E 0 80 26 00
        E 800 90 1a 7f
        E 160 80 1a 00
        E 320 90 22 7f
        E 160 80 22 00
        E 320 90 1a 7f
        E 0 90 22 7f
        E 160 80 1a 00
        E 0 80 22 00
        E 800 90 1a 7f
        E 160 80 1a 00
        E 320 90 22 7f
        E 160 80 22 00
        E 320 90 1a 7f
        E 0 90 26 7f
        E 160 80 1a 00
        E 0 80 26 00
        E 320 90 26 7f
        E 160 80 26 00
        E 320 90 1d 7f
        E 0 90 22 7f
        E 160 80 1d 00
        E 0 80 22 00
        E 800 90 1e 7f
        E 0 90 22 7f
        E 160 80 1e 00
        E 0 80 22 00
        E 800 90 1a 7f
        E 160 80 1a 00
        E 320 90 22 7f
        E 160 80 22 00
        E 320 90 1a 7f
        E 0 90 26 7f
        E 160 80 1a 00
        E 0 80 26 00
        E 800 90 1a 7f
        E 160 80 1a 00
        E 320 90 22 7f
        E 160 80 22 00
        E 320 90 1a 7f
        E 0 90 22 7f
        E 160 80 1a 00
        E 0 80 22 00
        E 800 90 1a 7f
        E 160 80 1a 00
        E 320 90 22 7f
        E 160 80 22 00
        E 320 90 1a 7f
        E 0 90 26 7f
        E 160 80 1a 00
        E 0 80 26 00
        E 320 90 26 7f
        E 160 80 26 00
        E 320 90 26 7f
        E 160 80 26 00
        E 320 90 26 7f
        E 160 80 26 00
        E 320 90 1c 7f
        E 0 90 1e 7f
        E 0 90 22 7f
        E 160 80 1c 00
        E 0 80 1e 00
        E 0 80 22 00
        E 320 90 26 2c
        E 0 90 2d 3a
        E 160 80 26 00
        E 0 80 2d 00
        E 320 90 26 37
        E 0 90 2d 37
        E 160 80 26 00
        E 0 80 2d 00
        E 320 90 26 3a
        E 0 90 2d 3a
        E 160 80 26 00
        E 0 80 2d 00
        E 320 90 26 3d
        E 0 90 2d 3d
        E 160 80 26 00
        E 0 80 2d 00
        E 320 90 26 40
        E 0 90 2d 40
        E 160 80 26 00
        E 0 80 2d 00
        E 320 90 26 44
        E 0 90 2d 44
        E 160 80 26 00
        E 0 80 2d 00
        E 320 90 26 47
        E 0 90 2d 47
        E 160 80 26 00
        E 0 80 2d 00
        E 320 90 26 4a
        E 0 90 2d 4a
        E 160 80 26 00
        E 0 80 2d 00
        E 320 90 26 4d
        E 0 90 2d 4d
        E 160 80 26 00
        E 0 80 2d 00
        E 320 90 26 50
        E 0 90 2d 50
        E 160 80 26 00
        E 0 80 2d 00
        E 320 90 26 53
        E 0 90 2d 53
        E 160 80 26 00
        E 0 80 2d 00
        E 320 90 26 56
        E 0 90 2d 56
        E 160 80 26 00
        E 0 80 2d 00
        E 320 90 26 5a
        E 0 90 2d 5a
        E 160 80 26 00
        E 0 80 2d 00
        E 320 90 26 5d
        E 0 90 2d 5d
        E 160 80 26 00
        E 0 80 2d 00
        E 320 90 26 60
        E 0 90 2d 60
        E 160 80 26 00
        E 0 80 2d 00
        E 320 b0 7b 00
        GUID {0552BA5D-48EC-472D-BFE7-54D644E9F8F3}
        IGNTEMPO 0 120.00000000 4 4
        VELLANE -1 104 0
        BANKPROGRAMFILE "C:\Users\Zak\AppData\Roaming\REAPER/Data/GM.reabank"
        CFGEDITVIEW 10005.272246 0.051191 70 12 0 0 0
        CFGEDIT 1 1 0 1 0 0 1 1 1 1 1 0.16666667 211 70 1465 786 0 0 0 0 0.16666667 0 0 0 0 0.750000
        EVTFILTER 0 -1 -1 -1 -1 0 1
      >
    >
    <ITEM
      POSITION 149.53846153846155
      SNAPOFFS 0.00000000000000
      LENGTH 1.84615384615384
      LOOP 1
      ALLTAKES 0
      SEL 0
      FADEIN 1 0.000000 0.000000
      FADEOUT 1 0.000000 0.000000
      MUTE 0
      IGUID {C0F45E94-6F3B-4C8C-8458-3294C57846B0}
      NAME "untitled MIDI item glued"
      VOLPAN 1.000000 0.000000 1.000000 -1.000000
      SOFFS 149.53846153846155 324.00000000000000
      PLAYRATE 1.00000000000000 1 0.00000000000000 -1
      CHANMODE 0
      GUID {868D446C-461A-4AC7-95FE-4245EEA54AC0}
      <SOURCE MIDI
        HASDATA 1 960 QN
        E 0 90 1a 7f
        E 360 80 1a 00
        E 600 90 1a 7f
        E 360 80 1a 00
        E 600 90 1a 7f
        E 360 80 1a 00
        E 600 90 1a 7f
        E 360 80 1a 00
        E 600 90 1a 7f
        E 360 80 1a 00
        E 600 90 1a 7f
        E 360 80 1a 00
        E 600 90 1a 7f
        E 360 80 1a 00
        E 600 90 1a 7f
        E 360 80 1a 00
        E 600 90 1d 60
        E 0 90 22 60
        E 160 80 1d 00
        E 0 80 22 00
        E 1760 90 20 60
        E 0 90 22 60
        E 160 80 20 00
        E 0 80 22 00
        E 1760 90 1d 60
        E 0 90 22 60
        E 160 80 1d 00
        E 0 80 22 00
        E 1760 90 1b 60
        E 0 90 20 60
        E 0 90 22 60
        E 160 80 1b 00
        E 0 80 20 00
        E 0 80 22 00
        E 1760 90 1c 7f
        E 0 90 24 7f
        E 360 80 1c 00
        E 0 80 24 00
        E 600 90 19 7f
        E 360 80 19 00
        E 280 90 24 7f
        E 160 80 24 00
        E 160 90 19 7f
        E 0 90 27 7f
        E 160 80 19 00
        E 0 80 27 00
        E 800 90 19 7f
        E 160 80 19 00
        E 480 90 26 7f
        E 160 80 26 00
        E 160 90 1a 7f
        E 0 90 24 7f
        E 160 80 1a 00
        E 0 80 24 00
        E 800 90 19 7f
        E 0 90 24 7f
        E 160 80 19 00
        E 0 80 24 00
        E 480 90 24 7f
        E 160 80 24 00
        E 160 90 19 7f
        E 0 90 26 7f
        E 160 80 19 00
        E 0 80 26 00
        E 800 90 19 7f
        E 160 80 19 00
        E 800 90 1c 7f
        E 0 90 24 7f
        E 360 80 1c 00
        E 0 80 24 00
        E 600 90 19 7f
        E 360 80 19 00
        E 280 90 24 7f
        E 160 80 24 00
        E 160 90 19 7f
        E 0 90 27 7f
        E 160 80 19 00
        E 0 80 27 00
        E 800 90 19 7f
        E 160 80 19 00
        E 480 90 26 7f
        E 160 80 26 00
        E 160 90 1a 7f
        E 0 90 24 7f
        E 160 80 1a 00
        E 0 80 24 00
        E 800 90 19 7f
        E 0 90 24 7f
        E 160 80 19 00
        E 0 80 24 00
        E 480 90 24 7f
        E 160 80 24 00
        E 160 90 19 7f
        E 0 90 26 7f
        E 160 80 19 00
        E 0 80 26 00
        E 800 90 19 7f
        E 0 90 26 7f
        E 160 80 19 00
        E 0 80 26 00
        E 800 90 1c 7f
        E 0 90 24 7f
        E 360 80 1c 00
        E 0 80 24 00
        E 600 90 19 7f
        E 360 80 19 00
        E 280 90 24 7f
        E 160 80 24 00
        E 160 90 19 7f
        E 0 90 27 7f
        E 160 80 19 00
        E 0 80 27 00
        E 800 90 19 7f
        E 160 80 19 00
        E 480 90 26 7f
        E 160 80 26 00
        E 160 90 1a 7f
        E 0 90 24 7f
        E 160 80 1a 00
        E 0 80 24 00
        E 800 90 19 7f
        E 0 90 24 7f
        E 160 80 19 00
        E 0 80 24 00
        E 480 90 24 7f
        E 160 80 24 00
        E 160 90 19 7f
        E 0 90 26 7f
        E 160 80 19 00
        E 0 80 26 00
        E 800 90 1e 7f
        E 0 90 24 7f
        E 160 80 1e 00
        E 0 80 24 00
        E 800 90 1c 7f
        E 0 90 24 7f
        E 360 80 1c 00
        E 0 80 24 00
        E 600 90 19 7f
        E 360 80 19 00
        E 280 90 24 7f
        E 160 80 24 00
        E 160 90 19 7f
        E 0 90 27 7f
        E 160 80 19 00
        E 0 80 27 00
        E 800 90 19 7f
        E 160 80 19 00
        E 480 90 26 7f
        E 160 80 26 00
        E 160 90 1a 7f
        E 0 90 24 7f
        E 160 80 1a 00
        E 0 80 24 00
        E 800 90 19 7f
        E 0 90 24 7f
        E 160 80 19 00
        E 0 80 24 00
        E 480 90 24 7f
        E 160 80 24 00
        E 160 90 26 7f
        E 160 80 26 00
        E 160 90 28 7f
        E 160 80 28 00
        E 160 90 26 7f
        E 160 80 26 00
        E 160 90 2d 7f
        E 160 80 2d 00
        E 160 90 2d 7f
        E 160 80 2d 00
        E 160 90 2b 7f
        E 160 80 2b 00
        E 160 90 1c 7f
        E 0 90 1f 7f
        E 0 90 24 7f
        E 360 80 1c 00
        E 0 80 24 00
        E 600 80 1f 00
        E 0 90 19 7f
        E 360 80 19 00
        E 280 90 24 7f
        E 160 80 24 00
        E 160 90 19 7f
        E 0 90 27 7f
        E 160 80 19 00
        E 0 80 27 00
        E 800 90 19 7f
        E 160 80 19 00
        E 480 90 26 7f
        E 160 80 26 00
        E 160 90 1a 7f
        E 0 90 24 7f
        E 160 80 1a 00
        E 0 80 24 00
        E 800 90 19 7f
        E 0 90 24 7f
        E 160 80 19 00
        E 0 80 24 00
        E 480 90 24 7f
        E 160 80 24 00
        E 160 90 19 7f
        E 0 90 26 7f
        E 160 80 19 00
        E 0 80 26 00
        E 800 90 19 7f
        E 160 80 19 00
        E 800 90 1c 7f
        E 0 90 24 7f
        E 360 80 1c 00
        E 0 80 24 00
        E 600 90 19 7f
        E 360 80 19 00
        E 280 90 24 7f
        E 160 80 24 00
        E 160 90 19 7f
        E 0 90 27 7f
        E 160 80 19 00
        E 0 80 27 00
        E 800 90 19 7f
        E 160 80 19 00
        E 480 90 26 7f
        E 160 80 26 00
        E 160 90 1a 7f
        E 0 90 24 7f
        E 160 80 1a 00
        E 0 80 24 00
        E 800 90 19 7f
        E 0 90 24 7f
        E 160 80 19 00
        E 0 80 24 00
        E 480 90 24 7f
        E 160 80 24 00
        E 160 90 19 7f
        E 0 90 26 7f
        E 160 80 19 00
        E 0 80 26 00
        E 800 90 1b 7f
        E 0 90 24 7f
        E 160 80 1b 00
        E 0 80 24 00
        E 800 90 1c 7f
        E 0 90 24 7f
        E 360 80 1c 00
        E 0 80 24 00
        E 600 90 19 7f
        E 360 80 19 00
        E 280 90 24 7f
        E 160 80 24 00
        E 160 90 19 7f
        E 0 90 27 7f
        E 160 80 19 00
        E 0 80 27 00
        E 800 90 19 7f
        E 160 80 19 00
        E 480 90 26 7f
        E 160 80 26 00
        E 160 90 1a 7f
        E 0 90 24 7f
        E 160 80 1a 00
        E 0 80 24 00
        E 800 90 19 7f
        E 0 90 24 7f
        E 160 80 19 00
        E 0 80 24 00
        E 480 90 24 7f
        E 160 80 24 00
        E 160 90 19 7f
        E 0 90 26 7f
        E 160 80 19 00
        E 0 80 26 00
        E 800 90 1a 7f
        E 160 80 1a 00
        E 800 90 1f 7f
        E 0 90 24 7f
        E 360 80 24 00
        E 600 90 19 7f
        E 160 80 1f 00
        E 200 80 19 00
        E 280 90 24 7f
        E 160 80 24 00
        E 160 90 19 7f
        E 0 90 27 7f
        E 160 80 19 00
        E 0 80 27 00
        E 800 90 19 7f
        E 160 80 19 00
        E 480 90 26 7f
        E 160 80 26 00
        E 160 90 1a 7f
        E 0 90 24 7f
        E 160 80 1a 00
        E 0 80 24 00
        E 800 90 19 7f
        E 0 90 24 7f
        E 160 80 19 00
        E 0 80 24 00
        E 320 90 24 7f
        E 160 80 24 00
        E 320 90 19 7f
        E 0 90 26 7f
        E 0 90 2b 7f
        E 160 80 19 00
        E 0 80 26 00
        E 0 80 2b 00
        E 320 90 24 7f
        E 160 80 24 00
        E 320 90 26 7f
        E 0 90 2b 7f
        E 160 80 26 00
        E 0 80 2b 00
        E 320 90 24 7f
        E 160 80 24 00
        E 320 90 1d 7f
        E 0 90 1e 7f
        E 0 90 24 7f
        E 160 80 1d 00
        E 0 80 1e 00
        E 0 80 24 00
        E 800 90 1a 7f
        E 160 80 1a 00
        E 320 90 24 7f
        E 160 80 24 00
        E 320 90 1a 7f
        E 0 90 26 7f
        E 160 80 1a 00
        E 0 80 26 00
        E 800 90 1a 7f
        E 160 80 1a 00
        E 800 90 1d 7f
        E 0 90 24 7f
        E 160 80 1d 00
        E 0 80 24 00
        E 800 90 1a 7f
        E 160 80 1a 00
        E 320 90 24 7f
        E 160 80 24 00
        E 320 90 1a 7f
        E 0 90 26 7f
        E 160 80 1a 00
        E 0 80 26 00
        E 800 90 1a 7f
        E 160 80 1a 00
        E 800 90 1d 7f
        E 0 90 26 7f
        E 160 80 1d 00
        E 0 80 26 00
        E 320 90 24 7f
        E 160 80 24 00
        E 320 90 1a 7f
        E 160 80 1a 00
        E 320 90 24 7f
        E 160 80 24 00
        E 320 90 1a 7f
        E 0 90 26 7f
        E 160 80 1a 00
        E 0 80 26 00
        E 320 90 24 7f
        E 160 80 24 00
        E 320 90 1a 7f
        E 160 80 1a 00
        E 320 90 24 7f
        E 160 80 24 00
        E 320 90 1d 7f
        E 0 90 26 7f
        E 160 80 1d 00
        E 0 80 26 00
        E 320 90 24 7f
        E 160 80 24 00
        E 320 90 1a 7f
        E 160 80 1a 00
        E 800 90 1a 7f
        E 0 90 26 7f
        E 160 80 1a 00
        E 0 80 26 00
        E 320 90 20 7f
        E 0 90 24 7f
        E 160 80 20 00
        E 0 80 24 00
        E 320 90 1a 7f
        E 160 80 1a 00
        E 800 90 1f 7f
        E 0 90 24 7f
        E 160 80 1f 00
        E 0 80 24 00
        E 800 90 35 59
        E 160 80 35 00
        E 320 90 24 7f
        E 0 90 35 59
        E 160 80 24 00
        E 0 80 35 00
        E 320 90 26 7f
        E 0 90 35 59
        E 160 80 26 00
        E 0 80 35 00
        E 320 90 35 59
        E 160 80 35 00
        E 320 90 35 59
        E 160 80 35 00
        E 320 90 24 7f
        E 0 90 35 59
        E 160 80 24 00
        E 0 80 35 00
        E 320 90 2d 7f
        E 0 90 35 59
        E 160 80 2d 00
        E 0 80 35 00
        E 320 90 35 59
        E 160 80 35 00
        E 320 90 35 59
        E 160 80 35 00
        E 320 90 24 7f
        E 0 90 35 59
        E 160 80 24 00
        E 0 80 35 00
        E 320 90 26 7f
        E 0 90 35 59
        E 160 80 26 00
        E 0 80 35 00
        E 320 90 1d 7f
        E 0 90 24 7f
        E 160 80 1d 00
        E 0 80 24 00
        E 800 90 35 7f
        E 160 80 35 00
        E 320 90 1f 7f
        E 0 90 24 7f
        E 160 80 1f 00
        E 0 80 24 00
        E 320 90 35 5d
        E 160 80 35 00
        E 320 90 35 5d
        E 160 80 35 00
        E 320 90 24 7f
        E 0 90 35 5d
        E 160 80 24 00
        E 0 80 35 00
        E 320 90 26 7f
        E 0 90 35 5d
        E 160 80 26 00
        E 0 80 35 00
        E 320 90 35 5d
        E 160 80 35 00
        E 320 90 35 5d
        E 160 80 35 00
        E 320 90 24 7f
        E 0 90 35 5d
        E 160 80 24 00
        E 0 80 35 00
        E 320 90 2b 7f
        E 0 90 35 5d
        E 160 80 2b 00
        E 0 80 35 00
        E 320 90 35 5d
        E 160 80 35 00
        E 320 90 35 5d
        E 160 80 35 00
        E 320 90 24 7f
        E 0 90 35 5d
        E 160 80 24 00
        E 0 80 35 00
        E 320 90 26 7f
        E 0 90 2b 7f
        E 160 80 26 00
        E 0 80 2b 00
        E 320 90 24 7f
        E 160 80 24 00
        E 320 90 26 7f
        E 0 90 2b 7f
        E 160 80 26 00
        E 0 80 2b 00
        E 320 90 24 7f
        E 160 80 24 00
        E 320 90 1f 7f
        E 0 90 24 7f
        E 160 80 1f 00
        E 0 80 24 00
        E 800 90 35 59
        E 160 80 35 00
        E 320 90 24 7f
        E 0 90 35 59
        E 160 80 24 00
        E 0 80 35 00
        E 320 90 26 7f
        E 0 90 35 59
        E 160 80 26 00
        E 0 80 35 00
        E 320 90 35 59
        E 160 80 35 00
        E 320 90 35 59
        E 160 80 35 00
        E 320 90 24 7f
        E 0 90 35 59
        E 160 80 24 00
        E 0 80 35 00
        E 320 90 2d 7f
        E 0 90 35 59
        E 160 80 2d 00
        E 0 80 35 00
        E 320 90 35 59
        E 160 80 35 00
        E 320 90 35 59
        E 160 80 35 00
        E 320 90 24 7f
        E 0 90 35 59
        E 160 80 24 00
        E 0 80 35 00
        E 320 90 26 7f
        E 0 90 35 59
        E 160 80 26 00
        E 0 80 35 00
        E 320 90 1d 7f
        E 0 90 24 7f
        E 160 80 1d 00
        E 0 80 24 00
        E 800 90 35 7f
        E 160 80 35 00
        E 320 90 1f 7f
        E 0 90 24 7f
        E 160 80 1f 00
        E 0 80 24 00
        E 320 90 35 5d
        E 160 80 35 00
        E 320 90 35 5d
        E 160 80 35 00
        E 320 90 24 7f
        E 0 90 35 5d
        E 160 80 24 00
        E 0 80 35 00
        E 320 90 26 7f
        E 0 90 35 5d
        E 160 80 26 00
        E 0 80 35 00
        E 320 90 35 5d
        E 160 80 35 00
        E 320 90 35 5d
        E 160 80 35 00
        E 320 90 24 7f
        E 0 90 35 5d
        E 160 80 24 00
        E 0 80 35 00
        E 320 90 2b 7f
        E 0 90 35 5d
        E 160 80 2b 00
        E 0 80 35 00
        E 320 90 35 5d
        E 160 80 35 00
        E 320 90 35 5d
        E 160 80 35 00
        E 320 90 24 7f
        E 0 90 35 5d
        E 160 80 24 00
        E 0 80 35 00
        E 320 90 26 7f
        E 0 90 2b 7f
        E 160 80 26 00
        E 0 80 2b 00
        E 320 90 24 7f
        E 160 80 24 00
        E 320 90 26 7f
        E 0 90 2b 7f
        E 160 80 26 00
        E 0 80 2b 00
        E 320 90 24 7f
        E 160 80 24 00
        E 320 90 1d 7f
        E 0 90 24 7f
        E 160 80 1d 00
        E 0 80 24 00
        E 800 90 1a 7f
        E 160 80 1a 00
        E 320 90 24 7f
        E 160 80 24 00
        E 320 90 1a 7f
        E 0 90 26 7f
        E 160 80 1a 00
        E 0 80 26 00
        E 800 90 1a 7f
        E 160 80 1a 00
        E 800 90 1d 7f
        E 0 90 24 7f
        E 160 80 1d 00
        E 0 80 24 00
        E 800 90 1a 7f
        E 160 80 1a 00
        E 320 90 24 7f
        E 160 80 24 00
        E 320 90 1a 7f
        E 0 90 26 7f
        E 160 80 1a 00
        E 0 80 26 00
        E 800 90 1a 7f
        E 160 80 1a 00
        E 800 90 1d 7f
        E 0 90 26 7f
        E 160 80 1d 00
        E 0 80 26 00
        E 320 90 24 7f
        E 160 80 24 00
        E 320 90 1a 7f
        E 160 80 1a 00
        E 320 90 24 7f
        E 160 80 24 00
        E 320 90 1a 7f
        E 0 90 26 7f
        E 160 80 1a 00
        E 0 80 26 00
        E 320 90 24 7f
        E 160 80 24 00
        E 320 90 1a 7f
        E 160 80 1a 00
        E 320 90 24 7f
        E 160 80 24 00
        E 320 90 1d 7f
        E 0 90 26 7f
        E 160 80 1d 00
        E 0 80 26 00
        E 320 90 24 7f
        E 160 80 24 00
        E 320 90 1a 7f
        E 160 80 1a 00
        E 800 90 1a 7f
        E 0 90 26 7f
        E 160 80 1a 00
        E 0 80 26 00
        E 320 90 20 7f
        E 0 90 24 7f
        E 160 80 20 00
        E 0 80 24 00
        E 320 90 1a 7f
        E 160 80 1a 00
        E 800 90 1f 7f
        E 0 90 24 7f
        E 160 80 1f 00
        E 0 80 24 00
        E 800 90 35 59
        E 160 80 35 00
        E 320 90 24 7f
        E 0 90 35 59
        E 160 80 24 00
        E 0 80 35 00
        E 320 90 26 7f
        E 0 90 35 59
        E 160 80 26 00
        E 0 80 35 00
        E 320 90 35 59
        E 160 80 35 00
        E 320 90 35 59
        E 160 80 35 00
        E 320 90 24 7f
        E 0 90 35 59
        E 160 80 24 00
        E 0 80 35 00
        E 320 90 2d 7f
        E 0 90 35 59
        E 160 80 2d 00
        E 0 80 35 00
        E 320 90 35 59
        E 160 80 35 00
        E 320 90 35 59
        E 160 80 35 00
        E 320 90 24 7f
        E 0 90 35 59
        E 160 80 24 00
        E 0 80 35 00
        E 320 90 26 7f
        E 0 90 35 59
        E 160 80 26 00
        E 0 80 35 00
        E 320 90 1d 7f
        E 0 90 24 7f
        E 160 80 1d 00
        E 0 80 24 00
        E 800 90 35 7f
        E 160 80 35 00
        E 320 90 1f 7f
        E 0 90 24 7f
        E 160 80 1f 00
        E 0 80 24 00
        E 320 90 35 5d
        E 160 80 35 00
        E 320 90 35 5d
        E 160 80 35 00
        E 320 90 24 7f
        E 0 90 35 5d
        E 160 80 24 00
        E 0 80 35 00
        E 320 90 26 7f
        E 0 90 35 5d
        E 160 80 26 00
        E 0 80 35 00
        E 320 90 35 5d
        E 160 80 35 00
        E 320 90 35 5d
        E 160 80 35 00
        E 320 90 24 7f
        E 0 90 35 5d
        E 160 80 24 00
        E 0 80 35 00
        E 320 90 2b 7f
        E 0 90 35 5d
        E 160 80 2b 00
        E 0 80 35 00
        E 320 90 35 5d
        E 160 80 35 00
        E 320 90 35 5d
        E 160 80 35 00
        E 320 90 24 7f
        E 0 90 35 5d
        E 160 80 24 00
        E 0 80 35 00
        E 320 90 26 7f
        E 0 90 2b 7f
        E 160 80 26 00
        E 0 80 2b 00
        E 320 90 24 7f
        E 160 80 24 00
        E 320 90 26 7f
        E 0 90 2b 7f
        E 160 80 26 00
        E 0 80 2b 00
        E 320 90 24 7f
        E 160 80 24 00
        E 320 90 1f 7f
        E 0 90 24 7f
        E 160 80 1f 00
        E 0 80 24 00
        E 800 90 35 59
        E 160 80 35 00
        E 320 90 24 7f
        E 0 90 35 59
        E 160 80 24 00
        E 0 80 35 00
        E 320 90 26 7f
        E 0 90 35 59
        E 160 80 26 00
        E 0 80 35 00
        E 320 90 35 59
        E 160 80 35 00
        E 320 90 35 59
        E 160 80 35 00
        E 320 90 24 7f
        E 0 90 35 59
        E 160 80 24 00
        E 0 80 35 00
        E 320 90 2d 7f
        E 0 90 35 59
        E 160 80 2d 00
        E 0 80 35 00
        E 320 90 35 59
        E 160 80 35 00
        E 320 90 35 59
        E 160 80 35 00
        E 320 90 24 7f
        E 0 90 35 59
        E 160 80 24 00
        E 0 80 35 00
        E 320 90 26 7f
        E 0 90 35 59
        E 160 80 26 00
        E 0 80 35 00
        E 320 90 1d 7f
        E 0 90 24 7f
        E 160 80 1d 00
        E 0 80 24 00
        E 800 90 35 7f
        E 160 80 35 00
        E 320 90 1f 7f
        E 0 90 24 7f
        E 160 80 1f 00
        E 0 80 24 00
        E 320 90 35 5d
        E 160 80 35 00
        E 320 90 35 5d
        E 160 80 35 00
        E 320 90 24 7f
        E 0 90 35 5d
        E 160 80 24 00
        E 0 80 35 00
        E 320 90 26 7f
        E 0 90 35 5d
        E 160 80 26 00
        E 0 80 35 00
        E 320 90 35 5d
        E 160 80 35 00
        E 320 90 35 5d
        E 160 80 35 00
        E 320 90 24 7f
        E 0 90 35 5d
        E 160 80 24 00
        E 0 80 35 00
        E 320 90 2b 7f
        E 0 90 35 5d
        E 160 80 2b 00
        E 0 80 35 00
        E 320 90 35 5d
        E 160 80 35 00
        E 320 90 35 5d
        E 160 80 35 00
        E 320 90 24 7f
        E 0 90 35 5d
        E 160 80 24 00
        E 0 80 35 00
        E 320 90 26 7f
        E 0 90 2b 7f
        E 160 80 26 00
        E 0 80 2b 00
        E 320 90 24 7f
        E 160 80 24 00
        E 320 90 26 7f
        E 0 90 2b 7f
        E 160 80 26 00
        E 0 80 2b 00
        E 320 90 24 7f
        E 160 80 24 00
        E 320 90 1d 7f
        E 0 90 24 7f
        E 160 80 1d 00
        E 0 80 24 00
        E 800 90 1a 7f
        E 160 80 1a 00
        E 320 90 24 7f
        E 160 80 24 00
        E 320 90 1a 7f
        E 0 90 26 7f
        E 160 80 1a 00
        E 0 80 26 00
        E 800 90 1a 7f
        E 160 80 1a 00
        E 800 90 1d 7f
        E 0 90 24 7f
        E 160 80 1d 00
        E 0 80 24 00
        E 800 90 1a 7f
        E 160 80 1a 00
        E 320 90 24 7f
        E 160 80 24 00
        E 320 90 1a 7f
        E 0 90 26 7f
        E 160 80 1a 00
        E 0 80 26 00
        E 800 90 1a 7f
        E 160 80 1a 00
        E 800 90 1d 7f
        E 0 90 26 7f
        E 160 80 1d 00
        E 0 80 26 00
        E 320 90 24 7f
        E 160 80 24 00
        E 320 90 1a 7f
        E 160 80 1a 00
        E 320 90 24 7f
        E 160 80 24 00
        E 320 90 26 7f
        E 160 80 26 00
        E 320 90 26 7f
        E 160 80 26 00
        E 320 90 2d 7f
        E 160 80 2d 00
        E 320 90 2d 7f
        E 160 80 2d 00
        E 320 90 1d 7f
        E 0 90 26 7f
        E 160 80 1d 00
        E 0 80 26 00
        E 320 90 24 7f
        E 160 80 24 00
        E 1280 90 1c 7f
        E 0 90 1e 7f
        E 0 90 24 7f
        E 160 80 1c 00
        E 0 80 1e 00
        E 0 80 24 00
        E 1760 90 1d 7f
        E 0 90 1f 7f
        E 0 90 24 7f
        E 160 80 1d 00
        E 0 80 1f 00
        E 0 80 24 00
        E 1760 90 35 7f
        E 160 80 35 00
        E 1760 90 35 7f
        E 160 80 35 00
        E 1760 90 26 7f
        E 160 80 26 00
        E 160 90 30 7f
        E 160 80 30 00
        E 160 90 2b 7f
        E 160 80 2b 00
        E 160 90 22 7f
        E 160 80 22 00
        E 320 90 1a 7f
        E 0 90 22 7f
        E 160 80 1a 00
        E 0 80 22 00
        E 320 90 2d 7f
        E 160 80 2d 00
        E 160 90 2b 7f
        E 160 80 2b 00
        E 160 90 22 7f
        E 160 80 22 00
        E 160 90 20 7f
        E 0 90 26 7f
        E 160 80 20 00
        E 0 80 26 00
        E 1760 90 26 7f
        E 160 80 26 00
        E 320 90 26 7f
        E 160 80 26 00
        E 320 90 1e 7f
        E 0 90 22 7f
        E 160 80 1e 00
        E 0 80 22 00
        E 800 90 1a 7f
        E 160 80 1a 00
        E 320 90 22 7f
        E 160 80 22 00
        E 320 90 1a 7f
        E 0 90 26 7f
        E 160 80 1a 00
        E 0 80 26 00
        E 800 90 1a 7f
        E 160 80 1a 00
        E 320 90 22 7f
        E 160 80 22 00
        E 320 90 1a 7f
        E 0 90 22 7f
        E 160 80 1a 00
        E 0 80 22 00
        E 800 90 1a 7f
        E 160 80 1a 00
        E 320 90 22 7f
        E 160 80 22 00
        E 320 90 1a 7f
        E 0 90 26 7f
        E 160 80 1a 00
        E 0 80 26 00
        E 320 90 26 7f
        E 160 80 26 00
        E 320 90 1d 7f
        E 0 90 22 7f
        E 160 80 1d 00
        E 0 80 22 00
        E 800 90 1c 7f
        E 0 90 22 7f
        E 160 80 1c 00
        E 0 80 22 00
        E 800 90 1a 7f
        E 160 80 1a 00
        E 320 90 22 7f
        E 160 80 22 00
        E 320 90 1a 7f
        E 0 90 26 7f
        E 160 80 1a 00
        E 0 80 26 00
        E 800 90 1a 7f
        E 160 80 1a 00
        E 320 90 22 7f
        E 160 80 22 00
        E 320 90 1a 7f
        E 0 90 22 7f
        E 160 80 1a 00
        E 0 80 22 00
        E 800 90 1a 7f
        E 160 80 1a 00
        E 320 90 22 7f
        E 160 80 22 00
        E 320 90 1a 7f
        E 0 90 26 7f
        E 160 80 1a 00
        E 0 80 26 00
        E 320 90 26 7f
        E 160 80 26 00
        E 320 90 26 7f
        E 160 80 26 00
        E 320 90 26 7f
        E 160 80 26 00
        E 320 90 22 7f
        E 0 90 31 7f
        E 160 80 22 00
        E 0 80 31 00
        E 800 90 33 7f
        E 0 90 35 7f
        E 160 80 33 00
        E 0 80 35 00
        E 320 90 27 7f
        E 160 80 27 00
        E 320 90 26 7f
        E 0 90 33 7f
        E 0 90 35 7f
        E 160 80 26 00
        E 0 80 33 00
        E 0 80 35 00
        E 800 90 33 7f
        E 0 90 35 7f
        E 160 80 33 00
        E 0 80 35 00
        E 320 90 27 7f
        E 160 80 27 00
        E 320 90 22 7f
        E 0 90 28 7f
        E 0 90 33 7f
        E 0 90 35 7f
        E 160 80 22 00
        E 0 80 28 00
        E 0 80 33 00
        E 0 80 35 00
        E 800 90 33 7f
        E 0 90 35 7f
        E 160 80 33 00
        E 0 80 35 00
        E 320 90 27 7f
        E 160 80 27 00
        E 320 90 22 7f
        E 0 90 33 7f
        E 0 90 35 7f
        E 160 80 22 00
        E 0 80 33 00
        E 0 80 35 00
        E 320 90 22 7f
        E 160 80 22 00
        E 320 90 22 7f
        E 0 90 33 7f
        E 0 90 35 7f
        E 160 80 22 00
        E 0 80 33 00
        E 0 80 35 00
        E 320 90 26 7f
        E 160 80 26 00
        E 320 90 22 7f
        E 0 90 31 7f
        E 160 80 22 00
        E 0 80 31 00
        E 800 90 33 7f
        E 0 90 35 7f
        E 160 80 33 00
        E 0 80 35 00
        E 320 90 27 7f
        E 160 80 27 00
        E 320 90 26 7f
        E 0 90 33 7f
        E 0 90 35 7f
        E 160 80 26 00
        E 0 80 33 00
        E 0 80 35 00
        E 800 90 33 7f
        E 0 90 35 7f
        E 160 80 33 00
        E 0 80 35 00
        E 320 90 27 7f
        E 160 80 27 00
        E 320 90 22 7f
        E 0 90 28 7f
        E 0 90 33 7f
        E 0 90 35 7f
        E 160 80 22 00
        E 0 80 28 00
        E 0 80 33 00
        E 0 80 35 00
        E 800 90 33 7f
        E 0 90 35 7f
        E 160 80 33 00
        E 0 80 35 00
        E 320 90 27 7f
        E 160 80 27 00
        E 320 90 22 7f
        E 0 90 33 7f
        E 0 90 35 7f
        E 160 80 22 00
        E 0 80 33 00
        E 0 80 35 00
        E 320 90 22 7f
        E 160 80 22 00
        E 320 90 22 7f
        E 0 90 33 7f
        E 0 90 35 7f
        E 160 80 22 00
        E 0 80 33 00
        E 0 80 35 00
        E 320 90 26 7f
        E 160 80 26 00
        E 320 90 1e 7f
        E 0 90 22 7f
        E 160 80 1e 00
        E 0 80 22 00
        E 800 90 1a 7f
        E 160 80 1a 00
        E 320 90 22 7f
        E 160 80 22 00
        E 320 90 1a 7f
        E 0 90 26 7f
        E 160 80 1a 00
        E 0 80 26 00
        E 800 90 1a 7f
        E 160 80 1a 00
        E 320 90 22 7f
        E 160 80 22 00
        E 320 90 1a 7f
        E 0 90 22 7f
        E 160 80 1a 00
        E 0 80 22 00
        E 800 90 1a 7f
        E 160 80 1a 00
        E 320 90 22 7f
        E 160 80 22 00
        E 320 90 1a 7f
        E 0 90 26 7f
        E 160 80 1a 00
        E 0 80 26 00
        E 320 90 26 7f
        E 160 80 26 00
        E 320 90 1d 7f
        E 0 90 22 7f
        E 160 80 1d 00
        E 0 80 22 00
        E 800 90 1e 7f
        E 0 90 22 7f
        E 160 80 1e 00
        E 0 80 22 00
        E 800 90 1a 7f
        E 160 80 1a 00
        E 320 90 22 7f
        E 160 80 22 00
        E 320 90 1a 7f
        E 0 90 26 7f
        E 160 80 1a 00
        E 0 80 26 00
        E 800 90 1a 7f
        E 160 80 1a 00
        E 320 90 22 7f
        E 160 80 22 00
        E 320 90 1a 7f
        E 0 90 22 7f
        E 160 80 1a 00
        E 0 80 22 00
        E 800 90 1a 7f
        E 160 80 1a 00
        E 320 90 22 7f
        E 160 80 22 00
        E 320 90 1a 7f
        E 0 90 26 7f
        E 160 80 1a 00
        E 0 80 26 00
        E 320 90 26 7f
        E 160 80 26 00
        E 320 90 26 7f
        E 160 80 26 00
        E 320 90 26 7f
        E 160 80 26 00
        E 320 90 22 7f
        E 0 90 31 7f
        E 160 80 22 00
        E 0 80 31 00
        E 800 90 33 7f
        E 0 90 35 7f
        E 160 80 33 00
        E 0 80 35 00
        E 320 90 27 7f
        E 160 80 27 00
        E 320 90 26 7f
        E 0 90 33 7f
        E 0 90 35 7f
        E 160 80 26 00
        E 0 80 33 00
        E 0 80 35 00
        E 800 90 33 7f
        E 0 90 35 7f
        E 160 80 33 00
        E 0 80 35 00
        E 320 90 27 7f
        E 160 80 27 00
        E 320 90 22 7f
        E 0 90 28 7f
        E 0 90 33 7f
        E 0 90 35 7f
        E 160 80 22 00
        E 0 80 28 00
        E 0 80 33 00
        E 0 80 35 00
        E 800 90 33 7f
        E 0 90 35 7f
        E 160 80 33 00
        E 0 80 35 00
        E 320 90 27 7f
        E 160 80 27 00
        E 320 90 22 7f
        E 0 90 33 7f
        E 0 90 35 7f
        E 160 80 22 00
        E 0 80 33 00
        E 0 80 35 00
        E 320 90 22 7f
        E 160 80 22 00
        E 320 90 22 7f
        E 0 90 33 7f
        E 0 90 35 7f
        E 160 80 22 00
        E 0 80 33 00
        E 0 80 35 00
        E 320 90 26 7f
        E 160 80 26 00
        E 320 90 22 7f
        E 0 90 31 7f
        E 160 80 22 00
        E 0 80 31 00
        E 800 90 33 7f
        E 0 90 35 7f
        E 160 80 33 00
        E 0 80 35 00
        E 320 90 27 7f
        E 160 80 27 00
        E 320 90 26 7f
        E 0 90 33 7f
        E 0 90 35 7f
        E 160 80 26 00
        E 0 80 33 00
        E 0 80 35 00
        E 800 90 33 7f
        E 0 90 35 7f
        E 160 80 33 00
        E 0 80 35 00
        E 320 90 27 7f
        E 160 80 27 00
        E 320 90 22 7f
        E 0 90 28 7f
        E 0 90 33 7f
        E 0 90 35 7f
        E 160 80 22 00
        E 0 80 28 00
        E 0 80 33 00
        E 0 80 35 00
        E 800 90 33 7f
        E 0 90 35 7f
        E 160 80 33 00
        E 0 80 35 00
        E 320 90 27 7f
        E 160 80 27 00
        E 320 90 22 7f
        E 0 90 33 7f
        E 0 90 35 7f
        E 160 80 22 00
        E 0 80 33 00
        E 0 80 35 00
        E 320 90 22 7f
        E 160 80 22 00
        E 320 90 22 7f
        E 0 90 33 7f
        E 0 90 35 7f
        E 160 80 22 00
        E 0 80 33 00
        E 0 80 35 00
        E 320 90 26 7f
        E 160 80 26 00
        E 320 90 1e 7f
        E 0 90 22 7f
        E 160 80 1e 00
        E 0 80 22 00
        E 800 90 1a 7f
        E 160 80 1a 00
        E 320 90 22 7f
        E 160 80 22 00
        E 320 90 1a 7f
        E 0 90 26 7f
        E 160 80 1a 00
        E 0 80 26 00
        E 800 90 1a 7f
        E 160 80 1a 00
        E 320 90 22 7f
        E 160 80 22 00
        E 320 90 1a 7f
        E 0 90 22 7f
        E 160 80 1a 00
        E 0 80 22 00
        E 800 90 1a 7f
        E 160 80 1a 00
        E 320 90 22 7f
        E 160 80 22 00
        E 320 90 1a 7f
        E 0 90 26 7f
        E 160 80 1a 00
        E 0 80 26 00
        E 320 90 26 7f
        E 160 80 26 00
        E 320 90 1d 7f
        E 0 90 22 7f
        E 160 80 1d 00
        E 0 80 22 00
        E 800 90 1e 7f
        E 0 90 22 7f
        E 160 80 1e 00
        E 0 80 22 00
        E 800 90 1a 7f
        E 160 80 1a 00
        E 320 90 22 7f
        E 160 80 22 00
        E 320 90 1a 7f
        E 0 90 26 7f
        E 160 80 1a 00
        E 0 80 26 00
        E 800 90 1a 7f
        E 160 80 1a 00
        E 320 90 22 7f
        E 160 80 22 00
        E 320 90 1a 7f
        E 0 90 22 7f
        E 160 80 1a 00
        E 0 80 22 00
        E 800 90 1a 7f
        E 160 80 1a 00
        E 320 90 22 7f
        E 160 80 22 00
        E 320 90 1a 7f
        E 0 90 26 7f
        E 160 80 1a 00
        E 0 80 26 00
        E 320 90 26 7f
        E 160 80 26 00
        E 320 90 26 7f
        E 160 80 26 00
        E 320 90 26 7f
        E 160 80 26 00
        E 320 90 22 7f
        E 0 90 31 7f
        E 160 80 22 00
        E 0 80 31 00
        E 800 90 33 7f
        E 0 90 35 7f
        E 160 80 33 00
        E 0 80 35 00
        E 320 90 27 7f
        E 160 80 27 00
        E 320 90 26 7f
        E 0 90 33 7f
        E 0 90 35 7f
        E 160 80 26 00
        E 0 80 33 00
        E 0 80 35 00
        E 800 90 33 7f
        E 0 90 35 7f
        E 160 80 33 00
        E 0 80 35 00
        E 320 90 27 7f
        E 160 80 27 00
        E 320 90 22 7f
        E 0 90 28 7f
        E 0 90 33 7f
        E 0 90 35 7f
        E 160 80 22 00
        E 0 80 28 00
        E 0 80 33 00
        E 0 80 35 00
        E 800 90 33 7f
        E 0 90 35 7f
        E 160 80 33 00
        E 0 80 35 00
        E 320 90 27 7f
        E 160 80 27 00
        E 320 90 22 7f
        E 0 90 33 7f
        E 0 90 35 7f
        E 160 80 22 00
        E 0 80 33 00
        E 0 80 35 00
        E 320 90 22 7f
        E 160 80 22 00
        E 320 90 22 7f
        E 0 90 33 7f
        E 0 90 35 7f
        E 160 80 22 00
        E 0 80 33 00
        E 0 80 35 00
        E 320 90 26 7f
        E 160 80 26 00
        E 320 90 22 7f
        E 0 90 31 7f
        E 160 80 22 00
        E 0 80 31 00
        E 800 90 33 7f
        E 0 90 35 7f
        E 160 80 33 00
        E 0 80 35 00
        E 320 90 27 7f
        E 160 80 27 00
        E 320 90 26 7f
        E 0 90 33 7f
        E 0 90 35 7f
        E 160 80 26 00
        E 0 80 33 00
        E 0 80 35 00
        E 800 90 33 7f
        E 0 90 35 7f
        E 160 80 33 00
        E 0 80 35 00
        E 320 90 27 7f
        E 160 80 27 00
        E 320 90 22 7f
        E 0 90 28 7f
        E 0 90 33 7f
        E 0 90 35 7f
        E 160 80 22 00
        E 0 80 28 00
        E 0 80 33 00
        E 0 80 35 00
        E 800 90 33 7f
        E 0 90 35 7f
        E 160 80 33 00
        E 0 80 35 00
        E 320 90 27 7f
        E 160 80 27 00
        E 320 90 22 7f
        E 0 90 33 7f
        E 0 90 35 7f
        E 160 80 22 00
        E 0 80 33 00
        E 0 80 35 00
        E 320 90 22 7f
        E 160 80 22 00
        E 320 90 22 7f
        E 0 90 33 7f
        E 0 90 35 7f
        E 160 80 22 00
        E 0 80 33 00
        E 0 80 35 00
        E 320 90 26 7f
        E 160 80 26 00
        E 320 90 1e 7f
        E 0 90 22 7f
        E 160 80 1e 00
        E 0 80 22 00
        E 800 90 1a 7f
        E 160 80 1a 00
        E 320 90 22 7f
        E 160 80 22 00
        E 320 90 1a 7f
        E 0 90 26 7f
        E 160 80 1a 00
        E 0 80 26 00
        E 800 90 1a 7f
        E 160 80 1a 00
        E 320 90 22 7f
        E 160 80 22 00
        E 320 90 1a 7f
        E 0 90 22 7f
        E 160 80 1a 00
        E 0 80 22 00
        E 800 90 1a 7f
        E 160 80 1a 00
        E 320 90 22 7f
        E 160 80 22 00
        E 320 90 1a 7f
        E 0 90 26 7f
        E 160 80 1a 00
        E 0 80 26 00
        E 320 90 26 7f
        E 160 80 26 00
        E 320 90 1d 7f
        E 0 90 22 7f
        E 160 80 1d 00
        E 0 80 22 00
        E 800 90 1e 7f
        E 0 90 22 7f
        E 160 80 1e 00
        E 0 80 22 00
        E 800 90 1a 7f
        E 160 80 1a 00
        E 320 90 22 7f
        E 160 80 22 00
        E 320 90 1a 7f
        E 0 90 26 7f
        E 160 80 1a 00
        E 0 80 26 00
        E 800 90 1a 7f
        E 160 80 1a 00
        E 320 90 22 7f
        E 160 80 22 00
        E 320 90 1a 7f
        E 0 90 22 7f
        E 160 80 1a 00
        E 0 80 22 00
        E 800 90 1a 7f
        E 160 80 1a 00
        E 320 90 22 7f
        E 160 80 22 00
        E 320 90 1a 7f
        E 0 90 26 7f
        E 160 80 1a 00
        E 0 80 26 00
        E 320 90 26 7f
        E 160 80 26 00
        E 320 90 26 7f
        E 160 80 26 00
        E 320 90 26 7f
        E 160 80 26 00
        E 320 90 1c 7f
        E 0 90 1e 7f
        E 0 90 22 7f
        E 160 80 1c 00
        E 0 80 1e 00
        E 0 80 22 00
        E 320 90 26 2c
        E 0 90 2d 3a
        E 160 80 26 00
        E 0 80 2d 00
        E 320 90 26 37
        E 0 90 2d 37
        E 160 80 26 00
        E 0 80 2d 00
        E 320 90 26 3a
        E 0 90 2d 3a
        E 160 80 26 00
        E 0 80 2d 00
        E 320 90 26 3d
        E 0 90 2d 3d
        E 160 80 26 00
        E 0 80 2d 00
        E 320 90 26 40
        E 0 90 2d 40
        E 160 80 26 00
        E 0 80 2d 00
        E 320 90 26 44
        E 0 90 2d 44
        E 160 80 26 00
        E 0 80 2d 00
        E 320 90 26 47
        E 0 90 2d 47
        E 160 80 26 00
        E 0 80 2d 00
        E 320 90 26 4a
        E 0 90 2d 4a
        E 160 80 26 00
        E 0 80 2d 00
        E 320 90 26 4d
        E 0 90 2d 4d
        E 160 80 26 00
        E 0 80 2d 00
        E 320 90 26 50
        E 0 90 2d 50
        E 160 80 26 00
        E 0 80 2d 00
        E 320 90 26 53
        E 0 90 2d 53
        E 160 80 26 00
        E 0 80 2d 00
        E 320 90 26 56
        E 0 90 2d 56
        E 160 80 26 00
        E 0 80 2d 00
        E 320 90 26 5a
        E 0 90 2d 5a
        E 160 80 26 00
        E 0 80 2d 00
        E 320 90 26 5d
        E 0 90 2d 5d
        E 160 80 26 00
        E 0 80 2d 00
        E 320 90 26 60
        E 0 90 2d 60
        E 160 80 26 00
        E 0 80 2d 00
        e 320 90 20 63
        e 0 90 26 63
        e 160 80 20 00
        e 0 80 26 00
        e 320 90 26 66
        e 0 90 2d 66
        e 160 80 26 00
        e 0 80 2d 00
        e 320 90 26 69
        e 0 90 2d 69
        e 160 80 26 00
        e 0 80 2d 00
        e 320 90 26 6c
        e 0 90 2d 6c
        e 160 80 26 00
        e 0 80 2d 00
        e 320 90 26 70
        e 0 90 2d 70
        e 160 80 26 00
        e 0 80 2d 00
        e 320 90 26 73
        e 0 90 2d 73
        e 160 80 26 00
        e 0 80 2d 00
        e 320 90 26 76
        e 0 90 2d 76
        e 160 80 26 00
        e 0 80 2d 00
        e 320 90 26 79
        e 0 90 2d 79
        e 160 80 26 00
        e 0 80 2d 00
        E 320 b0 7b 00
        GUID {F5E8E07C-4082-4AC4-9870-6B55642EC93A}
        IGNTEMPO 0 120.00000000 4 4
        VELLANE -1 104 0
        BANKPROGRAMFILE "C:\Users\Zak\AppData\Roaming\REAPER/Data/GM.reabank"
        CFGEDITVIEW 308655.404681 0.120195 70 12 0 0 0
        CFGEDIT 1 1 0 1 0 0 1 1 1 1 1 0.16666667 211 70 1465 786 0 0 0 0 0.16666667 0 0 0 0 0.750000
        EVTFILTER 0 -1 -1 -1 -1 0 1
      >
    >
    <ITEM
      POSITION 151.38461538462434
      SNAPOFFS 0.00000000000000
      LENGTH 1.84615384615384
      LOOP 1
      ALLTAKES 0
      SEL 0
      FADEIN 1 0.000000 0.000000
      FADEOUT 1 0.000000 0.000000
      MUTE 0
      IGUID {C56C3E1F-18B7-43E5-B1B7-B8C499716CDB}
      NAME "untitled MIDI item glued"
      VOLPAN 1.000000 0.000000 1.000000 -1.000000
      SOFFS 149.53846153846155 324.00000000000000
      PLAYRATE 1.00000000000000 1 0.00000000000000 -1
      CHANMODE 0
      GUID {362BBC0B-93E1-4E55-8677-B5D8ADA091BC}
      <SOURCE MIDI
        HASDATA 1 960 QN
        E 0 90 1a 7f
        E 360 80 1a 00
        E 600 90 1a 7f
        E 360 80 1a 00
        E 600 90 1a 7f
        E 360 80 1a 00
        E 600 90 1a 7f
        E 360 80 1a 00
        E 600 90 1a 7f
        E 360 80 1a 00
        E 600 90 1a 7f
        E 360 80 1a 00
        E 600 90 1a 7f
        E 360 80 1a 00
        E 600 90 1a 7f
        E 360 80 1a 00
        E 600 90 1d 60
        E 0 90 22 60
        E 160 80 1d 00
        E 0 80 22 00
        E 1760 90 20 60
        E 0 90 22 60
        E 160 80 20 00
        E 0 80 22 00
        E 1760 90 1d 60
        E 0 90 22 60
        E 160 80 1d 00
        E 0 80 22 00
        E 1760 90 1b 60
        E 0 90 20 60
        E 0 90 22 60
        E 160 80 1b 00
        E 0 80 20 00
        E 0 80 22 00
        E 1760 90 1c 7f
        E 0 90 24 7f
        E 360 80 1c 00
        E 0 80 24 00
        E 600 90 19 7f
        E 360 80 19 00
        E 280 90 24 7f
        E 160 80 24 00
        E 160 90 19 7f
        E 0 90 27 7f
        E 160 80 19 00
        E 0 80 27 00
        E 800 90 19 7f
        E 160 80 19 00
        E 480 90 26 7f
        E 160 80 26 00
        E 160 90 1a 7f
        E 0 90 24 7f
        E 160 80 1a 00
        E 0 80 24 00
        E 800 90 19 7f
        E 0 90 24 7f
        E 160 80 19 00
        E 0 80 24 00
        E 480 90 24 7f
        E 160 80 24 00
        E 160 90 19 7f
        E 0 90 26 7f
        E 160 80 19 00
        E 0 80 26 00
        E 800 90 19 7f
        E 160 80 19 00
        E 800 90 1c 7f
        E 0 90 24 7f
        E 360 80 1c 00
        E 0 80 24 00
        E 600 90 19 7f
        E 360 80 19 00
        E 280 90 24 7f
        E 160 80 24 00
        E 160 90 19 7f
        E 0 90 27 7f
        E 160 80 19 00
        E 0 80 27 00
        E 800 90 19 7f
        E 160 80 19 00
        E 480 90 26 7f
        E 160 80 26 00
        E 160 90 1a 7f
        E 0 90 24 7f
        E 160 80 1a 00
        E 0 80 24 00
        E 800 90 19 7f
        E 0 90 24 7f
        E 160 80 19 00
        E 0 80 24 00
        E 480 90 24 7f
        E 160 80 24 00
        E 160 90 19 7f
        E 0 90 26 7f
        E 160 80 19 00
        E 0 80 26 00
        E 800 90 19 7f
        E 0 90 26 7f
        E 160 80 19 00
        E 0 80 26 00
        E 800 90 1c 7f
        E 0 90 24 7f
        E 360 80 1c 00
        E 0 80 24 00
        E 600 90 19 7f
        E 360 80 19 00
        E 280 90 24 7f
        E 160 80 24 00
        E 160 90 19 7f
        E 0 90 27 7f
        E 160 80 19 00
        E 0 80 27 00
        E 800 90 19 7f
        E 160 80 19 00
        E 480 90 26 7f
        E 160 80 26 00
        E 160 90 1a 7f
        E 0 90 24 7f
        E 160 80 1a 00
        E 0 80 24 00
        E 800 90 19 7f
        E 0 90 24 7f
        E 160 80 19 00
        E 0 80 24 00
        E 480 90 24 7f
        E 160 80 24 00
        E 160 90 19 7f
        E 0 90 26 7f
        E 160 80 19 00
        E 0 80 26 00
        E 800 90 1e 7f
        E 0 90 24 7f
        E 160 80 1e 00
        E 0 80 24 00
        E 800 90 1c 7f
        E 0 90 24 7f
        E 360 80 1c 00
        E 0 80 24 00
        E 600 90 19 7f
        E 360 80 19 00
        E 280 90 24 7f
        E 160 80 24 00
        E 160 90 19 7f
        E 0 90 27 7f
        E 160 80 19 00
        E 0 80 27 00
        E 800 90 19 7f
        E 160 80 19 00
        E 480 90 26 7f
        E 160 80 26 00
        E 160 90 1a 7f
        E 0 90 24 7f
        E 160 80 1a 00
        E 0 80 24 00
        E 800 90 19 7f
        E 0 90 24 7f
        E 160 80 19 00
        E 0 80 24 00
        E 480 90 24 7f
        E 160 80 24 00
        E 160 90 26 7f
        E 160 80 26 00
        E 160 90 28 7f
        E 160 80 28 00
        E 160 90 26 7f
        E 160 80 26 00
        E 160 90 2d 7f
        E 160 80 2d 00
        E 160 90 2d 7f
        E 160 80 2d 00
        E 160 90 2b 7f
        E 160 80 2b 00
        E 160 90 1c 7f
        E 0 90 1f 7f
        E 0 90 24 7f
        E 360 80 1c 00
        E 0 80 24 00
        E 600 80 1f 00
        E 0 90 19 7f
        E 360 80 19 00
        E 280 90 24 7f
        E 160 80 24 00
        E 160 90 19 7f
        E 0 90 27 7f
        E 160 80 19 00
        E 0 80 27 00
        E 800 90 19 7f
        E 160 80 19 00
        E 480 90 26 7f
        E 160 80 26 00
        E 160 90 1a 7f
        E 0 90 24 7f
        E 160 80 1a 00
        E 0 80 24 00
        E 800 90 19 7f
        E 0 90 24 7f
        E 160 80 19 00
        E 0 80 24 00
        E 480 90 24 7f
        E 160 80 24 00
        E 160 90 19 7f
        E 0 90 26 7f
        E 160 80 19 00
        E 0 80 26 00
        E 800 90 19 7f
        E 160 80 19 00
        E 800 90 1c 7f
        E 0 90 24 7f
        E 360 80 1c 00
        E 0 80 24 00
        E 600 90 19 7f
        E 360 80 19 00
        E 280 90 24 7f
        E 160 80 24 00
        E 160 90 19 7f
        E 0 90 27 7f
        E 160 80 19 00
        E 0 80 27 00
        E 800 90 19 7f
        E 160 80 19 00
        E 480 90 26 7f
        E 160 80 26 00
        E 160 90 1a 7f
        E 0 90 24 7f
        E 160 80 1a 00
        E 0 80 24 00
        E 800 90 19 7f
        E 0 90 24 7f
        E 160 80 19 00
        E 0 80 24 00
        E 480 90 24 7f
        E 160 80 24 00
        E 160 90 19 7f
        E 0 90 26 7f
        E 160 80 19 00
        E 0 80 26 00
        E 800 90 1b 7f
        E 0 90 24 7f
        E 160 80 1b 00
        E 0 80 24 00
        E 800 90 1c 7f
        E 0 90 24 7f
        E 360 80 1c 00
        E 0 80 24 00
        E 600 90 19 7f
        E 360 80 19 00
        E 280 90 24 7f
        E 160 80 24 00
        E 160 90 19 7f
        E 0 90 27 7f
        E 160 80 19 00
        E 0 80 27 00
        E 800 90 19 7f
        E 160 80 19 00
        E 480 90 26 7f
        E 160 80 26 00
        E 160 90 1a 7f
        E 0 90 24 7f
        E 160 80 1a 00
        E 0 80 24 00
        E 800 90 19 7f
        E 0 90 24 7f
        E 160 80 19 00
        E 0 80 24 00
        E 480 90 24 7f
        E 160 80 24 00
        E 160 90 19 7f
        E 0 90 26 7f
        E 160 80 19 00
        E 0 80 26 00
        E 800 90 1a 7f
        E 160 80 1a 00
        E 800 90 1f 7f
        E 0 90 24 7f
        E 360 80 24 00
        E 600 90 19 7f
        E 160 80 1f 00
        E 200 80 19 00
        E 280 90 24 7f
        E 160 80 24 00
        E 160 90 19 7f
        E 0 90 27 7f
        E 160 80 19 00
        E 0 80 27 00
        E 800 90 19 7f
        E 160 80 19 00
        E 480 90 26 7f
        E 160 80 26 00
        E 160 90 1a 7f
        E 0 90 24 7f
        E 160 80 1a 00
        E 0 80 24 00
        E 800 90 19 7f
        E 0 90 24 7f
        E 160 80 19 00
        E 0 80 24 00
        E 320 90 24 7f
        E 160 80 24 00
        E 320 90 19 7f
        E 0 90 26 7f
        E 0 90 2b 7f
        E 160 80 19 00
        E 0 80 26 00
        E 0 80 2b 00
        E 320 90 24 7f
        E 160 80 24 00
        E 320 90 26 7f
        E 0 90 2b 7f
        E 160 80 26 00
        E 0 80 2b 00
        E 320 90 24 7f
        E 160 80 24 00
        E 320 90 1d 7f
        E 0 90 1e 7f
        E 0 90 24 7f
        E 160 80 1d 00
        E 0 80 1e 00
        E 0 80 24 00
        E 800 90 1a 7f
        E 160 80 1a 00
        E 320 90 24 7f
        E 160 80 24 00
        E 320 90 1a 7f
        E 0 90 26 7f
        E 160 80 1a 00
        E 0 80 26 00
        E 800 90 1a 7f
        E 160 80 1a 00
        E 800 90 1d 7f
        E 0 90 24 7f
        E 160 80 1d 00
        E 0 80 24 00
        E 800 90 1a 7f
        E 160 80 1a 00
        E 320 90 24 7f
        E 160 80 24 00
        E 320 90 1a 7f
        E 0 90 26 7f
        E 160 80 1a 00
        E 0 80 26 00
        E 800 90 1a 7f
        E 160 80 1a 00
        E 800 90 1d 7f
        E 0 90 26 7f
        E 160 80 1d 00
        E 0 80 26 00
        E 320 90 24 7f
        E 160 80 24 00
        E 320 90 1a 7f
        E 160 80 1a 00
        E 320 90 24 7f
        E 160 80 24 00
        E 320 90 1a 7f
        E 0 90 26 7f
        E 160 80 1a 00
        E 0 80 26 00
        E 320 90 24 7f
        E 160 80 24 00
        E 320 90 1a 7f
        E 160 80 1a 00
        E 320 90 24 7f
        E 160 80 24 00
        E 320 90 1d 7f
        E 0 90 26 7f
        E 160 80 1d 00
        E 0 80 26 00
        E 320 90 24 7f
        E 160 80 24 00
        E 320 90 1a 7f
        E 160 80 1a 00
        E 800 90 1a 7f
        E 0 90 26 7f
        E 160 80 1a 00
        E 0 80 26 00
        E 320 90 20 7f
        E 0 90 24 7f
        E 160 80 20 00
        E 0 80 24 00
        E 320 90 1a 7f
        E 160 80 1a 00
        E 800 90 1f 7f
        E 0 90 24 7f
        E 160 80 1f 00
        E 0 80 24 00
        E 800 90 35 59
        E 160 80 35 00
        E 320 90 24 7f
        E 0 90 35 59
        E 160 80 24 00
        E 0 80 35 00
        E 320 90 26 7f
        E 0 90 35 59
        E 160 80 26 00
        E 0 80 35 00
        E 320 90 35 59
        E 160 80 35 00
        E 320 90 35 59
        E 160 80 35 00
        E 320 90 24 7f
        E 0 90 35 59
        E 160 80 24 00
        E 0 80 35 00
        E 320 90 2d 7f
        E 0 90 35 59
        E 160 80 2d 00
        E 0 80 35 00
        E 320 90 35 59
        E 160 80 35 00
        E 320 90 35 59
        E 160 80 35 00
        E 320 90 24 7f
        E 0 90 35 59
        E 160 80 24 00
        E 0 80 35 00
        E 320 90 26 7f
        E 0 90 35 59
        E 160 80 26 00
        E 0 80 35 00
        E 320 90 1d 7f
        E 0 90 24 7f
        E 160 80 1d 00
        E 0 80 24 00
        E 800 90 35 7f
        E 160 80 35 00
        E 320 90 1f 7f
        E 0 90 24 7f
        E 160 80 1f 00
        E 0 80 24 00
        E 320 90 35 5d
        E 160 80 35 00
        E 320 90 35 5d
        E 160 80 35 00
        E 320 90 24 7f
        E 0 90 35 5d
        E 160 80 24 00
        E 0 80 35 00
        E 320 90 26 7f
        E 0 90 35 5d
        E 160 80 26 00
        E 0 80 35 00
        E 320 90 35 5d
        E 160 80 35 00
        E 320 90 35 5d
        E 160 80 35 00
        E 320 90 24 7f
        E 0 90 35 5d
        E 160 80 24 00
        E 0 80 35 00
        E 320 90 2b 7f
        E 0 90 35 5d
        E 160 80 2b 00
        E 0 80 35 00
        E 320 90 35 5d
        E 160 80 35 00
        E 320 90 35 5d
        E 160 80 35 00
        E 320 90 24 7f
        E 0 90 35 5d
        E 160 80 24 00
        E 0 80 35 00
        E 320 90 26 7f
        E 0 90 2b 7f
        E 160 80 26 00
        E 0 80 2b 00
        E 320 90 24 7f
        E 160 80 24 00
        E 320 90 26 7f
        E 0 90 2b 7f
        E 160 80 26 00
        E 0 80 2b 00
        E 320 90 24 7f
        E 160 80 24 00
        E 320 90 1f 7f
        E 0 90 24 7f
        E 160 80 1f 00
        E 0 80 24 00
        E 800 90 35 59
        E 160 80 35 00
        E 320 90 24 7f
        E 0 90 35 59
        E 160 80 24 00
        E 0 80 35 00
        E 320 90 26 7f
        E 0 90 35 59
        E 160 80 26 00
        E 0 80 35 00
        E 320 90 35 59
        E 160 80 35 00
        E 320 90 35 59
        E 160 80 35 00
        E 320 90 24 7f
        E 0 90 35 59
        E 160 80 24 00
        E 0 80 35 00
        E 320 90 2d 7f
        E 0 90 35 59
        E 160 80 2d 00
        E 0 80 35 00
        E 320 90 35 59
        E 160 80 35 00
        E 320 90 35 59
        E 160 80 35 00
        E 320 90 24 7f
        E 0 90 35 59
        E 160 80 24 00
        E 0 80 35 00
        E 320 90 26 7f
        E 0 90 35 59
        E 160 80 26 00
        E 0 80 35 00
        E 320 90 1d 7f
        E 0 90 24 7f
        E 160 80 1d 00
        E 0 80 24 00
        E 800 90 35 7f
        E 160 80 35 00
        E 320 90 1f 7f
        E 0 90 24 7f
        E 160 80 1f 00
        E 0 80 24 00
        E 320 90 35 5d
        E 160 80 35 00
        E 320 90 35 5d
        E 160 80 35 00
        E 320 90 24 7f
        E 0 90 35 5d
        E 160 80 24 00
        E 0 80 35 00
        E 320 90 26 7f
        E 0 90 35 5d
        E 160 80 26 00
        E 0 80 35 00
        E 320 90 35 5d
        E 160 80 35 00
        E 320 90 35 5d
        E 160 80 35 00
        E 320 90 24 7f
        E 0 90 35 5d
        E 160 80 24 00
        E 0 80 35 00
        E 320 90 2b 7f
        E 0 90 35 5d
        E 160 80 2b 00
        E 0 80 35 00
        E 320 90 35 5d
        E 160 80 35 00
        E 320 90 35 5d
        E 160 80 35 00
        E 320 90 24 7f
        E 0 90 35 5d
        E 160 80 24 00
        E 0 80 35 00
        E 320 90 26 7f
        E 0 90 2b 7f
        E 160 80 26 00
        E 0 80 2b 00
        E 320 90 24 7f
        E 160 80 24 00
        E 320 90 26 7f
        E 0 90 2b 7f
        E 160 80 26 00
        E 0 80 2b 00
        E 320 90 24 7f
        E 160 80 24 00
        E 320 90 1d 7f
        E 0 90 24 7f
        E 160 80 1d 00
        E 0 80 24 00
        E 800 90 1a 7f
        E 160 80 1a 00
        E 320 90 24 7f
        E 160 80 24 00
        E 320 90 1a 7f
        E 0 90 26 7f
        E 160 80 1a 00
        E 0 80 26 00
        E 800 90 1a 7f
        E 160 80 1a 00
        E 800 90 1d 7f
        E 0 90 24 7f
        E 160 80 1d 00
        E 0 80 24 00
        E 800 90 1a 7f
        E 160 80 1a 00
        E 320 90 24 7f
        E 160 80 24 00
        E 320 90 1a 7f
        E 0 90 26 7f
        E 160 80 1a 00
        E 0 80 26 00
        E 800 90 1a 7f
        E 160 80 1a 00
        E 800 90 1d 7f
        E 0 90 26 7f
        E 160 80 1d 00
        E 0 80 26 00
        E 320 90 24 7f
        E 160 80 24 00
        E 320 90 1a 7f
        E 160 80 1a 00
        E 320 90 24 7f
        E 160 80 24 00
        E 320 90 1a 7f
        E 0 90 26 7f
        E 160 80 1a 00
        E 0 80 26 00
        E 320 90 24 7f
        E 160 80 24 00
        E 320 90 1a 7f
        E 160 80 1a 00
        E 320 90 24 7f
        E 160 80 24 00
        E 320 90 1d 7f
        E 0 90 26 7f
        E 160 80 1d 00
        E 0 80 26 00
        E 320 90 24 7f
        E 160 80 24 00
        E 320 90 1a 7f
        E 160 80 1a 00
        E 800 90 1a 7f
        E 0 90 26 7f
        E 160 80 1a 00
        E 0 80 26 00
        E 320 90 20 7f
        E 0 90 24 7f
        E 160 80 20 00
        E 0 80 24 00
        E 320 90 1a 7f
        E 160 80 1a 00
        E 800 90 1f 7f
        E 0 90 24 7f
        E 160 80 1f 00
        E 0 80 24 00
        E 800 90 35 59
        E 160 80 35 00
        E 320 90 24 7f
        E 0 90 35 59
        E 160 80 24 00
        E 0 80 35 00
        E 320 90 26 7f
        E 0 90 35 59
        E 160 80 26 00
        E 0 80 35 00
        E 320 90 35 59
        E 160 80 35 00
        E 320 90 35 59
        E 160 80 35 00
        E 320 90 24 7f
        E 0 90 35 59
        E 160 80 24 00
        E 0 80 35 00
        E 320 90 2d 7f
        E 0 90 35 59
        E 160 80 2d 00
        E 0 80 35 00
        E 320 90 35 59
        E 160 80 35 00
        E 320 90 35 59
        E 160 80 35 00
        E 320 90 24 7f
        E 0 90 35 59
        E 160 80 24 00
        E 0 80 35 00
        E 320 90 26 7f
        E 0 90 35 59
        E 160 80 26 00
        E 0 80 35 00
        E 320 90 1d 7f
        E 0 90 24 7f
        E 160 80 1d 00
        E 0 80 24 00
        E 800 90 35 7f
        E 160 80 35 00
        E 320 90 1f 7f
        E 0 90 24 7f
        E 160 80 1f 00
        E 0 80 24 00
        E 320 90 35 5d
        E 160 80 35 00
        E 320 90 35 5d
        E 160 80 35 00
        E 320 90 24 7f
        E 0 90 35 5d
        E 160 80 24 00
        E 0 80 35 00
        E 320 90 26 7f
        E 0 90 35 5d
        E 160 80 26 00
        E 0 80 35 00
        E 320 90 35 5d
        E 160 80 35 00
        E 320 90 35 5d
        E 160 80 35 00
        E 320 90 24 7f
        E 0 90 35 5d
        E 160 80 24 00
        E 0 80 35 00
        E 320 90 2b 7f
        E 0 90 35 5d
        E 160 80 2b 00
        E 0 80 35 00
        E 320 90 35 5d
        E 160 80 35 00
        E 320 90 35 5d
        E 160 80 35 00
        E 320 90 24 7f
        E 0 90 35 5d
        E 160 80 24 00
        E 0 80 35 00
        E 320 90 26 7f
        E 0 90 2b 7f
        E 160 80 26 00
        E 0 80 2b 00
        E 320 90 24 7f
        E 160 80 24 00
        E 320 90 26 7f
        E 0 90 2b 7f
        E 160 80 26 00
        E 0 80 2b 00
        E 320 90 24 7f
        E 160 80 24 00
        E 320 90 1f 7f
        E 0 90 24 7f
        E 160 80 1f 00
        E 0 80 24 00
        E 800 90 35 59
        E 160 80 35 00
        E 320 90 24 7f
        E 0 90 35 59
        E 160 80 24 00
        E 0 80 35 00
        E 320 90 26 7f
        E 0 90 35 59
        E 160 80 26 00
        E 0 80 35 00
        E 320 90 35 59
        E 160 80 35 00
        E 320 90 35 59
        E 160 80 35 00
        E 320 90 24 7f
        E 0 90 35 59
        E 160 80 24 00
        E 0 80 35 00
        E 320 90 2d 7f
        E 0 90 35 59
        E 160 80 2d 00
        E 0 80 35 00
        E 320 90 35 59
        E 160 80 35 00
        E 320 90 35 59
        E 160 80 35 00
        E 320 90 24 7f
        E 0 90 35 59
        E 160 80 24 00
        E 0 80 35 00
        E 320 90 26 7f
        E 0 90 35 59
        E 160 80 26 00
        E 0 80 35 00
        E 320 90 1d 7f
        E 0 90 24 7f
        E 160 80 1d 00
        E 0 80 24 00
        E 800 90 35 7f
        E 160 80 35 00
        E 320 90 1f 7f
        E 0 90 24 7f
        E 160 80 1f 00
        E 0 80 24 00
        E 320 90 35 5d
        E 160 80 35 00
        E 320 90 35 5d
        E 160 80 35 00
        E 320 90 24 7f
        E 0 90 35 5d
        E 160 80 24 00
        E 0 80 35 00
        E 320 90 26 7f
        E 0 90 35 5d
        E 160 80 26 00
        E 0 80 35 00
        E 320 90 35 5d
        E 160 80 35 00
        E 320 90 35 5d
        E 160 80 35 00
        E 320 90 24 7f
        E 0 90 35 5d
        E 160 80 24 00
        E 0 80 35 00
        E 320 90 2b 7f
        E 0 90 35 5d
        E 160 80 2b 00
        E 0 80 35 00
        E 320 90 35 5d
        E 160 80 35 00
        E 320 90 35 5d
        E 160 80 35 00
        E 320 90 24 7f
        E 0 90 35 5d
        E 160 80 24 00
        E 0 80 35 00
        E 320 90 26 7f
        E 0 90 2b 7f
        E 160 80 26 00
        E 0 80 2b 00
        E 320 90 24 7f
        E 160 80 24 00
        E 320 90 26 7f
        E 0 90 2b 7f
        E 160 80 26 00
        E 0 80 2b 00
        E 320 90 24 7f
        E 160 80 24 00
        E 320 90 1d 7f
        E 0 90 24 7f
        E 160 80 1d 00
        E 0 80 24 00
        E 800 90 1a 7f
        E 160 80 1a 00
        E 320 90 24 7f
        E 160 80 24 00
        E 320 90 1a 7f
        E 0 90 26 7f
        E 160 80 1a 00
        E 0 80 26 00
        E 800 90 1a 7f
        E 160 80 1a 00
        E 800 90 1d 7f
        E 0 90 24 7f
        E 160 80 1d 00
        E 0 80 24 00
        E 800 90 1a 7f
        E 160 80 1a 00
        E 320 90 24 7f
        E 160 80 24 00
        E 320 90 1a 7f
        E 0 90 26 7f
        E 160 80 1a 00
        E 0 80 26 00
        E 800 90 1a 7f
        E 160 80 1a 00
        E 800 90 1d 7f
        E 0 90 26 7f
        E 160 80 1d 00
        E 0 80 26 00
        E 320 90 24 7f
        E 160 80 24 00
        E 320 90 1a 7f
        E 160 80 1a 00
        E 320 90 24 7f
        E 160 80 24 00
        E 320 90 26 7f
        E 160 80 26 00
        E 320 90 26 7f
        E 160 80 26 00
        E 320 90 2d 7f
        E 160 80 2d 00
        E 320 90 2d 7f
        E 160 80 2d 00
        E 320 90 1d 7f
        E 0 90 26 7f
        E 160 80 1d 00
        E 0 80 26 00
        E 320 90 24 7f
        E 160 80 24 00
        E 1280 90 1c 7f
        E 0 90 1e 7f
        E 0 90 24 7f
        E 160 80 1c 00
        E 0 80 1e 00
        E 0 80 24 00
        E 1760 90 1d 7f
        E 0 90 1f 7f
        E 0 90 24 7f
        E 160 80 1d 00
        E 0 80 1f 00
        E 0 80 24 00
        E 1760 90 35 7f
        E 160 80 35 00
        E 1760 90 35 7f
        E 160 80 35 00
        E 1760 90 26 7f
        E 160 80 26 00
        E 160 90 30 7f
        E 160 80 30 00
        E 160 90 2b 7f
        E 160 80 2b 00
        E 160 90 22 7f
        E 160 80 22 00
        E 320 90 1a 7f
        E 0 90 22 7f
        E 160 80 1a 00
        E 0 80 22 00
        E 320 90 2d 7f
        E 160 80 2d 00
        E 160 90 2b 7f
        E 160 80 2b 00
        E 160 90 22 7f
        E 160 80 22 00
        E 160 90 20 7f
        E 0 90 26 7f
        E 160 80 20 00
        E 0 80 26 00
        E 1760 90 26 7f
        E 160 80 26 00
        E 320 90 26 7f
        E 160 80 26 00
        E 320 90 1e 7f
        E 0 90 22 7f
        E 160 80 1e 00
        E 0 80 22 00
        E 800 90 1a 7f
        E 160 80 1a 00
        E 320 90 22 7f
        E 160 80 22 00
        E 320 90 1a 7f
        E 0 90 26 7f
        E 160 80 1a 00
        E 0 80 26 00
        E 800 90 1a 7f
        E 160 80 1a 00
        E 320 90 22 7f
        E 160 80 22 00
        E 320 90 1a 7f
        E 0 90 22 7f
        E 160 80 1a 00
        E 0 80 22 00
        E 800 90 1a 7f
        E 160 80 1a 00
        E 320 90 22 7f
        E 160 80 22 00
        E 320 90 1a 7f
        E 0 90 26 7f
        E 160 80 1a 00
        E 0 80 26 00
        E 320 90 26 7f
        E 160 80 26 00
        E 320 90 1d 7f
        E 0 90 22 7f
        E 160 80 1d 00
        E 0 80 22 00
        E 800 90 1c 7f
        E 0 90 22 7f
        E 160 80 1c 00
        E 0 80 22 00
        E 800 90 1a 7f
        E 160 80 1a 00
        E 320 90 22 7f
        E 160 80 22 00
        E 320 90 1a 7f
        E 0 90 26 7f
        E 160 80 1a 00
        E 0 80 26 00
        E 800 90 1a 7f
        E 160 80 1a 00
        E 320 90 22 7f
        E 160 80 22 00
        E 320 90 1a 7f
        E 0 90 22 7f
        E 160 80 1a 00
        E 0 80 22 00
        E 800 90 1a 7f
        E 160 80 1a 00
        E 320 90 22 7f
        E 160 80 22 00
        E 320 90 1a 7f
        E 0 90 26 7f
        E 160 80 1a 00
        E 0 80 26 00
        E 320 90 26 7f
        E 160 80 26 00
        E 320 90 26 7f
        E 160 80 26 00
        E 320 90 26 7f
        E 160 80 26 00
        E 320 90 22 7f
        E 0 90 31 7f
        E 160 80 22 00
        E 0 80 31 00
        E 800 90 33 7f
        E 0 90 35 7f
        E 160 80 33 00
        E 0 80 35 00
        E 320 90 27 7f
        E 160 80 27 00
        E 320 90 26 7f
        E 0 90 33 7f
        E 0 90 35 7f
        E 160 80 26 00
        E 0 80 33 00
        E 0 80 35 00
        E 800 90 33 7f
        E 0 90 35 7f
        E 160 80 33 00
        E 0 80 35 00
        E 320 90 27 7f
        E 160 80 27 00
        E 320 90 22 7f
        E 0 90 28 7f
        E 0 90 33 7f
        E 0 90 35 7f
        E 160 80 22 00
        E 0 80 28 00
        E 0 80 33 00
        E 0 80 35 00
        E 800 90 33 7f
        E 0 90 35 7f
        E 160 80 33 00
        E 0 80 35 00
        E 320 90 27 7f
        E 160 80 27 00
        E 320 90 22 7f
        E 0 90 33 7f
        E 0 90 35 7f
        E 160 80 22 00
        E 0 80 33 00
        E 0 80 35 00
        E 320 90 22 7f
        E 160 80 22 00
        E 320 90 22 7f
        E 0 90 33 7f
        E 0 90 35 7f
        E 160 80 22 00
        E 0 80 33 00
        E 0 80 35 00
        E 320 90 26 7f
        E 160 80 26 00
        E 320 90 22 7f
        E 0 90 31 7f
        E 160 80 22 00
        E 0 80 31 00
        E 800 90 33 7f
        E 0 90 35 7f
        E 160 80 33 00
        E 0 80 35 00
        E 320 90 27 7f
        E 160 80 27 00
        E 320 90 26 7f
        E 0 90 33 7f
        E 0 90 35 7f
        E 160 80 26 00
        E 0 80 33 00
        E 0 80 35 00
        E 800 90 33 7f
        E 0 90 35 7f
        E 160 80 33 00
        E 0 80 35 00
        E 320 90 27 7f
        E 160 80 27 00
        E 320 90 22 7f
        E 0 90 28 7f
        E 0 90 33 7f
        E 0 90 35 7f
        E 160 80 22 00
        E 0 80 28 00
        E 0 80 33 00
        E 0 80 35 00
        E 800 90 33 7f
        E 0 90 35 7f
        E 160 80 33 00
        E 0 80 35 00
        E 320 90 27 7f
        E 160 80 27 00
        E 320 90 22 7f
        E 0 90 33 7f
        E 0 90 35 7f
        E 160 80 22 00
        E 0 80 33 00
        E 0 80 35 00
        E 320 90 22 7f
        E 160 80 22 00
        E 320 90 22 7f
        E 0 90 33 7f
        E 0 90 35 7f
        E 160 80 22 00
        E 0 80 33 00
        E 0 80 35 00
        E 320 90 26 7f
        E 160 80 26 00
        E 320 90 1e 7f
        E 0 90 22 7f
        E 160 80 1e 00
        E 0 80 22 00
        E 800 90 1a 7f
        E 160 80 1a 00
        E 320 90 22 7f
        E 160 80 22 00
        E 320 90 1a 7f
        E 0 90 26 7f
        E 160 80 1a 00
        E 0 80 26 00
        E 800 90 1a 7f
        E 160 80 1a 00
        E 320 90 22 7f
        E 160 80 22 00
        E 320 90 1a 7f
        E 0 90 22 7f
        E 160 80 1a 00
        E 0 80 22 00
        E 800 90 1a 7f
        E 160 80 1a 00
        E 320 90 22 7f
        E 160 80 22 00
        E 320 90 1a 7f
        E 0 90 26 7f
        E 160 80 1a 00
        E 0 80 26 00
        E 320 90 26 7f
        E 160 80 26 00
        E 320 90 1d 7f
        E 0 90 22 7f
        E 160 80 1d 00
        E 0 80 22 00
        E 800 90 1e 7f
        E 0 90 22 7f
        E 160 80 1e 00
        E 0 80 22 00
        E 800 90 1a 7f
        E 160 80 1a 00
        E 320 90 22 7f
        E 160 80 22 00
        E 320 90 1a 7f
        E 0 90 26 7f
        E 160 80 1a 00
        E 0 80 26 00
        E 800 90 1a 7f
        E 160 80 1a 00
        E 320 90 22 7f
        E 160 80 22 00
        E 320 90 1a 7f
        E 0 90 22 7f
        E 160 80 1a 00
        E 0 80 22 00
        E 800 90 1a 7f
        E 160 80 1a 00
        E 320 90 22 7f
        E 160 80 22 00
        E 320 90 1a 7f
        E 0 90 26 7f
        E 160 80 1a 00
        E 0 80 26 00
        E 320 90 26 7f
        E 160 80 26 00
        E 320 90 26 7f
        E 160 80 26 00
        E 320 90 26 7f
        E 160 80 26 00
        E 320 90 22 7f
        E 0 90 31 7f
        E 160 80 22 00
        E 0 80 31 00
        E 800 90 33 7f
        E 0 90 35 7f
        E 160 80 33 00
        E 0 80 35 00
        E 320 90 27 7f
        E 160 80 27 00
        E 320 90 26 7f
        E 0 90 33 7f
        E 0 90 35 7f
        E 160 80 26 00
        E 0 80 33 00
        E 0 80 35 00
        E 800 90 33 7f
        E 0 90 35 7f
        E 160 80 33 00
        E 0 80 35 00
        E 320 90 27 7f
        E 160 80 27 00
        E 320 90 22 7f
        E 0 90 28 7f
        E 0 90 33 7f
        E 0 90 35 7f
        E 160 80 22 00
        E 0 80 28 00
        E 0 80 33 00
        E 0 80 35 00
        E 800 90 33 7f
        E 0 90 35 7f
        E 160 80 33 00
        E 0 80 35 00
        E 320 90 27 7f
        E 160 80 27 00
        E 320 90 22 7f
        E 0 90 33 7f
        E 0 90 35 7f
        E 160 80 22 00
        E 0 80 33 00
        E 0 80 35 00
        E 320 90 22 7f
        E 160 80 22 00
        E 320 90 22 7f
        E 0 90 33 7f
        E 0 90 35 7f
        E 160 80 22 00
        E 0 80 33 00
        E 0 80 35 00
        E 320 90 26 7f
        E 160 80 26 00
        E 320 90 22 7f
        E 0 90 31 7f
        E 160 80 22 00
        E 0 80 31 00
        E 800 90 33 7f
        E 0 90 35 7f
        E 160 80 33 00
        E 0 80 35 00
        E 320 90 27 7f
        E 160 80 27 00
        E 320 90 26 7f
        E 0 90 33 7f
        E 0 90 35 7f
        E 160 80 26 00
        E 0 80 33 00
        E 0 80 35 00
        E 800 90 33 7f
        E 0 90 35 7f
        E 160 80 33 00
        E 0 80 35 00
        E 320 90 27 7f
        E 160 80 27 00
        E 320 90 22 7f
        E 0 90 28 7f
        E 0 90 33 7f
        E 0 90 35 7f
        E 160 80 22 00
        E 0 80 28 00
        E 0 80 33 00
        E 0 80 35 00
        E 800 90 33 7f
        E 0 90 35 7f
        E 160 80 33 00
        E 0 80 35 00
        E 320 90 27 7f
        E 160 80 27 00
        E 320 90 22 7f
        E 0 90 33 7f
        E 0 90 35 7f
        E 160 80 22 00
        E 0 80 33 00
        E 0 80 35 00
        E 320 90 22 7f
        E 160 80 22 00
        E 320 90 22 7f
        E 0 90 33 7f
        E 0 90 35 7f
        E 160 80 22 00
        E 0 80 33 00
        E 0 80 35 00
        E 320 90 26 7f
        E 160 80 26 00
        E 320 90 1e 7f
        E 0 90 22 7f
        E 160 80 1e 00
        E 0 80 22 00
        E 800 90 1a 7f
        E 160 80 1a 00
        E 320 90 22 7f
        E 160 80 22 00
        E 320 90 1a 7f
        E 0 90 26 7f
        E 160 80 1a 00
        E 0 80 26 00
        E 800 90 1a 7f
        E 160 80 1a 00
        E 320 90 22 7f
        E 160 80 22 00
        E 320 90 1a 7f
        E 0 90 22 7f
        E 160 80 1a 00
        E 0 80 22 00
        E 800 90 1a 7f
        E 160 80 1a 00
        E 320 90 22 7f
        E 160 80 22 00
        E 320 90 1a 7f
        E 0 90 26 7f
        E 160 80 1a 00
        E 0 80 26 00
        E 320 90 26 7f
        E 160 80 26 00
        E 320 90 1d 7f
        E 0 90 22 7f
        E 160 80 1d 00
        E 0 80 22 00
        E 800 90 1e 7f
        E 0 90 22 7f
        E 160 80 1e 00
        E 0 80 22 00
        E 800 90 1a 7f
        E 160 80 1a 00
        E 320 90 22 7f
        E 160 80 22 00
        E 320 90 1a 7f
        E 0 90 26 7f
        E 160 80 1a 00
        E 0 80 26 00
        E 800 90 1a 7f
        E 160 80 1a 00
        E 320 90 22 7f
        E 160 80 22 00
        E 320 90 1a 7f
        E 0 90 22 7f
        E 160 80 1a 00
        E 0 80 22 00
        E 800 90 1a 7f
        E 160 80 1a 00
        E 320 90 22 7f
        E 160 80 22 00
        E 320 90 1a 7f
        E 0 90 26 7f
        E 160 80 1a 00
        E 0 80 26 00
        E 320 90 26 7f
        E 160 80 26 00
        E 320 90 26 7f
        E 160 80 26 00
        E 320 90 26 7f
        E 160 80 26 00
        E 320 90 22 7f
        E 0 90 31 7f
        E 160 80 22 00
        E 0 80 31 00
        E 800 90 33 7f
        E 0 90 35 7f
        E 160 80 33 00
        E 0 80 35 00
        E 320 90 27 7f
        E 160 80 27 00
        E 320 90 26 7f
        E 0 90 33 7f
        E 0 90 35 7f
        E 160 80 26 00
        E 0 80 33 00
        E 0 80 35 00
        E 800 90 33 7f
        E 0 90 35 7f
        E 160 80 33 00
        E 0 80 35 00
        E 320 90 27 7f
        E 160 80 27 00
        E 320 90 22 7f
        E 0 90 28 7f
        E 0 90 33 7f
        E 0 90 35 7f
        E 160 80 22 00
        E 0 80 28 00
        E 0 80 33 00
        E 0 80 35 00
        E 800 90 33 7f
        E 0 90 35 7f
        E 160 80 33 00
        E 0 80 35 00
        E 320 90 27 7f
        E 160 80 27 00
        E 320 90 22 7f
        E 0 90 33 7f
        E 0 90 35 7f
        E 160 80 22 00
        E 0 80 33 00
        E 0 80 35 00
        E 320 90 22 7f
        E 160 80 22 00
        E 320 90 22 7f
        E 0 90 33 7f
        E 0 90 35 7f
        E 160 80 22 00
        E 0 80 33 00
        E 0 80 35 00
        E 320 90 26 7f
        E 160 80 26 00
        E 320 90 22 7f
        E 0 90 31 7f
        E 160 80 22 00
        E 0 80 31 00
        E 800 90 33 7f
        E 0 90 35 7f
        E 160 80 33 00
        E 0 80 35 00
        E 320 90 27 7f
        E 160 80 27 00
        E 320 90 26 7f
        E 0 90 33 7f
        E 0 90 35 7f
        E 160 80 26 00
        E 0 80 33 00
        E 0 80 35 00
        E 800 90 33 7f
        E 0 90 35 7f
        E 160 80 33 00
        E 0 80 35 00
        E 320 90 27 7f
        E 160 80 27 00
        E 320 90 22 7f
        E 0 90 28 7f
        E 0 90 33 7f
        E 0 90 35 7f
        E 160 80 22 00
        E 0 80 28 00
        E 0 80 33 00
        E 0 80 35 00
        E 800 90 33 7f
        E 0 90 35 7f
        E 160 80 33 00
        E 0 80 35 00
        E 320 90 27 7f
        E 160 80 27 00
        E 320 90 22 7f
        E 0 90 33 7f
        E 0 90 35 7f
        E 160 80 22 00
        E 0 80 33 00
        E 0 80 35 00
        E 320 90 22 7f
        E 160 80 22 00
        E 320 90 22 7f
        E 0 90 33 7f
        E 0 90 35 7f
        E 160 80 22 00
        E 0 80 33 00
        E 0 80 35 00
        E 320 90 26 7f
        E 160 80 26 00
        E 320 90 1e 7f
        E 0 90 22 7f
        E 160 80 1e 00
        E 0 80 22 00
        E 800 90 1a 7f
        E 160 80 1a 00
        E 320 90 22 7f
        E 160 80 22 00
        E 320 90 1a 7f
        E 0 90 26 7f
        E 160 80 1a 00
        E 0 80 26 00
        E 800 90 1a 7f
        E 160 80 1a 00
        E 320 90 22 7f
        E 160 80 22 00
        E 320 90 1a 7f
        E 0 90 22 7f
        E 160 80 1a 00
        E 0 80 22 00
        E 800 90 1a 7f
        E 160 80 1a 00
        E 320 90 22 7f
        E 160 80 22 00
        E 320 90 1a 7f
        E 0 90 26 7f
        E 160 80 1a 00
        E 0 80 26 00
        E 320 90 26 7f
        E 160 80 26 00
        E 320 90 1d 7f
        E 0 90 22 7f
        E 160 80 1d 00
        E 0 80 22 00
        E 800 90 1e 7f
        E 0 90 22 7f
        E 160 80 1e 00
        E 0 80 22 00
        E 800 90 1a 7f
        E 160 80 1a 00
        E 320 90 22 7f
        E 160 80 22 00
        E 320 90 1a 7f
        E 0 90 26 7f
        E 160 80 1a 00
        E 0 80 26 00
        E 800 90 1a 7f
        E 160 80 1a 00
        E 320 90 22 7f
        E 160 80 22 00
        E 320 90 1a 7f
        E 0 90 22 7f
        E 160 80 1a 00
        E 0 80 22 00
        E 800 90 1a 7f
        E 160 80 1a 00
        E 320 90 22 7f
        E 160 80 22 00
        E 320 90 1a 7f
        E 0 90 26 7f
        E 160 80 1a 00
        E 0 80 26 00
        E 320 90 26 7f
        E 160 80 26 00
        E 320 90 26 7f
        E 160 80 26 00
        E 320 90 26 7f
        E 160 80 26 00
        E 320 90 1c 7f
        E 0 90 1e 7f
        E 0 90 22 7f
        E 160 80 1c 00
        E 0 80 1e 00
        E 0 80 22 00
        E 320 90 26 2c
        E 0 90 2d 3a
        E 160 80 26 00
        E 0 80 2d 00
        E 320 90 26 37
        E 0 90 2d 37
        E 160 80 26 00
        E 0 80 2d 00
        E 320 90 26 3a
        E 0 90 2d 3a
        E 160 80 26 00
        E 0 80 2d 00
        E 320 90 26 3d
        E 0 90 2d 3d
        E 160 80 26 00
        E 0 80 2d 00
        E 320 90 26 40
        E 0 90 2d 40
        E 160 80 26 00
        E 0 80 2d 00
        E 320 90 26 44
        E 0 90 2d 44
        E 160 80 26 00
        E 0 80 2d 00
        E 320 90 26 47
        E 0 90 2d 47
        E 160 80 26 00
        E 0 80 2d 00
        E 320 90 26 4a
        E 0 90 2d 4a
        E 160 80 26 00
        E 0 80 2d 00
        E 320 90 26 4d
        E 0 90 2d 4d
        E 160 80 26 00
        E 0 80 2d 00
        E 320 90 26 50
        E 0 90 2d 50
        E 160 80 26 00
        E 0 80 2d 00
        E 320 90 26 53
        E 0 90 2d 53
        E 160 80 26 00
        E 0 80 2d 00
        E 320 90 26 56
        E 0 90 2d 56
        E 160 80 26 00
        E 0 80 2d 00
        E 320 90 26 5a
        E 0 90 2d 5a
        E 160 80 26 00
        E 0 80 2d 00
        E 320 90 26 5d
        E 0 90 2d 5d
        E 160 80 26 00
        E 0 80 2d 00
        E 320 90 26 60
        E 0 90 2d 60
        E 160 80 26 00
        E 0 80 2d 00
        e 319 90 1c 7f
        e 0 90 1e 7f
        e 0 90 22 7f
        e 160 80 1c 00
        e 0 80 1e 00
        e 0 80 22 00
        e 1280 90 27 7f
        e 160 80 27 00
        e 320 90 22 7f
        e 160 80 22 00
        e 320 90 27 7f
        e 160 80 27 00
        e 320 90 20 7f
        e 0 90 22 7f
        e 160 80 20 00
        e 0 80 22 00
        E 801 b0 7b 00
        GUID {F5E8E07C-4082-4AC4-9870-6B55642EC93A}
        IGNTEMPO 0 120.00000000 4 4
        VELLANE -1 104 0
        BANKPROGRAMFILE "C:\Users\Zak\AppData\Roaming\REAPER/Data/GM.reabank"
        CFGEDITVIEW 308655.404681 0.120195 70 12 0 0 0
        CFGEDIT 1 1 0 1 0 0 1 1 1 1 1 0.16666667 211 70 1465 786 0 0 0 0 0.16666667 0 0 0 0 0.750000
        EVTFILTER 0 -1 -1 -1 -1 0 1
      >
    >
    <ITEM
      POSITION 153.23076923076923
      SNAPOFFS 0.00000000000000
      LENGTH 1.65517241379311
      LOOP 1
      ALLTAKES 0
      SEL 0
      FADEIN 1 0.000000 0.000000
      FADEOUT 1 0.000000 0.000000
      MUTE 0
      IGUID {C714E0D3-DBED-4438-AD14-9F2A79C5884F}
      NAME "untitled MIDI item glued"
      VOLPAN 1.000000 0.000000 1.000000 -1.000000
      SOFFS 0.00000000000000 0.00000000000000
      PLAYRATE 1.00000000000000 1 0.00000000000000 -1
      CHANMODE 0
      GUID {1798CF0E-3AC9-414B-B320-5E45853647A5}
      <SOURCE MIDI
        HASDATA 1 960 QN
        e 0 90 1c 7f
        e 0 90 1e 7f
        e 0 90 22 7f
        e 160 80 1c 00
        e 0 80 1e 00
        e 0 80 22 00
        e 1280 90 27 7f
        e 160 80 27 00
        e 320 90 22 7f
        e 160 80 22 00
        e 320 90 27 7f
        e 160 80 27 00
        e 320 90 20 7f
        e 0 90 22 7f
        e 160 80 20 00
        e 0 80 22 00
        E 800 b0 7b 00
        GUID {94BC9A36-E374-474D-9D02-10C23459F54F}
        IGNTEMPO 0 120.00000000 4 4
        VELLANE -1 104 0
        BANKPROGRAMFILE "C:\Users\Zak\AppData\Roaming\REAPER/Data/GM.reabank"
        CFGEDITVIEW -388.544649 0.103931 74 12 0 0 0
        CFGEDIT 1 1 0 1 0 0 1 1 1 1 1 0.16666667 211 70 1465 786 0 0 0 0 0.16666667 0 0 0 0 0.750000
        EVTFILTER 0 -1 -1 -1 -1 0 1
      >
    >
    <ITEM
      POSITION 154.88594164456234
      SNAPOFFS 0.00000000000000
      LENGTH 3.31034482758619
      LOOP 1
      ALLTAKES 0
      SEL 0
      FADEIN 1 0.000000 0.000000
      FADEOUT 1 0.000000 0.000000
      MUTE 0
      IGUID {2B8A7E9F-A3C5-4303-96DF-71B12EF8AC84}
      NAME "untitled MIDI item"
      VOLPAN 1.000000 0.000000 1.000000 -1.000000
      SOFFS 0.00000000000000 0.00000000000000
      PLAYRATE 1.00000000000000 1 0.00000000000000 -1
      CHANMODE 0
      GUID {6E86F318-05EF-4B8B-A574-8D67C7EF922D}
      <SOURCE MIDI
        HASDATA 1 960 QN
        E 0 90 1c 7f
        E 0 90 1e 7f
        E 0 90 22 7f
        E 160 80 1c 00
        E 0 80 1e 00
        E 0 80 22 00
        E 1280 90 27 7f
        E 160 80 27 00
        E 320 90 22 7f
        E 160 80 22 00
        E 320 90 27 7f
        E 160 80 27 00
        E 320 90 20 7f
        E 0 90 22 7f
        E 160 80 20 00
        E 0 80 22 00
        E 800 90 1c 7f
        E 0 90 1e 7f
        E 0 90 22 7f
        E 160 80 1c 00
        E 0 80 1e 00
        E 0 80 22 00
        E 1280 90 27 7f
        E 160 80 27 00
        E 320 90 22 7f
        E 160 80 22 00
        E 320 90 27 7f
        E 160 80 27 00
        E 320 90 27 77
        E 160 80 27 00
        E 320 90 27 76
        E 160 80 27 00
        E 320 b0 7b 00
        GUID {E1E0A729-1EEB-4E6D-9CB0-F2532ED0C33C}
        IGNTEMPO 0 120.00000000 4 4
        VELLANE -1 104 0
        CFGEDITVIEW 8696.473888 0.118880 80 12 0 0 0
        CFGEDIT 1 1 0 1 0 0 1 1 1 1 1 0.16666667 211 70 1465 786 0 0 0 0 0.16666667 0 0 0 0 0.750000
        EVTFILTER 0 -1 -1 -1 -1 0 1
      >
    >
    <ITEM
      POSITION 158.19628647214853
      SNAPOFFS 0.00000000000000
      LENGTH 28.20488065798591
      LOOP 1
      ALLTAKES 0
      SEL 0
      FADEIN 1 0.000000 0.000000
      FADEOUT 1 0.000000 0.000000
      MUTE 0
      IGUID {B892F0CC-5E92-40BF-B4A2-2B0C1152F827}
      NAME "untitled MIDI item glued"
      VOLPAN 1.000000 0.000000 1.000000 -1.000000
      SOFFS 1.65517241379311 4.00000000000006
      PLAYRATE 1.00000000000000 1 0.00000000000000 -1
      CHANMODE 0
      GUID {E2B56DF0-0102-4A37-B12C-94760EA33F46}
      <SOURCE MIDI
        HASDATA 1 960 QN
        E 0 90 1c 7f
        E 0 90 1e 7f
        E 0 90 22 7f
        E 160 80 1c 00
        E 0 80 1e 00
        E 0 80 22 00
        E 1280 90 27 7f
        E 160 80 27 00
        E 320 90 22 7f
        E 160 80 22 00
        E 320 90 27 7f
        E 160 80 27 00
        E 320 90 20 7f
        E 0 90 22 7f
        E 160 80 20 00
        E 0 80 22 00
        E 800 90 18 7f
        E 0 90 1e 6b
        E 0 90 22 7f
        E 6 90 1c 72
        E 135 80 1e 00
        E 19 80 18 00
        E 0 80 22 00
        E 6 80 1c 00
        E 314 90 35 63
        E 160 80 35 00
        E 320 90 35 62
        E 160 80 35 00
        E 320 90 35 61
        E 160 80 35 00
        E 320 90 26 7f
        E 0 90 35 5f
        E 160 80 26 00
        E 0 80 35 00
        E 320 90 22 7f
        E 0 90 35 5e
        E 160 80 22 00
        E 0 80 35 00
        E 320 90 35 5c
        E 160 80 35 00
        E 320 90 1d 6f
        E 0 90 22 62
        E 160 80 1d 00
        E 0 80 22 00
        E 320 90 35 52
        E 160 80 35 00
        E 320 90 35 57
        E 160 80 35 00
        E 320 90 35 5c
        E 160 80 35 00
        E 320 90 22 7f
        E 0 90 35 61
        E 160 80 22 00
        E 0 80 35 00
        E 320 90 26 7f
        E 0 90 35 5f
        E 160 80 26 00
        E 0 80 35 00
        E 320 90 35 5f
        E 160 80 35 00
        E 320 90 35 5e
        E 160 80 35 00
        E 320 90 26 7f
        E 0 90 35 5d
        E 160 80 26 00
        E 0 80 35 00
        E 320 90 18 7f
        E 0 90 1c 62
        E 0 90 1e 7b
        E 0 90 22 7f
        E 160 80 18 00
        E 0 80 1c 00
        E 0 80 1e 00
        E 0 80 22 00
        E 320 90 35 5f
        E 160 80 35 00
        E 320 90 35 61
        E 160 80 35 00
        E 320 90 22 7f
        E 0 90 35 57
        E 160 80 22 00
        E 0 80 35 00
        E 320 90 26 7f
        E 0 90 35 61
        E 160 80 26 00
        E 0 80 35 00
        E 320 90 35 5c
        E 160 80 35 00
        E 320 90 35 63
        E 160 80 35 00
        E 320 90 22 72
        E 0 90 35 61
        E 160 80 22 00
        E 0 80 35 00
        E 320 90 1d 7f
        E 25 90 22 6f
        E 135 80 1d 00
        E 25 80 22 00
        E 295 90 35 5a
        E 160 80 35 00
        E 320 90 35 52
        E 160 80 35 00
        E 320 90 22 7f
        E 0 90 35 69
        E 160 80 22 00
        E 0 80 35 00
        E 320 90 26 7f
        E 0 90 35 55
        E 160 80 26 00
        E 0 80 35 00
        E 320 90 22 72
        E 0 90 35 52
        E 160 80 22 00
        E 0 80 35 00
        E 320 90 26 7f
        E 160 80 26 00
        E 320 90 26 7f
        E 160 80 26 00
        E 320 90 1e 6b
        E 19 90 18 7f
        E 0 90 22 7f
        E 6 90 1c 72
        E 135 80 1e 00
        E 19 80 18 00
        E 0 80 22 00
        E 6 80 1c 00
        E 314 90 35 63
        E 160 80 35 00
        E 320 90 35 62
        E 160 80 35 00
        E 320 90 35 61
        E 160 80 35 00
        E 320 90 26 7f
        E 0 90 35 5f
        E 160 80 26 00
        E 0 80 35 00
        E 320 90 22 7f
        E 0 90 35 5e
        E 160 80 22 00
        E 0 80 35 00
        E 320 90 35 5c
        E 160 80 35 00
        E 320 90 1d 6f
        E 0 90 22 62
        E 160 80 1d 00
        E 0 80 22 00
        E 320 90 35 52
        E 160 80 35 00
        E 320 90 35 57
        E 160 80 35 00
        E 320 90 35 5c
        E 160 80 35 00
        E 320 90 22 7f
        E 0 90 35 61
        E 160 80 22 00
        E 0 80 35 00
        E 320 90 26 7f
        E 0 90 35 5f
        E 160 80 26 00
        E 0 80 35 00
        E 320 90 35 5f
        E 160 80 35 00
        E 320 90 35 5e
        E 160 80 35 00
        E 320 90 26 7f
        E 0 90 35 5d
        E 160 80 26 00
        E 0 80 35 00
        E 320 90 18 7f
        E 0 90 1c 62
        E 0 90 1e 7b
        E 0 90 22 7f
        E 160 80 18 00
        E 0 80 1c 00
        E 0 80 1e 00
        E 0 80 22 00
        E 320 90 35 5f
        E 160 80 35 00
        E 320 90 35 61
        E 160 80 35 00
        E 320 90 22 7f
        E 0 90 35 57
        E 160 80 22 00
        E 0 80 35 00
        E 320 90 26 7f
        E 0 90 35 61
        E 160 80 26 00
        E 0 80 35 00
        E 320 90 35 5c
        E 160 80 35 00
        E 320 90 35 63
        E 160 80 35 00
        E 320 90 22 72
        E 0 90 35 61
        E 160 80 22 00
        E 0 80 35 00
        E 320 90 1d 7f
        E 25 90 22 6f
        E 135 80 1d 00
        E 25 80 22 00
        E 295 90 35 5a
        E 160 80 35 00
        E 320 90 35 52
        E 160 80 35 00
        E 320 90 22 7f
        E 0 90 35 69
        E 160 80 22 00
        E 0 80 35 00
        E 320 90 26 7f
        E 0 90 35 55
        E 160 80 26 00
        E 0 80 35 00
        E 320 90 22 72
        E 0 90 35 52
        E 160 80 22 00
        E 0 80 35 00
        E 320 90 26 7f
        E 160 80 26 00
        E 320 90 26 7f
        E 160 80 26 00
        E 301 90 1d 75
        E 0 90 22 73
        E 160 80 1d 00
        E 0 80 22 00
        E 1760 90 1d 6f
        E 0 90 26 6f
        E 160 80 1d 00
        E 0 80 26 00
        E 1760 90 1d 76
        E 0 90 22 6f
        E 160 80 1d 00
        E 0 80 22 00
        E 1760 90 1d 71
        E 0 90 26 6f
        E 160 80 1d 00
        E 0 80 26 00
        E 1760 90 1d 6b
        E 0 90 22 6f
        E 160 80 1d 00
        E 0 80 22 00
        E 1760 90 1d 6b
        E 0 90 26 6f
        E 160 80 1d 00
        E 0 80 26 00
        E 1760 90 1d 76
        E 0 90 22 6f
        E 160 80 1d 00
        E 0 80 22 00
        E 1760 90 1d 6d
        E 0 90 26 6f
        E 160 80 1d 00
        E 0 80 26 00
        E 1760 90 1d 6b
        E 0 90 22 6f
        E 160 80 1d 00
        E 0 80 22 00
        E 1760 90 1d 6b
        E 0 90 26 6f
        E 160 80 1d 00
        E 0 80 26 00
        E 1760 90 1d 76
        E 0 90 22 6f
        E 160 80 1d 00
        E 0 80 22 00
        E 1760 90 1d 6d
        E 0 90 26 6f
        E 160 80 1d 00
        E 0 80 26 00
        E 1760 90 1d 6b
        E 0 90 22 6f
        E 160 80 1d 00
        E 0 80 22 00
        E 1760 90 1d 6b
        E 0 90 26 6f
        E 160 80 1d 00
        E 0 80 26 00
        E 1760 90 1d 76
        E 0 90 22 6f
        E 160 80 1d 00
        E 0 80 22 00
        E 800 90 26 60
        E 0 90 2b 6f
        E 160 80 26 00
        E 0 80 2b 00
        E 320 90 26 60
        E 0 90 2b 6f
        E 160 80 26 00
        E 0 80 2b 00
        E 320 90 22 6f
        E 160 80 22 00
        E 800 90 26 6f
        E 0 90 2b 6f
        E 160 80 26 00
        E 0 80 2b 00
        E 320 90 26 6f
        E 0 90 2b 6f
        E 160 80 26 00
        E 0 80 2b 00
        E 2211 90 1e 6f
        E 29 90 22 6f
        E 19 90 1c 6f
        E 112 80 1e 00
        E 29 80 22 00
        E 19 80 1c 00
        E 1901 b0 7b 00
        GUID {07581B59-0268-4B86-A5F8-947C66F8E294}
        IGNTEMPO 0 120.00000000 4 4
        VELLANE -1 104 0
        CFGEDITVIEW 59730.509459 0.103931 74 12 0 0 0
        CFGEDIT 1 1 0 1 0 0 1 1 1 1 1 0.16666667 211 70 1465 786 0 0 0 0 0.16666667 0 0 0 0 0.750000
        EVTFILTER 0 -1 -1 -1 -1 0 1
      >
    >
  >
  <TRACK '{0C69E5D2-8C8E-4C22-8306-F66706304680}'
    NAME ""
    PEAKCOL 16576
    BEAT -1
    AUTOMODE 0
    VOLPAN 0.45352539650539 0.00000000000000 -1.00000000000000
    MUTESOLO 0 0 0
    IPHASE 0
    ISBUS 1 1
    BUSCOMP 0 0
    SHOWINMIX 1 0.666700 0.500000 1 0.500000 -1 -1 -1
    FREEMODE 0
    SEL 0
    REC 0 0 0 0 0 0 0
    TRACKHEIGHT 0 0
    INQ 0 0 0 0.5000000000 100 0 0 100
    NCHAN 2
    FX 1
    TRACKID {0C69E5D2-8C8E-4C22-8306-F66706304680}
    PERF 0
    MIDIOUT -1
    MAINSEND 1
    <FXCHAIN
      WNDRECT 187 140 1004 685
      SHOW 0
      LASTSEL 2
      DOCKED 0
      BYPASS 0 0
      <VST "VST: Guitar Rig 4 (x86) (Native Instruments Software Synthesis GmbH)" "Guitar Rig 4.dll" 0 ""
        NEdpTu5e7f4CAAAAAQAAAAAAAAACAAAAAAAAAAIAAAABAAAAAAAAAA==
        AgAAAAAAAAD/CwAAAQAAAAAAEAAtaW4tAgAAACNOSSNDUyNEb2N1bQ==
        ZW50IyNOSSNTb3VuZFNoZWxsI1NvdW5kIwAAAAAAAAAAAAAAQQEAAA==
        YXRhZAIAAABkbnNzYmlsehYAAAAQAAAAeNpjYmBg0PX00zVxz/QDMg==
        GQARnQImYXRhZAIAAABvZm5pYmlserUAAAB5AQAAeNqNkMsKwjAQRQ==
        9/mKkL2mVcQqabpS96IfENtpCaRJyaP4+Vai8QGCu3sPZ4ZhWHXtFQ==
        HsE6aXRJ8nlGMOjaNFJ3JTmf9rOCYOeFboQyGkqiDcEVR8yZoCepNQ==
        r+HlIiccIYzZYM0A1ktwNILeNEGB41NOjR+C9MIeZbddZ1nG6AP/cg==
        Vn9IxR/O5st5ZhdPFd5beQk+XZtA7BMZhQrAd20LtWc0tujSD/mt3g==
        lzOansbRDRi8daxhdGFkAgAAAHRzcnBiaWx6ggoAAJxQAAB42u1c2w==
        cto6F+5/26fQcNtxjTnTId1DSCAHCNmEpEmnN8IIUGNLriwTyFPsRw==
        /iVjbBlwEjcHaCe96AR5eenT0tKntSRZoN25/t+HDx/+O//wofbPzA==
        tsAUMRdTspcxPmczABGTDjEZ72Uu+02tkgEuh2QILUrQXobQDPjn6w==
        x9qYaZi4nHk2IlwzJx65BQMPW0ONePYAsb1MtSR0mdR2xHtCxIHmrQ==
        hoeijmo5W6iWKpVcBowYtNEdZYsnQt6GPynTQjwFUYJNRqOSsiwhqg==
        jHjLYchFCVVwbAvYFx4BJ5AAowyM3Jd88UuuCnJZo5T5+vEjALI1TA==
        vAyg42h87iBfa2QVIQXEv9oIz7SwRS4QLdUwR7YrRPKBzKoUkHgq1Q==
        bFYoJFBC6Z2GokJYClqIo6goKEx+G3ieLB4dk9n+efEo37vOfR/xMw==
        G+4f2MVTdPDpci+jqlMVamMPx5+Jp1OM7kQnU4aGmvxbs+kQ+cZf/Q==
        5eKBJf4eQctFGX2lEv2BWhQE0Btium5cRdaB0i24kPBNHP3cJK3K+w==
        5sL1pa2OifRcE9VNjqdI4IeW53ftug6hZQBdpNQFGLIpR5oNZ7La8A==
        J/ZdTt8AQw9fXmtR9MhNNppvmJgfRA8Vj9HXXaYWDgDGQ2Q1PeaIDw==
        uGdJ9S88BqeUcEatlG6apCVy17v97slPfHnowjPevc3NG9NC61sD3g==
        /L3umn2o1u31d35zV4Fc2i5PVqT2+slZqTs67LXuecuxrudYH9ln3Q==
        yjtJvZNUCqetJPlaPu10mqwoRlXEYDeGMcla++ToGv5i3+dW//bdaQ==
        3502hdPmFFer+71zTFK660YVMUfdn1u9Arlu8yZl3Vm3Mj8zqi/Erg==
        RsxRjZ1w1OLjjtpuLC3WRiMOGhNICLJCNzXe3E3XEPYaCgNNdhKiMg==
        2B2PgxbEJBron4vbB9haAmxBjkCX6N3RaJcM2I/h608Ek0yoNVSMmA==
        rS7+Fd55cyWwVFPePnTQARLZuZE2PE3QorJnfXQ4rl4O7rOzc4u70w==
        syPz6Fer/hrTvMqenHkpyZML+EMB34DeWvXLZ9Jf1twgDe0+TLzVzQ==
        Xhp3eitkXkqdRwKDF3DxR0bkGjyOQn9AwiwRXWR3ByILITJIXIe6aA==
        B+3ohSA9soP4nOkS3xW1PFtB+LlSKJVEdxu7ApWFUHvIpGwIVhDvDA==
        UHyuhP+IcXBOXcwFlexe91uuSkPggotpaAdRohjKQzLceqcnxwWPRA==
        BvJxwhz1VkFDQZ3tBSuxlOHC+vuxQGF6691XTkdX1RbL0subyXfYHg==
        0ZcJFHKxQCG3E2lW6fE0q0mX5hKZ5+0WVwHWQ++QqvrCFOAcc3MS4g==
        K1W3D9DlzCR8CfKCMzpAekPuKu2SGYdO2lDkTeGxUTRzjhBDxIzgFQ==
        CjsA0O2EPYwtSTMdMcD/vNUymWJIPgQLflqp9a3o3VBXwjpIDBlCRQ==
        mJSO4xOUqER/fM8L+Z7ebE72p9Np/ubo9KSuu6+9npY+I7QD9NADpg==
        JXe+R1gqanz5cc7oWHQzaIoC90eD2jYlwY8zKBdswXG4de/+aHlYhA==
        R0CuhBd+hCYBDUq4eP7DondC/RR9voMiUDUtLGoaYG5D99ZvwaLkdQ==
        6p5gpWrbszh2rIXdFh1Y0EWK7cqhZaIIlCYzfDKUZxDEY89xFn+9Xg==
        Ylx8SmJ8fhfmdU9aqtpCPHpBQrqaE3P38PVtJyF7z+9MTN8JE+OOxw==
        dzCJu7ISE+Pin5hzRCz47DkppmCpV1MEAq5bsK2gGy0kwRg3KYQUSA==
        FHLVQrVUzlWLT2Cm5zj9s7oqoZMiG2sbjSVeWy9OsdSrnhup206dQA==
        a+6mTt4S1ainpU714Qg2jqvfeZsMK963rKt3Z+778ZO3DeSKRaWrzg==
        fVULLmosxVL2/RMUqgFe03C6zvTXJNfs8J+FxnXz9tfAMl/DC7LPCg==
        8P4cJ4gp8FVq1ONagsR6aHQV7zywPjVl5VZONpt/I8Z7pA3PpLyqug==
        L9Wy6ABazVlKn9+sQ3Xzzk0Df0K4d39Wt3KNfqfoklnh8J3sNtRrig==
        fANimeFKpdEJ363luuXspp3LtMfzkrSoXtI+ve53LGSfF09+0k+nNw==
        TXp1VzJ3d/8zt739z1Lm79p42vGtWnyhZqOgT0EHulxGdO+7TX/Jbg==
        0x+zF/oi22K57WyL5dcOEHa9tBH2Zh3qPNJol3WancOr723bHHenlA==
        FQ8u3L/3FGL+CacQw02oNraxLN29M2rPCb3fHGwnBLuYCdbBVkrFfA==
        qVzM5/7qA3Xv6VYSAa4UBj1RI5Romx5sjJjDqMOxcJzjDouTBsvdDA==
        zFmTkO6QHGIDt2Icl8xvz18wSKS1p1Lak5OnRI/d4K2rBowtxUyEsw==
        MHCGSXyHrZHVXat30z5wzq3D/PRnB99/Y8dp7Bg95kiMFChcLjiZdA==
        dtzPPCsVeVUzG9mHF3uTN4neZq13fQd7447QlsCEC+E9yFW6MgqVkg==
        PEpd2g6scNfsjHJzgqITHOXt4DGXeBrUoky1UzZfkHaqbAcXjo4Pig==
        ocO37U3h4aUe5XF/Km4H0GwJ6IDNwTfEt48oJKMD5PCJgqdqFHNl4Q==
        SIXt4Aoz2SZDvzxEzLmCrVAulstv5eSbw75nTKCV1QgE7Mc3L9xPfA==
        1i+UL5st5+rysnMyOmp/O36PQdSl8TUTdnB8abz+Kd8i/dLFv0bb/g==
        ee1dnkzMf636SxpxaxFG8ZEAA5Lwuy7xN6hvn2QEjH0V0v72IV034Q==
        MOSYBqOuO4Lqwb3PZaNS3hK2g/BM4YEHLdChhG57JlU/DJj6HwbIwA==
        /41RPZeJa/rmLLGmB5fDLG6KYQha8koZc/HR+HCw4ZoYiCw4DzeTfA==
        OUue9FAviQnKOWRjkYG7FuU+83I6Hlto7ZzlRnEjnXguLm48Ip5PJw==
        XkgnXkwnXloVj5GmL+/3PkAEDoJjOAvRvKJZj6l+sMLyb1eY+70KKw==
        6QxSTSdupHWtlL5lJDlXTQ8GQ/BTPPZEui7Gixg5mBAUv+wpGDEEmQ==
        UsSPCfwyG3ImRiajd278aqbQ2rUFZ2wYloXMepygoan838IuR2Q5jQ==
        rpRJ5fFeD2BpQ8ghUG6kitFQYJeoqujTkogLNGk2/0klE3MhONPCxQ==
        YXnRlRZyKFgoDtY55MnyZUFw35axGmPE8L5US4ID1JuaUv29pvSd3w==
        bIrK7St9F4q4BDruhHJ1SgjL/F4PfyU4lqxnRUtNX3G2oHhCXTnLcA==
        ai89fDU6izyqFshJe0UiIHo7NEY2doQtae1MT6/YiGtOCorDkbzWvA==
        xfS4NiMuJkpRLfTdK1i7FS9OqKi1ftk/6vbCO9tEF8qj4MINDq/7sg==
        LvmuACUbIIIEMKLMtiGBY4nYj6QDOGP/6DjDY0VizBRvHVDhgPGNIg==
        YKER1/xL57R4eA4sPEVB7B7IEqzdLpq0pkZgD743cTVZvbDzePHhlg==
        +mTDW7LFAdZVADLEWCvD4wACdF08Jv5de6tq7zAZCl7E90ib+R8y5w==
        Y2VzmVMGA6qmR5ZdWBr6F7hoHI5FG/gEjDATnWyJ4WTJwr2MAEHpSg==
        iSv7ehgv8zWIxmOBYdmNQYMpGyKGyVj0tSAMfxzrX/2wavUGwa8f/w==
        D5mRmNxhdGFkAgAAAEROU1NiaWx6FgAAABAAAAB42mNiYGDQ9fTTNQ==
        cc/0AzIZABGdAiY=
      >
      FLOATPOS 23 23 391 249
      FXID {14C30204-F26E-4807-8720-9106797534F3}
      <PARMENV 0 0.000000 1.000000 0.500000
        ACT 1
        VIS 1 1 1.000000
        LANEHEIGHT 0 0
        ARM 1
        DEFSHAPE 0
        PT 36.923077 0.000000 0
        PT 36.923077 1.000000 0
        PT 94.153846 1.000000 0
        PT 94.153846 0.000000 0
        PT 185.087135 0.000000 0
        PT 185.092838 1.000000 0 0 1
      >
      WAK 0
      BYPASS 0 0
      <VST "VST: ReaEQ (Cockos)" "reaeq.dll" 0 ""
        cWVlcu5e7f4CAAAAAQAAAAAAAAACAAAAAAAAAAIAAAABAAAAAAAAAA==
        AgAAAAAAAACgAAAAAQAAAAAAEAAhAAAABAAAAAAAAAABAAAAI0WFxA==
        CbxMQN/BmUrr+bc/Q+F6FK5H2T8BCAAAAAEAAADfclsax+p5QGEflg==
        qDZo4T8s3SQGgZXTPwEIAAAAAQAAAMI1WgbwZYZAP/jO2YaZ4D8eLw==
        3SQGgdU/AQEAAAABAAAA7Wk40iMMt0Dr///////vPwAAAAAAAABAAQ==
        AQAAAAEAAAAAAAAAAADwPwAAAAA=
      >
      FLOATPOS 846 287 721 505
      FXID {F5C85FFC-C7D7-41B7-8320-668990B37D3C}
      WAK 0
      BYPASS 0 0
      <VST "VST: ReaVerbate (Cockos)" "reaverbate.dll" 0 ""
        OGJ2cu9e7f4CAAAAAQAAAAAAAAACAAAAAAAAAAIAAAABAAAAAAAAAA==
        AgAAAAAAAAAoAAAAAAAAAAAAEADvvq3eDfCt3kE5Uz+bUU8/l5aWPg==
        9gj9PgAAgD8AAAAAAACAPwAAAAA=
      >
      FLOATPOS 790 380 573 357
      FXID {DF404435-E2E3-40F6-8670-05E2BA8EEC58}
      WAK 0
    >
  >
  <TRACK '{579739DA-459B-4ED1-A6AC-6EF8B9E5428F}'
    NAME ""
    PEAKCOL 16576
    BEAT -1
    AUTOMODE 0
    VOLPAN 0.94175982613588 -0.49400000000000 -1.00000000000000
    MUTESOLO 0 0 0
    IPHASE 0
    ISBUS 0 0
    BUSCOMP 0 0
    SHOWINMIX 1 0.666700 0.500000 1 0.500000 -1 -1 -1
    FREEMODE 0
    SEL 0
    REC 0 0 1 0 0 0 0
    TRACKHEIGHT 0 0
    INQ 0 0 0 0.5000000000 100 0 0 100
    NCHAN 2
    FX 1
    TRACKID {579739DA-459B-4ED1-A6AC-6EF8B9E5428F}
    PERF 0
    MIDIOUT -1
    MAINSEND 1
    <FXCHAIN
      SHOW 0
      LASTSEL 0
      DOCKED 0
      BYPASS 0 0
      <VST "VST: Guitar Rig 4 (x86) (Native Instruments Software Synthesis GmbH)" "Guitar Rig 4.dll" 0 ""
        NEdpTu5e7f4CAAAAAQAAAAAAAAACAAAAAAAAAAIAAAABAAAAAAAAAA==
        AgAAAAAAAABJEAAAAQAAAAAAEAAtaW4tAgAAACNOSSNDUyNEb2N1bQ==
        ZW50IyNOSSNTb3VuZFNoZWxsI1NvdW5kIwAAAAAAAAAAAAAAQQEAAA==
        YXRhZAIAAABkbnNzYmlsehYAAAAQAAAAeNpjYmBg0PX00zVxz/QDMg==
        GQARnQImYXRhZAIAAABvZm5pYmlseg8BAAAAAwAAeNqNkktuwyAURQ==
        514FYp7iT6qmESaDqO00itoFkPg5QrXB4hN1+QXboWnUqMzevZxjMA==
        gm6++g6dQRuhZI2LhxwjkEfVCHmq8cf762KFkbFcNrxTEmosFUYblg==
        UaOc9FCrfuSqLDDLMoTooNUA2gowzEdfSN4D26p+0GAMNGjbAZeUjA==
        dRDItRGKA5efFznM7M0JyzXaixNaUjJWoziDYe5V47q45ZRmz2vrYg==
        lec5JXN/ByqrFOgxBXpKgKoyAVqmHDww/0MpX3q+Pfhlnq+ZW6vFwQ==
        2XjTsZiyb868c8Be2haOlpIpTSy5ge/KO/9SwJpftl90BvTCL7D9bg==
        TUiEYv3XLlcx/AIl8e2y7Bu4HO3rYXRhZAIAAAB0c3JwYmlsenIOAA==
        AHmAAAB42u1dW1fbuhLued2/wiuvXSG+X/aie69cCZBAIAFKV1+UWA==
        SQS25fpCgKf904/kOLacxNAAjUNLH7qILI8+j0afZjSyzHW6X//36Q==
        0yf7v0+f9v+9ty3uDno+ws6XkrDHlzjojLCJnMmX0sWgVdZLnB8Axw==
        BBZ24JeSg0vcv//8tT/xysjxAy+0oROUR9PQueWGIbLMshPaQ+h9KQ==
        GSqRNcK2S+4jVVwwui0jk7RhaLxsqLoulrixB2w4w978CqlvgxvslQ==
        EzwyKUEjD6clGi1x2DrkLteDPsxpIkA2gd0PHe4IOJygcYL4t6T8LQ==
        GpzIC2rpn7/+4jj6NB65mQOuWw4eXBhJTbVCanHk3/4Y3ZeTJ/I58g==
        pGUUQNsnVaS4znItjuLRDZ4nAh1AoZwfJ1VJZVrRggFMi+LC/Lu5MA==
        pMXjQ+e+dnwqG60flZpu1m761epjpzLptg6/lFhxrMDyJETZa+TqHQ==
        gjPSydiDZpn+XbaxCSPlL//y0dAif4+B5cNSZamRyhOtMAhAaCK8qg==
        XKauC6hZBKRGpOL057rabP1IXai60NWhQy13BKujAN1Bgh9YYdS1qw==
        MoiUIfAh0xbnQRsHsGyDe9ps8hNFJldZA6OS3LzyROklP19pkWIydg==
        kF5kLKayajL7yQDwggTZfiVjiE+Yp8raF5pwx9gJPGxtaKZ5UmJznQ==
        dW5AtTZRatNH4SSYnYff5GqzP+iAx8nbmKuQMVdhJ8yVf6rV4vpbWg==
        31WcuGmX5wtKSMpudU5Pr2fVxvDSNI78H6MrxbNOb0b4g6Q+SGoDow==
        1fNsTdp0Os0XxBrtUfPKGNTaP9DlgdceX7QHoR7yFx9G+2G0GxityA==
        mFo16p1DZ0NzXSuCNdQDu/Lt8hoFU+F4co5bQ0FqAn72+86pyvOG2g==
        qS801oHjgKtPgeNAKzFTYetmuoLwvM4w0HQVIl88RGawu2HAHQDkpA==
        8PaU4gEeLAAegAByp07ldDzepT4eZPANpoRJptgyGSXyxvyf/MGbSw==
        jiUb8g6ACxuQROfCpu5pjhSWPZtnD8Ko8bntXLZ+HPvdk8aZ0uGrvw==
        Yppn2TPwwg3JMyDwTQJfAOFK84tr1F5WzGAT2n2aeI31Vpo1eithXg==
        jN1n6OwNTPyZEbkCL4CJPUCilpQu+N2B6CUQPeD4LvbhDuoxTECGzg==
        DuJz7xb4LrEV2gzCPV1WVdLdwq5A9RKo53CEPZNbQrwzQFGPcf+hFw==
        cD3so4BQye51v+WzNMT1AzIN7SBKmEHZdMzCOz3fL3jGM6CXc+aobQ==
        OQ0yO9sTVvI2dBdW78+sB9xOetdj1XWNrn/TmB4oPd1u376NoyBmHA==
        BXEnwiz1+TCrhRfqamHvdpdil0FCVQOiCq6HgtE0wacaxQP0A2/kBA==
        C5D9wMNDWKnTrNIuqdF0N3VFtgrPG6cz5xh60Bml8GR5BwD63aSHkQ==
        RWmmSwb4+1stoyEG5UNuzk9LrW6L3gV2JawLyZBxMHGTNuP4HCEs0Q==
        V28uwHXLr/BmFRuipMJG4/4K/+r1tM0jQjtGD0JuZNHM9xhRQfW/vw==
        9zw8Id3MtUiB/72ObRs78Y8TQBdsucMkde9/PwgRcY84uhIuf09Uwg==
        1bETkOvfLTwj4u/g3gwQR3VkIdLSEAU28G+jJ5iX/Jq2p4hp2g6tAA==
        udZcb/MOlCskxPbp0BrBFFSZRviOSfcgkMuh687/+nWBsfIzgXFvlg==
        xHU/tVRVgD/adxK6enBGu4dvYLs50bu0Mz59NwmMu2Gwg0HcpZUbGA==
        K+8x5khZ8NVzUkbAQm6ZqRBz3ZxtCd2UExLMcBNDSHENWTRkQ9VEQw==
        +Qlmeo3Rv6qrcjop1XF5rbLIbavFGyz1svtGqrZbdYD14G8cvOWKYQ==
        d0v1LoTWpfPY1ludO63q1Zrm43X7N96IsJvbTxSF6apeJGrORfVFtQ==
        Dfv+JwSyDl796ltHffzxKF8euqDR5Q9mGH2+/hVWwL/KwXs/RpAREA==
        iSzjMCjn1Fh1jS6zncetTk1ilCfThC0x3jPP8ErKM9i81IGFh8Bq3Q==
        b2jz62WwZn5Sw+2br2fhVGlZfF+2H2xbBPwH2a1pd0TiDYBohEuFpg==
        O3wLi3U1fl3mctPteXlSWCtpu7fOsNm8nZqt6aN0fd5/6F+b17ub/w==
        FIvLf6ql3yvxtOOpWtRno1FugLku8APq0X1km36TbNO7yYW+SVpMLA==
        Ji0mrWwgPA039bDXy2Dnkd7nmzYSamffvh2Fj0Ph4qLb1e9+45390g==
        T+xCTJJQHWQjWrp7e9Re43pvHWw3ATufCVbB6qoiqZoiib/1hrqPcA==
        K48Alwrjnth3sFNed2E1PaQzRBeP2gXNDY7qX6s1/+KoNem3akon9A==
        wtrNMfparza/LNPpWvKZ01t6OYCkkwHRVryp5uRwUHqVF51LfD9Leg==
        myQ5XpHe+BVGtMq+dqYfn1zn3gqg89S1sSBpjxugZ5bftwKrvYDVxg==
        lrkjmC5zYyiDV0VlS6y0jtBzyXwNkS+/d8RG43VEBq+foZZ27YFvXQ==
        f77qBQ1Lvj11bqTD3snoT6AWQXpn3FKv9vvM5h3oQfxEvLcVSMlWmA==
        1l51r77HDBlJEAWBzOYF6Wq4AFYDvs/C0mVBJrD0YmAF6c4mOLRYig==
        UXVN1wrD5WZ8M3ZHE1EZcckoixTEypP0fZbMq0CioWh072RBGrOzQQ==
        ARsNCIpBI1ejGGC9WdKXePbkutV2JlWQsCj5E4FR8fN8PzGpPpjsgA==
        h+a7qY/mk1ntye2OW4FUQwl9IuBved57exeIDa+6IBhNocnVwRA5MA==
        yPhCzQCfXGkd5dvRadi8NWbdC+B63TfxhRae1ya7sLfqDanvzBl6fg==
        VUbmRVksbqofJU63h31/DMwMNlmKkjJSMdhAsqqKMjOXLBJQRG0F+Q==
        tyDx2pLRuTAyrRhIfp6//U6pUGapsB+QaxzdrUKcPh8vLTndnhiz+w==
        6Sj8dhyeNpFvn9wd2NdbjAvfHxPyu7ZsofA6bxCWKcgTTTOpoR9knQ==
        d0mRJbp9qqDJIzlkoBoEYHTLErMRLcYKu7FYx8aHvKrSwLUgJzU5VQ==
        YN2BAqqsidrW5o03J0WKPSVF10POhDuHhDmGGUY8OBtfGKOgcdU69A==
        qvzkphqc/ZCrfwIj6u/MNxzY6Tii3bi8viwJCl9ghH4FE6/iCrIpAg==
        WZeis83Egvg6Mv0OdCbBdGk4LArTIS8ZMiFwoSBXsZazvKeLhkZ8fg==
        TS44q9HBM64BbJfojl2y0lVNLG7JqpPkXNBkugaequuqWli8hLrZkw==
        fzIvsvDvdGZhd7CchcDkGtACD5lp5ej41O43eu3zVv02uLc/N43Lgw==
        69mfMK28PAFTkKc96GfeieEy76sVhKmRYIpMaycwDbKQlmZfVRHV4g==
        Mh1X66delQxVEiqJBbkErSSPBqE5XApJFFmWiptqG0lnovE49DMHrw==
        7AmaKBa0NHPo3KUTBmGfoGirb/dyk3uaxqt0Z1NRE38vLxuqqQYNKg==
        1YLWcM8TR7iLzZDMXMS6uHMQFJ4A6TbWIWtAl3WCP/ykt/KTDDYCPw==
        HMHL5di7Wus5x507p3/SDr3jUOTbg+7V7Z+wS0V7Zz7SDm5SSQ49rQ==
        Ywuz+Q6NF3QSjwkF0d8hY/E7kBVPD415hIVn9xL2RfesamReUooL7w==
        L9YesvBeY1P29eXmGdefQusuWhBgeLfTbtxc8EendfPUHXaPjuzaNA==
        lC7+BN59d1kgvMkRG9sJaoR0OYxrefAHGziImqIIhaWmDlhoSxvLCA==
        KuoVywWtwrbEdJluWWuqIemaphQVRxyw0Ja0Jsu8qmmG/E4T45KYZQ==
        wwMPuFM0ypBhT+U1gM/09rfa5KLZOXrs31VR92Or9PvKiRe0XRSlHg==
        jbM8rIvCBNItVPc7gsljd/ty58CZ7EDnDYV0/cQx6VHu7H4BRVRkoQ==
        oMliKGaQiTugKymDSMpsyKMzhCoXtGA4lDPI5MxbAYYu8UpBu/GGSg==
        BphS2Ky6ikzNIFNZVyRykwpTmZYBprEq02RFU0WjoBhxqGeQ6ZnVVg==
        UdcFaUs6e62LtF9Z//7qfiX+bOX8G5YeBBb92OVo/jkrc7jmA5aApg==
        gZJjbqJ6Fj2Djv18ZVweAG8CA863cBAdZBXgycSCKyfArq0ubFZdzA==
        VheeqS5tVl3erLqyWXV1uXrG34vqR73PQQcM4wMC51UlRnIlI/rJBg==
        tRc3KL6sQX0zhRibVRc2Na0NbUvIM679SjwY4p92kl0gIwc5Dsx+hg==
        Nh4xDhzRKtHJUFGZDQKPjEwPz/zsR2MTbe/POWPNsJRLqzFQGd7R/w==
        LeQH0FlEAEtl2dMn9lNYZRMEgGO+lZuhoVgvaVPpofcpF5Sp2qIreg==
        KWNC4L6crETST/CWk7iCmwuOAyh65vWiIP4SsLAcHmXwvtWTxEc7rw==
        exTjZY8ycAt6lPjDResehdrzS57FtV74LOw8tWSHSRXfAa4/xQE7vQ==
        JWWRBSe/cgYJbWdJyn5laeDExVPs0xkzwPZitOZ/qGg/rkf1lVbh0g==
        u1Nl8GrmqNC8XfeVzUWrQkZy3jajF0gW+YzkvDXiF0jOCs57Nf0Fgg==
        BTGr5pzzNF6ijGwH5r1C9gLJUrYD81KgL5GsZc+nzVnXeoFkJduDeQ==
        W6aTyXBlVM09zBWncu5rkmZBRGvxwSzkxikmrVYvBu3T8+SD7IQ56A==
        Oe+ESZtfB7Qtei8BRR+AnoAxxp5tAwdMKOJoHS2GM4nOhffQhKkx8Q==
        GJYcYsJ72VOgOAuOg3L0RflydnGOs9AdjFfu4roOKt/OH2lFDMEefw==
        TMIv0+aJnifzzXnslTV30SeOsS4DoF76ShmaxBCA76OJQzW1InaGHA==
        k7gW6BGW76OvlEmZsgd6rETM4/uVVLNzTYPo66zlAEzIMwRTbow80g==
        yRZhcYsWfikREBgvlfi0r81sWSSBPDwiGBbdGD8w9kxINyaTviYTVQ==
        NH1U/okiE5Sc818eTUOHRCn/B5Zb8iBhdGFkAgAAAEROU1NiaWx6Fg==
        AAAAEAAAAHjaY2JgYND19NM1cc/0AzIZABGdAiY=
      >
      FLOATPOS 23 23 391 249
      FXID {CADCC5E5-685E-4A51-83A5-2681AE72A8ED}
      WAK 0
    >
    <ITEM
      POSITION 1.84614512471655
      SNAPOFFS 0.00000000000000
      LENGTH 35.01666862761167
      LOOP 1
      ALLTAKES 0
      SEL 0
      FADEIN 1 0.010000 0.000000
      FADEOUT 1 0.010000 0.000000
      MUTE 0
      IGUID {31A9CF43-72AE-4C18-8651-C2980E1CD01C}
      NAME "03-160117_1001.wav glued"
      VOLPAN 1.000000 0.000000 1.000000 -1.000000
      SOFFS 0.00000000000000
      PLAYRATE 1.00000000000000 1 0.00000000000000 -1
      CHANMODE 0
      GUID {61B066BE-06EA-4698-9D91-9641362DF550}
      <SOURCE WAVE
        FILE "03-160117_1004.wav"
      >
    >
    <ITEM
      POSITION 36.86281375232822
      SNAPOFFS 0.00000000000000
      LENGTH 57.13007728355127
      LOOP 1
      ALLTAKES 0
      SEL 0
      FADEIN 1 0.010000 0.000000
      FADEOUT 1 0.010000 0.300583
      MUTE 0
      IGUID {BA32E1D1-27D6-41A2-B1B2-45F06C316071}
      NAME "03-160116_1023.wav"
      VOLPAN 1.000000 0.000000 1.000000 -1.000000
      SOFFS 5.47820708915012
      PLAYRATE 1.00000000000000 1 0.00000000000000 -1
      CHANMODE 0
      GUID {6BAC9596-74C7-4479-AE52-7FEDE639A6EA}
      RECPASS 22
      <SOURCE WAVE
        FILE "03-160116_1023.wav"
      >
    >
    <ITEM
      POSITION 93.69230769230768
      SNAPOFFS 0.00000000000000
      LENGTH 52.15384615384616
      LOOP 1
      ALLTAKES 0
      SEL 0
      FADEIN 1 0.010000 0.300583
      FADEOUT 1 0.010000 0.000000
      MUTE 0
      IGUID {B0B285A1-D07D-46B5-8D78-CFDC744FCEFD}
      NAME "05-160110_1714.wav"
      VOLPAN 1.000000 0.000000 1.000000 -1.000000
      SOFFS 2.30770102912960
      PLAYRATE 1.00000000000000 1 0.00000000000000 -1
      CHANMODE 0
      GUID {7D7E5B17-2D3A-48F7-805F-C59E77AEC5CB}
      RECPASS 16
      <SOURCE WAVE
        FILE "05-160110_1714.wav"
      >
    >
    <ITEM
      POSITION 96.52346287633000
      SNAPOFFS 0.00000000000000
      LENGTH 0.00001000000000
      LOOP 1
      ALLTAKES 0
      SEL 0
      FADEIN 1 0.010000 0.000000
      FADEOUT 1 0.010000 0.000000
      MUTE 0
      IGUID {94DDCC84-B303-439A-B1B6-712D7B19542F}
      NAME "03-160116_1023.wav"
      VOLPAN 1.000000 0.000000 1.000000 -1.000000
      SOFFS 65.13885621315193
      PLAYRATE 1.00000000000000 1 0.00000000000000 -1
      CHANMODE 0
      GUID {86FCB12C-9C65-4F4A-89FA-EA298E0F464D}
      RECPASS 22
      <SOURCE WAVE
        FILE "03-160116_1023.wav"
      >
    >
    <ITEM
      POSITION 145.84615384615384
      SNAPOFFS 0.00000000000000
      LENGTH 3.69230769230771
      LOOP 1
      ALLTAKES 0
      SEL 0
      FADEIN 1 0.010000 0.000000
      FADEOUT 1 0.010000 0.000000
      MUTE 0
      IGUID {7D8DE6BC-7BBD-4CFB-B435-8E02E5A8E910}
      NAME "03-160117_1103.wav"
      VOLPAN 1.000000 0.000000 1.000000 -1.000000
      SOFFS 3.69232164660735
      PLAYRATE 1.00000000000000 1 0.00000000000000 -1
      CHANMODE 0
      GUID {794ECC01-351D-4A19-B210-AC6265F5FA7E}
      RECPASS 35
      <SOURCE WAVE
        FILE "03-160117_1103.wav"
      >
    >
    <ITEM
      POSITION 149.53846153846155
      SNAPOFFS 0.00000000000000
      LENGTH 1.84615384615384
      LOOP 1
      ALLTAKES 0
      SEL 0
      FADEIN 1 0.010000 0.000000
      FADEOUT 1 0.010000 0.000000
      MUTE 0
      IGUID {61A59DAB-95D2-40CC-9CEE-ABE0FE5125D1}
      NAME "03-160117_1103.wav"
      VOLPAN 1.000000 0.000000 1.000000 -1.000000
      SOFFS 7.38462933891506
      PLAYRATE 1.00000000000000 1 0.00000000000000 -1
      CHANMODE 0
      GUID {9C2CEE8F-984E-4615-A725-3AE623D0A801}
      RECPASS 35
      <SOURCE WAVE
        FILE "03-160117_1103.wav"
      >
    >
    <ITEM
      POSITION 151.38461538461539
      SNAPOFFS 0.00000000000000
      LENGTH 1.84615384616279
      LOOP 1
      ALLTAKES 0
      SEL 0
      FADEIN 1 0.010000 0.000000
      FADEOUT 1 0.010000 0.000000
      MUTE 0
      IGUID {F0DA7453-25EE-49EE-99CB-BAA0BA63E02C}
      NAME "04-160117_1209.wav"
      VOLPAN 1.000000 0.000000 1.000000 -1.000000
      SOFFS 3.69232513518227
      PLAYRATE 1.00000000000000 1 0.00000000000000 -1
      CHANMODE 0
      GUID {D2B75351-1B14-440C-89DD-AFDE9A955658}
      RECPASS 43
      <SOURCE WAVE
        FILE "04-160117_1209.wav"
      >
    >
    <ITEM
      POSITION 153.23076923076923
      SNAPOFFS 0.00000000000000
      LENGTH 1.65517241379311
      LOOP 1
      ALLTAKES 0
      SEL 0
      FADEIN 1 0.010000 0.000000
      FADEOUT 1 0.010000 0.000000
      MUTE 0
      IGUID {3D0293A3-70AE-416D-ADC3-09BCBFB341EF}
      NAME "03-160117_1153.wav glued"
      VOLPAN 1.000000 0.000000 1.000000 -1.000000
      SOFFS 0.00000000000000
      PLAYRATE 1.00000000000000 1 0.00000000000000 -1
      CHANMODE 0
      GUID {F9F35AE1-E231-4D09-BAED-45DEE6A116F1}
      <SOURCE WAVE
        FILE "03-160117_1156.wav"
      >
    >
    <ITEM
      POSITION 154.88594164454844
      SNAPOFFS 0.00000000000000
      LENGTH 1.65517241379311
      LOOP 1
      ALLTAKES 0
      SEL 0
      FADEIN 1 0.010000 0.000000
      FADEOUT 1 0.010000 0.000000
      MUTE 0
      IGUID {3E2A0F45-7773-44A9-BE40-E315CC3EE759}
      NAME "03-160117_1153.wav glued"
      VOLPAN 1.000000 0.000000 1.000000 -1.000000
      SOFFS 0.00000000000000
      PLAYRATE 1.00000000000000 1 0.00000000000000 -1
      CHANMODE 0
      GUID {440787AE-527A-4B86-B5AD-28468903BC58}
      <SOURCE WAVE
        FILE "03-160117_1156.wav"
      >
    >
    <ITEM
      POSITION 156.54111405835545
      SNAPOFFS 0.00000000000000
      LENGTH 1.65517241379308
      LOOP 1
      ALLTAKES 0
      SEL 0
      FADEIN 1 0.010000 0.000000
      FADEOUT 1 0.010000 0.000000
      MUTE 0
      IGUID {546FD5A9-6705-4206-96A4-16ADCFDEEB7E}
      NAME "04-160117_1218.wav"
      VOLPAN 1.000000 0.000000 1.000000 -1.000000
      SOFFS 3.31038843477268
      PLAYRATE 1.00000000000000 1 0.00000000000000 -1
      CHANMODE 0
      GUID {85711451-0752-45B2-AF68-9A6F3B567507}
      RECPASS 46
      <SOURCE WAVE
        FILE "04-160117_1218.wav"
      >
    >
    <ITEM
      POSITION 158.19628647214853
      SNAPOFFS 0.00000000000000
      LENGTH 26.48275862068965
      LOOP 1
      ALLTAKES 0
      SEL 0
      FADEIN 1 0.010000 0.000000
      FADEOUT 1 0.010000 0.000000
      MUTE 0
      IGUID {20729EE4-1C22-4495-B6A2-5072A77CD520}
      NAME "03-160117_1153.wav glued"
      VOLPAN 1.000000 0.000000 1.000000 -1.000000
      SOFFS 1.65517241379311
      PLAYRATE 1.00000000000000 1 0.00000000000000 -1
      CHANMODE 0
      GUID {182668FE-BF26-416D-8E1B-58BFADB5372F}
      <SOURCE WAVE
        FILE "03-160117_1156.wav"
      >
    >
    <ITEM
      POSITION 185.42599033284534
      SNAPOFFS 0.00000000000000
      LENGTH 5.87374441516528
      LOOP 1
      ALLTAKES 0
      SEL 0
      FADEIN 1 0.010000 0.000000
      FADEOUT 1 0.010000 0.000000
      MUTE 0
      IGUID {A3C6DD86-47A2-4C37-A9D2-604A903905D7}
      NAME "04-160117_1228.wav"
      VOLPAN 1.000000 0.000000 1.000000 -1.000000
      SOFFS 5.79311656050572
      PLAYRATE 1.00000000000000 1 0.00000000000000 -1
      CHANMODE 0
      GUID {C0D15D9B-24B3-40E3-8633-4A2BD07E3027}
      RECPASS 48
      <SOURCE WAVE
        FILE "04-160117_1228.wav"
      >
    >
  >
  <TRACK '{2C858C75-A7B4-42E0-857A-7C9AA21617B6}'
    NAME ""
    PEAKCOL 16576
    BEAT -1
    AUTOMODE 0
    VOLPAN 0.74988682755236 -0.49400000000000 -1.00000000000000
    MUTESOLO 0 0 0
    IPHASE 0
    ISBUS 0 0
    BUSCOMP 0 0
    SHOWINMIX 1 0.666700 0.500000 1 0.500000 -1 -1 -1
    FREEMODE 0
    SEL 0
    REC 0 0 1 0 0 0 0
    TRACKHEIGHT 0 0
    INQ 0 0 0 0.5000000000 100 0 0 100
    NCHAN 2
    FX 1
    TRACKID {2C858C75-A7B4-42E0-857A-7C9AA21617B6}
    PERF 0
    MIDIOUT -1
    MAINSEND 1
    <FXCHAIN
      SHOW 0
      LASTSEL 0
      DOCKED 0
      BYPASS 0 0
      <VST "VST: Guitar Rig 4 (x86) (Native Instruments Software Synthesis GmbH)" "Guitar Rig 4.dll" 0 ""
        NEdpTu5e7f4CAAAAAQAAAAAAAAACAAAAAAAAAAIAAAABAAAAAAAAAA==
        AgAAAAAAAACJDwAAAQAAAAAAEAAtaW4tAgAAACNOSSNDUyNEb2N1bQ==
        ZW50IyNOSSNTb3VuZFNoZWxsI1NvdW5kIwAAAAAAAAAAAAAAQQEAAA==
        YXRhZAIAAABkbnNzYmlsehYAAAAQAAAAeNpjYmBg0PX00zVxz/QDMg==
        GQARnQImYXRhZAIAAABvZm5pYmlseg8BAAAAAwAAeNqNkktuwyAURQ==
        514FYp7iT6qmESaDqO00itoFkPg5QrXB4hN1+QXboWnUqMzevZxjMA==
        gm6++g6dQRuhZI2LhxwjkEfVCHmq8cf762KFkbFcNrxTEmosFUYblg==
        UaOc9FCrfuSqLDDLMoTooNUA2gowzEdfSN4D26p+0GAMNGjbAZeUjA==
        dRDItRGKA5efFznM7M0JyzXaixNaUjJWoziDYe5V47q45ZRmz2vrYg==
        lec5JXN/ByqrFOgxBXpKgKoyAVqmHDww/0MpX3q+Pfhlnq+ZW6vFwQ==
        2XjTsZiyb868c8Be2haOlpIpTSy5ge/KO/9SwJpftl90BvTCL7D9bg==
        TUiEYv3XLlcx/AIl8e2y7Bu4HO3rYXRhZAIAAAB0c3JwYmlserINAA==
        AKp+AAB42u1d21LbvBbuvu1TeHLbCfH58A/tPzkSIIFAAhSmN4qjJA==
        Jrbl+pAAF/tR9rNuOQdbSmKogcZOSy86RJaXPi8tfVpLS5aZVvv7fw==
        Pn369L//fvp0+O+DZTJT6HoGsr8WuAO2wEBbRwPDHn0tXPUaRbXAeA==
        PrAHwEQ2/FqwUYH599vnw5FbNGzPdwML2n5RHwf2hOkHhjko2oHVhw==
        7teCJmNZOrIcfB+u4gB9UjQGuA1NYUVNVlW+wAxdYMEZchdXcH0L3A==
        I7cY4RFxiaG7KC5RwhKbrIPvclzowYQmfMPCsLuBzZwAm+EUhuP/EQ==
        pH94jeFZTi58+/yZYcKncfHNDHCcov/owLnUWCu4FoP/HQ6Nh2L0RA==
        HoOftGj40PJwFWFZZ70WE+JRNZbFAm0QQrk8jariymFFE/owLloWJg==
        380EQVg8PLYfKud9/eeX68mJeHY+1dzpU0mGJ6eTrwVSHCmwOAoM+g==
        Gr46NeAMdzJy4aAY/l200ADOlb/+yzP6Jv57CEwPFkprjZSeaYVAAA==
        goGBNpVL1HVAaBY+rjFXcfxzW22y/lxdRnmlq2M7tFwdlnXfmEKMHw==
        mMG8azdlYCl94EGiLcaFFvJh0QIPYbPRT2NucqUtMErRzRtPFF/ykg==
        lTZXDGUH8UXCYkqbJnMYDQDXj5AdlihDfMY8ZdK+jBFzimzfRWZKMw==
        TZKyNNdZ6x6UKyOpMn7izvzZZXAnluvdXgs8jd7HXDnKXLlcmCv7XA==
        q9n1t7C9qxg+bZcnC4pIymq0zs9vZ+Va/3qgnXg/9RvJNc/vdfRBUg==
        HySVwmjVJFsT0k6nyYJIoz2p32i9SvOncX3kNodXzV6gBuzVh9F+GA==
        bQqj5QlTK89759hOaa5bRZCGemSV7q5vDX/MnY4uUaPPCXXAzv7cOQ==
        VXrZUFvVlcZacOgz1TGwbWhGZsrt3Ew3EF5WCQYab0Jks4dIDHYn8A==
        mSNg2DG8Ayl7gEcrgEfAh8y5XTofDvPUxz0KX2+MmWSMzAGhRFZb/A==
        Ez94c82xJEPeHnBgDeLonEvrniZIIdmzfvHI6bUvTfu68fPUa5/VLg==
        pBZb/h3TPMmevhukJE8fwx9g+BwINppfXQvtZcMM0tDu88SrbbdS2g==
        6M2IeRFyXqCzdzDxF0bkBjwfRvYAsVpiumDzA9GNILrA9hzkwRzqMQ==
        iEAGdg7xOdMVvmtkBhaB8EAVZRl3N5cXqG4E9RLqyB0wa4hzA9ToEA==
        7j90faaDPMPHVJK/7jc9koaYro+noRyihBTKuj3IvNOT/YIXPIPwcg==
        why1K6dBJGd7zEpuSndh835qPWAy6twOZcfR2t59bXwkdVSr+U4r7Q==
        POUo8LkIs+SXw6wGWqmrgdxJnmKXXkRVPawKpmP4+jjCJ2vZA/R8Vw==
        t/0VyK7voj4sVcOsUp7UOHDSuiI7hecO45lzCF1o6zE8UcwBQK8d9Q==
        sGGGNNPGA3z/VsvCECPkQ2bBT2ut7oreOXIlrA3xkLERdpPScXyCEA==
        kujL91fgtuGV2EEZabwgw1rt4Qb97vW09BGhtUQPAkY3w8z30AgFVQ==
        //nRcdEIdzPTwAXejyqyLGQvf5yBcMGWOY5S996Po8DA7hETroSLPw==
        IpUwVWT7+PoPE82w+Ck8mAHsqOqmgVvqG74FvMn8CRYlv6ftsUE0bQ==
        BaZvOOZCb4sOFEs4xPbCoaXDGFQxjPDtQbgHAV8OHGfx1+8LjKVfCQ==
        jDuzKK77paWqDPzRrh3R1aOt5w9fz3ISonchNz59OwqM24GfwyDu2g==
        TAyMpX2MOWIWfPOcRAlYyS0SFZZct2BbTDfFiAQpbiIIaVlD5DVRkw==
        FV6TfoGZ3mL0b+qqhE6KdVzcqix822ZxiqVect9I2XLKNjAfvdTBWw==
        ohhyt1S9qk6HBnyEXMu5Oe52rOHT2BH/3JxuPrefSBLRVZ25qAUXVQ==
        V9VS9v0vCCQdvOrNXUt++vkkXh87oNZmj2bI+HL7O6yAfZODtz9GQA==
        CZiLLKLALybU2HSNrunOYzanJn6eJ1O4HTHeC8/wRsrTyLzUkYn6wA==
        bDyktPntMkgzP6ug5v33i2AsNUy2K1qPlsUD9oPstrSr43gDGGGEGw==
        Co13+GYW6yrstsxl2u15SVJIK2k6E7tfr0/Gg8b4Sbi97D52bwe3+Q==
        zX/y2eU/5cKflXjKearW6JLRKNNDTBt4fujRfWSb/pBs097kQt8lLQ==
        xmeTFhM2NhCeB2k97O0yyHmk8+W+aXCVi7u7k+Cpz11dtdvq9A/e2Q==
        L/zCLsQoCdUyLCMszd8etbe43jsH247ALmaCTbCqLAmyIgn8H72h7g==
        I9xKIsC1wmVPHNrILm67sJkeUgmiW47aFc31TqrfyxXv6qQx6jYqUg==
        K3CDyv2p8b1arn9dp9Ot5LOgt/iyD3EnA6yt5aaas+Ne4U1edCLx/Q==
        KumlSXK8Ib3xO4xok30tqh+fXefeCaDL2LUxIW6P6RkvLL/vBFZzBQ==
        q4nMQU4wXSfGUBor89KOWGkboSeS+RYiX3/viIzGqwYevB5FLc3KIw==
        27j9ctPxa6Y4ObfvhePOmf43UAsn7Bm3VMvdLrF5B7oQPRPv7QRStA==
        FaZxUD6oHhBDRuB4jsOzeUa66q+AVYDnkbBUkRMxLDUbWH68swn2TQ==
        kmJkVVGVzHA5lG9G7mjCKsMuWcgiGbHyKH6fhXoViNckJdw7mZHGLA==
        OiggowFO0sLIVcsGWGcW9SWaPbtutZtJFUQsiv80gJ79PN+NTKoLRg==
        OfDQPCf20Tw8qz273XEnkCpGRJ8G8HY8772/C0SGV23g62M4YKqgbw==
        2NCnfKG6j85ulJZ0d3Ie1CfarH0FHLf9Lr7QyvNKswt7p96QvGfO0A==
        y6syIsuLfHZTvR453S7yvCEYUNhEYZ6UEbLBBqJVVYOauUQeg8Jqyw==
        yL8FkdcWjc6VkSnZQPKS/O09pUKRpMKuj68x4W4V7PR5aG3JaXKmzQ==
        HsZ6cHcanNcNzzqbHlm3O4wL948J2bwtW0isymqYZTLyRONMauD5aw==
        zjsvqurWV9B3giw6ZKDs+0CfkMSszRdjuXws1pHxISvLYeCakZManQ==
        KrDtQAFZVHhlZ/PGu5NiiD0mRcc17BFzCTFz9ClGPLoYXmm6X7tpHA==
        u2V2dF/2L36K5b+BEdU98w17VjyOwm5cX18WOInNMEK/gZFXcQPJFA==
        gagK87PN+Iz4em76LWiP/PHacFgVxkNe0EQJ82RGBF5JWN5TeU3BPg==
        vyJmnNVooRlTA5aDdUfOeqqs8NktWbWinIsxGm+BJ6uqLGcWLxlt+g==
        5B/qRRZ2T2cWcgfLRQAGTA2a4JGaVk5Oz61urdO8bFQn/oP1pa5dHw==
        3c7+hmnl9QmYjDztXpd6J4ah3lfLCFMtwjQ3rVxg6tGQ1mZfWeLl7A==
        Mh0326deGQ9VHCrxGbkEjSiPBuGgvxaSSKIoZDfV1qLONIbDwKMOXg==
        OeAUns9oaebYnsYTBmYfP2urb3YSk3uKwsrhzqasJv5OUjZUkbUwqA==
        lDNaw72MHOE2GgR45sLWxVwCP/MESLu2DVkNOqQT/OEnvZefpJER+A==
        sQ6v12PvcqVjn7amdvesGbinAc82e+2byd+wS0XZMx8ph5tUokNPqw==
        yERkvkNhORXHY1xG9HdMWHwOsuLxoTFPMPPsXsS+xgOpGpEVpOzC+w==
        q62HLOxrbEq+vly/YLpjaE7nCwIE77aatfsr9uS8Ojh3+u2TE6syDg==
        hKu/gXf3LguE0hyxsZughouXw5iGC3+SgQOvSBKXWWrqiIS2trEMow==
        Cr1iMaNV2AYfL9Ota03WBFVRpKziiCMS2prWRJGVFUUT9zQxLvA0Gw==
        HrnAGRs6RYYdmVUAulCbd5XRVb118tSdlo32x1bp/cqJZ7Rd1Ig9Gg==
        e31YZ4UJxFuoHnKCySV3+zKXwB7loPP6XLx+Yg/Co9zJ/QISL4lcRg==
        k0Wfp5DxOdCVQCESqA154QwhixktGPZFCplIvRWgqQIrZbQbry9RwA==
        pMxm1U1kMoVMJl2RuZuUmcoUCphCqkwRJUXms9pa1FcpZCq12sqrKg==
        J+xIZ291kQ5L299fPSwtP1u5+IalC4EZfuxSX3zOatDf8gFLEKaBog==
        Y27m9czwDDry85XLch+4I+gznon8+UFWPhqNTLhxAuzW6ly66jxdnQ==
        e6G6kK66mK66lK66vF6d8vfm9ee9z0Ab9JcHBC6qCoTkEiX62QaVVw==
        N8i/rkE1nUK0dNW5tKaV0ra4JOM6LC0Hw/KnFWUX8MgxbBvSn6Fdjg==
        GBvqYZX5yVDzMgv4Lh6ZLpp59EdjI20fLjhjy7AUC5sxUBFOw/9Nww==
        86G9igDWyujTJw5jWMUB8AFDfCuXoqGlXuKm4kPvYy4ohmqbX1ELlA==
        CYGHYrQSGX6CtxjFFcxC8DKACs+8XhUsvwTMrYdHFN73epLl0c7bHg==
        RXvdo/ScjB5l+eGibY8S2vNrnsUxX/ks5Dy1ZodRFc8GjjdGPjm9RQ==
        ZXMLjn4lDJKwnTUph6W1gbMsHiMvnDF9ZK1Ga/KHig6X9UJ9xVWY+A==
        7lgZrEwdFZq0676UXrTMUZKTthm9QjLPUpKT1ohfIZkWnPRq+isEcw==
        PK3mhPM0XqMMugOTXiF7hWSB7sCkFOhrJCuU5KR1rVdIlugeTNoyHQ==
        TYYbo2rhYW44lQtfEzcLQpIoLX7idkJM4aEWQ+RaFrDBKAQRHc/0OQ==
        PsAGuQMY7mTFsylmtjnflL7NXdn178l/+/x/NW1R/WF0YWQCAAAARA==
        TlNTYmlsehYAAAAQAAAAeNpjYmBg0PX00zVxz/QDMhkAEZ0CJg==
      >
      FLOATPOS 23 23 391 249
      FXID {CADCC5E5-685E-4A51-83A5-2681AE72A8ED}
      WAK 0
    >
  >
  <TRACK '{C5A70838-0CFE-44D2-AAD3-274009C7A83D}'
    NAME ""
    PEAKCOL 16576
    BEAT -1
    AUTOMODE 0
    VOLPAN 0.80202330165401 0.63200000000000 -1.00000000000000
    MUTESOLO 0 0 0
    IPHASE 0
    ISBUS 2 -1
    BUSCOMP 0 0
    SHOWINMIX 1 0.666700 0.500000 1 0.500000 -1 -1 -1
    FREEMODE 0
    SEL 1
    REC 0 0 1 0 0 0 0
    TRACKHEIGHT 0 0
    INQ 0 0 0 0.5000000000 100 0 0 100
    NCHAN 2
    FX 1
    TRACKID {C5A70838-0CFE-44D2-AAD3-274009C7A83D}
    PERF 0
    MIDIOUT -1
    MAINSEND 1
    <FXCHAIN
      SHOW 0
      LASTSEL 0
      DOCKED 0
      BYPASS 0 0
      <VST "VST: Guitar Rig 4 (x86) (Native Instruments Software Synthesis GmbH)" "Guitar Rig 4.dll" 0 ""
        NEdpTu5e7f4CAAAAAQAAAAAAAAACAAAAAAAAAAIAAAABAAAAAAAAAA==
        AgAAAAAAAACJDwAAAQAAAAAAEAAtaW4tAgAAACNOSSNDUyNEb2N1bQ==
        ZW50IyNOSSNTb3VuZFNoZWxsI1NvdW5kIwAAAAAAAAAAAAAAQQEAAA==
        YXRhZAIAAABkbnNzYmlsehYAAAAQAAAAeNpjYmBg0PX00zVxz/QDMg==
        GQARnQImYXRhZAIAAABvZm5pYmlseg8BAAAAAwAAeNqNkktuwyAURQ==
        514FYp7iT6qmESaDqO00itoFkPg5QrXB4hN1+QXboWnUqMzevZxjMA==
        gm6++g6dQRuhZI2LhxwjkEfVCHmq8cf762KFkbFcNrxTEmosFUYblg==
        UaOc9FCrfuSqLDDLMoTooNUA2gowzEdfSN4D26p+0GAMNGjbAZeUjA==
        dRDItRGKA5efFznM7M0JyzXaixNaUjJWoziDYe5V47q45ZRmz2vrYg==
        lec5JXN/ByqrFOgxBXpKgKoyAVqmHDww/0MpX3q+Pfhlnq+ZW6vFwQ==
        2XjTsZiyb868c8Be2haOlpIpTSy5ge/KO/9SwJpftl90BvTCL7D9bg==
        TUiEYv3XLlcx/AIl8e2y7Bu4HO3rYXRhZAIAAAB0c3JwYmlserINAA==
        AKh+AAB42u1d21LbvBbuvu1TeHLbCfH58A/tPzmQBEggkACF6Y3iKA==
        icG2XB8IcLGfZD/slp3ElpIYaqCx09KLDpHlpc9LS5/W0pJlptP9/g==
        n0+fPv3vv58+7f/7YJnMPXQ9A9lfS9weW2KgraORYU++li4GzbJaYg==
        PB/YI2AiG34t2ajE/Pvt8/7ELRu257uBBW2/rE8D+44ZBoY5KtuBNQ==
        hO7XkiZjWTqyHHwfruIA/a5sjHAbmsKKmqyqfIkZu8CCM+TOr+D6Fg==
        uEVuOcYj4hJDd1FSooQlNlkH3+W40IMpTfiGhWH3A5s5AjbDKQzH/w==
        I0j/8BrDs5xc+vb5M8OET+PimxngOGX/0YGR1EQruBaD/+2PjYdy/A==
        RB6Dn7Rs+NDycBVhUWe1FhPiUTWWxQJtEEI5P46r4sphRRP6MClaFA==
        pt/NBEFYPD60H2q1emAA4HWU2qltGoLCfREPr+6+lkhxpMDyJDDoaw==
        +Oq9AWe4k5ELR+Xw77KFRjBS/uovzxia+O8xMD1Yqqw0UnmmFQIBCA==
        RgZaVy5R1wGhWfi4RqTi5Oem2mT9SF1GdamrQzu0XB1Wdd+4hxg/MA==
        g6hr12VgKUPgQaItxoUW8mHZAg9hs/FPIzK5ygYYlfjmtSdKLnnpSg==
        ixRD2UFykbCYyrrJ7McDwPVjZPsVyhCfMU+ZtC9jwhwj23eRmdFM0w==
        pCzMdda5BdXaRKpNn7gTf3Ye3IjVg/6gA54m72OuHGWuXCHMlX2u1Q==
        /Ppb2NxVDJ+1y9MFxSRlNTunp9ezamN4OdKOvJ/6leSap7c6+iCpDw==
        kspgtGqarQlZp9N0QaTRHh1caYNa+6dx2XLb44v2IFAD9uLDaD+MNg==
        g9HyhKlVo945tDOa60YRpKG2rMrN5bXhT7njyTlqDjnhALCzP3dOlQ==
        XjbUTn2psQ4c+0x9CmwbmrGZcls30zWE53WCgabrENn8IRKD3Ql8pg==
        BQw7gbcn5Q+wtQTYAj5kTu3K6XhcpD4eUPgGU8wkU2SOCCWy2vyf+A==
        wZsrjiUZ8g6AAxsQR+dcVvc0RQrJngdnj5ze+NK2L5s/j73uSeNM6g==
        sNXfMc2T7Om7QUby9DH8EYbPgWCt+eW10F7WzCAL7T5PvNpmK6WN3g==
        jJkXIecFOnsHE39hRK7B82FsDxCrJaELtjgQ3RiiC2zPQR4soB6DGA==
        ZGAXEJ9zv8R3iczAIhDuqaIs4+7migLVjaGeQx25I2YFcWGAGj3C/Q==
        h67P9JBn+JhKitf9pkfSENP38TRUQJSQQnlgj3Lv9HS/4AXPILycMg==
        R23LaRDJ2R6zkpvRXVi/n1oPuJv0rsey42hd77YxbUk91Wq/00o7Tw==
        OQp8IcIs+eUwq4mW6moi965IscsgpqoBVgXTM3x9GuOTtfwBer6r2w==
        /hJk33fREFbqYVapSGocOVldka3Cc8fJzDmGLrT1BJ4oFgCg14172A==
        MEOa6eIBvnurZWGIEfIhM+enlVa3Re8cuRLWhXjI2Ai7Sdk4PkUISQ==
        9NXbC3Dd9CrsqIo0XpBho/FwhX73elr2iNBaoAcBo5th5ntshILq/w==
        /Oi5aIK7mWniAu9HHVkWshc/TkC4YMscxql770crMLB7xIQr4eKPWA==
        JUwd2T6+/sNEMyz+Hu7NAHZUddPALQ0N3wLeXfQE85Lf0/bUIJq2Ag==
        0zccc663eQeKFRxie+HQ0mECqhxG+PYo3IOALweOM//r9wXG0q8Exg==
        vVkc1/3SUlUO/mjfjunq0daLh29gOSnRu1AYn74bB8bdwC9gEHdppg==
        BsbSLsYcCQu+eU6iBCzllokKC66bsy2mm3JMghQ3EYS0qCHymqjJCg==
        r0m/wExvMfo3dVVKJyU6Lm9UFr5tvTjDUi+5b6RqOVUbmI9e5uAtVQ==
        DLlb6phveDOOnXRues5t25/KwpVyxv65Od1ibj+RJKKrepGoORfVlw==
        1TL2/S8IJB28+tVNR376+SReHjqg0WVbM2R8uf4dVsC+ycHbHSOgBA==
        RCLLKPDLKTXWXaNLuvOY9amJj/JkCrclxnvhGd5IeRqZl2qZaAjM5g==
        Q0ab3yyDNPOTGmrffj8LplLTZPui9WhZPPggu03t6jjeAEYY4YZCkw==
        Hb65xboKuylzmXV7XpoU0krazp09PDi4m46a0yfh+rz/2L8eXRc3/w==
        yeeX/5RLf1biqeCpWqNPRqPMADFd4PmhR/eRbfpDsk07kwt9l7QYnw==
        T1pMWNtAeBpk9bA3yyDnkd6X27bB1c5ubo6CpyF3cdHtqvd/8M5+4Q==
        F3YhxkmojmEZYWnx9qi9xfXeOthuDHY+E6yDVWVJkBVJ4P/oDXUf4Q==
        VhoBrhQuemLfRnZ504X19JBKEN1i1C5pbnBU/16teRdHzUm/WZM6gQ==
        G9Ruj43v9erB11U63Ug+c3pLLvsQdzLA2lpsqjk5HJTe5EWnEt+vkg==
        XpYkxxvSG7/DiNbZ16L68dl17q0AOk9cGxPi9piB8cLy+1ZgtZew2g==
        yBwVBNNlagylsTIvbYmVNhF6KplvIPLV947IaLxu4MHrUdTSrj2yzQ==
        6y9XPb9hinen9q1w2DvR/wZq4YQd45Z6td8nNu9AF6Jn4r2tQIq3wg==
        NPeqe/U9YsgIHM9xeDbPSVfDJbAa8DwSlipyIoal5gPLT3Y2waFJUg==
        jKwqqpIbLofyzcgdTVhl2CULWSQnVp4k77NQrwLxAqeE22pyMjCLDg==
        CshogJO0MHLV8gHWm8V9iWbPrlttZ1IFMYviPw2g5z/P92OT6oNJAQ==
        PDTPSXw0D89qz2533AqkmhHTpwG8Lc977+8CkeFVF/j6FI6YOhgaNg==
        9Clf6MBHJ1dKR7o5Og0O7rRZ9wI4bvddfKGl55VlF/ZWvSF5x5yhlw==
        V2VESVUwD3N8PgD12Ol2keeNwYiaU1lWwW6IquSDDcSrqgY5c8maxg==
        iyzL5zRz4SEZ62w5OpdGlpOivDR/e0epUCSpsO/ja0y4WwU7fR5aWQ==
        cro70WYPUz24OQ5ODwzPOrlvWddbjAt3jwnZoi1biIoUMiCbEwMmmQ==
        1MDzaedd4ITwfLGc5o74jIGq7wP9jtSYFq3FcsVYqyOpmZXlMG7NyQ==
        R40PFdh0noDCirK6rdD13SmRV0hKdFzDnjDnEPPGkOLD1tn4QtP9xg==
        VfPQrbKT26p/9lOs/g18qO6YZziwkmEUduPq6rLASWyO8fkVjH2KKw==
        SCYIRFmJtpTmhGtu+h1oT/zpynBYFiZsJGgihsqJOYWnKYt7Kq8pvA==
        pilizjmNDpoxDWA5WHfkgpUqRwtWOS3xdeKMizGZboAnq6os57YAaQ==
        dOlzf6jXWNgdnVnI/StnARgxDWiCR2paOTo+tfqNXvu8Wb/zH6wvBw==
        2mXrevY3TCuvT7/k5GcP+tQbMQz1tlpOmBoxpsi0CoFpQENamX1liQ==
        l/PLc1xtnnplPFS1/BY+mnEWDcLRcCUikURRyG+qbcSdaYzHgUcduw==
        sscpPJ/TwsyhfZ9MGJh9/Lytvt1LTe0pCiuH+5rymvh7ablQRdbCmA==
        Us5pBfc8doS7aBTgmQtbF3MO/NzTH93GJmQN6JBO8Ief9F5+kkZG4A==
        hzq8XI29q7Wefdy5t/sn7cA9Dni2PejSx83/qXtUlB3zkQq4RSU+8g==
        tI5M5FLLVpyK4zEuJ/o7JCy+ADnx5MiYJ5h7bi9mX+OBVI3IClJ+4Q==
        /cXGIxZ2NTYlX14+OGP6U2jeRwsCBO922o3bC/botD46dYbdoyOrNg==
        DYSLv4F3dy4HhLIcsLGdoIZLlsOYpgt/koEDr0gSx3I5xVstEtrKtg==
        Mowq9IrFnHJmTT5ZplvVmqwJqqJIecURLRLaitZEkZUVRRN3NC0u8A==
        NBu2XOBMDZ0iw57MKgCdqe2b2uTioHP01L+vGt2PjdI7lRHPiQstIw==
        8Wjs1WGdFyaQbKB6KAgml9zry5wDe1KAzhtyyfqJPQoPcie3C0i8JA==
        5rXFbMhTyPgC6EqgEAmkrqIZQhZzWjAcihQykXonQFMFVhJyAiZRwA==
        pNxm1XVkMoVMJl2RyE3KTWUKBUyhtjyJkiLzWk4x4lClkKnUaiuvqg==
        nLAlnb3VRdqvbH57db+y+Gjl/AuWLgRm+KlLff4xq9Fww+crQZgGig==
        D7mJ6pnhCXTkxysX5T5wJ9BnPBP50TFWPppMTLh2/uvG6ly26jxdnQ==
        e6G6kK26mK26lK26vFqd8vei+lHvM9AGw8XxgPOqAiG5Qol+tkHl1Q==
        DfKva1DNphAtW3Uuq2lltC0uzbj2K4vBsPhpxdkFPHIM24b0R2gXIw==
        xoZ6WCU6Fyoqs4Dv4pHpoplHfzI21vb+nDM2DEuxtB4DleF9+L9peA==
        PrSXEcBKGX32xH4CqzwCPmCIL+VSNLTQS9JUcuR9wgXlUG3RFbVEmQ==
        EHgoxyuR4Qd4y3FcwcwFLwKo8MTrZcHiO8DcanhE4X2vJ1kc7LzpUQ==
        tNc9ysDJ6VEWny3a9CihPb/mWRzzlc9CzlMrdhhX8WzgeFPkk9NbXA==
        Fllw/CtlkITtrEjZr6wMnEXxFHnhjOkjazla0z9TtL+oF+orqcIkdw==
        J8pgZfqzyil77ivZRcscJTltm9ErJPMsJTltjfgVkmnBaS+mv0Iwxw==
        02pOOU3jNcqgOzDtBbJXSBboDkxLgb5GskJJTlvXeoVkie7BtC3T8Q==
        ZLg2quYe5ppTOfc1cbMgJInK/CduJ8QUHmkxRq5lARtMQhDx4Uyfkw==
        42uQO4LhTlY8m2Jmi/im8i1yZVe/Jv/t8/8BArRQOmF0YWQCAAAARA==
        TlNTYmlsehYAAAAQAAAAeNpjYmBg0PX00zVxz/QDMhkAEZ0CJg==
      >
      FLOATPOS 23 23 391 249
      FXID {CADCC5E5-685E-4A51-83A5-2681AE72A8ED}
      WAK 0
    >
    <ITEM
      POSITION 1.84614512471655
      SNAPOFFS 0.00000000000000
      LENGTH 92.12543233042918
      LOOP 1
      ALLTAKES 0
      SEL 0
      FADEIN 1 0.010000 0.000000
      FADEOUT 1 0.010000 0.279270
      MUTE 0
      IGUID {93797004-8CD7-4B36-A06D-05D706C53C80}
      NAME "05-160117_1002.wav glued"
      VOLPAN 1.000000 0.000000 1.000000 -1.000000
      SOFFS 0.00000000000000
      PLAYRATE 1.00000000000000 1 0.00000000000000 -1
      CHANMODE 0
      GUID {3B945A5D-DEBD-42EC-B802-E903C499B924}
      <SOURCE WAVE
        FILE "05-160117_1003.wav"
      >
    >
    <ITEM
      POSITION 93.69230769230768
      SNAPOFFS 0.00000000000000
      LENGTH 52.15384615384616
      LOOP 1
      ALLTAKES 0
      SEL 0
      FADEIN 1 0.010000 0.279270
      FADEOUT 1 0.010000 0.000000
      MUTE 0
      IGUID {B1A0447B-5EC9-436A-9294-BE55007689C5}
      NAME "06-160110_1715.wav"
      VOLPAN 1.000000 0.000000 1.000000 -1.000000
      SOFFS 2.30770102912960
      PLAYRATE 1.00000000000000 1 0.00000000000000 -1
      CHANMODE 0
      GUID {6E52F152-607A-4D89-A893-C30B2EFA7CEC}
      RECPASS 17
      <SOURCE WAVE
        FILE "06-160110_1715.wav"
      >
    >
    <ITEM
      POSITION 145.84615384615384
      SNAPOFFS 0.00000000000000
      LENGTH 3.69230769230771
      LOOP 1
      ALLTAKES 0
      SEL 0
      FADEIN 1 0.010000 0.000000
      FADEOUT 1 0.010000 0.000000
      MUTE 0
      IGUID {20B38525-E830-48A6-8DA0-BAC132287E53}
      NAME "04-160117_1101.wav"
      VOLPAN 1.000000 0.000000 1.000000 -1.000000
      SOFFS 1.84615384615384
      PLAYRATE 1.00000000000000 1 0.00000000000000 -1
      CHANMODE 0
      GUID {BED77A7A-D528-4E2C-ADDA-112902316505}
      RECPASS 34
      <SOURCE WAVE
        FILE "04-160117_1101.wav"
      >
    >
    <ITEM
      POSITION 149.53846153846155
      SNAPOFFS 0.00000000000000
      LENGTH 1.84615384615384
      LOOP 1
      ALLTAKES 0
      SEL 0
      FADEIN 1 0.010000 0.000000
      FADEOUT 1 0.010000 0.000000
      MUTE 0
      IGUID {428EA33C-2407-4266-B4F6-4123CD3EFF20}
      NAME "04-160117_1101.wav"
      VOLPAN 1.000000 0.000000 1.000000 -1.000000
      SOFFS 5.53846153846155
      PLAYRATE 1.00000000000000 1 0.00000000000000 -1
      CHANMODE 0
      GUID {B3FE2209-BFD3-4C47-95DD-A99B578838CB}
      RECPASS 34
      <SOURCE WAVE
        FILE "04-160117_1101.wav"
      >
    >
    <ITEM
      POSITION 151.38461538461539
      SNAPOFFS 0.00000000000000
      LENGTH 1.84615384615384
      LOOP 1
      ALLTAKES 0
      SEL 0
      FADEIN 1 0.010000 0.000000
      FADEOUT 1 0.010000 0.000000
      MUTE 0
      IGUID {4E8DA19D-E7C6-4A0B-B083-9ECA87892734}
      NAME "04-160117_1209-01.wav"
      VOLPAN 1.000000 0.000000 1.000000 -1.000000
      SOFFS 3.69232513518227
      PLAYRATE 1.00000000000000 1 0.00000000000000 -1
      CHANMODE 0
      GUID {E6910CD2-850B-485C-9D9E-5655FE6D8C55}
      RECPASS 44
      <SOURCE WAVE
        FILE "04-160117_1209-01.wav"
      >
    >
    <ITEM
      POSITION 153.23076923076923
      SNAPOFFS 0.00000000000000
      LENGTH 1.65517241379311
      LOOP 1
      ALLTAKES 0
      SEL 0
      FADEIN 1 0.010000 0.000000
      FADEOUT 1 0.010000 0.000000
      MUTE 0
      IGUID {B3DB7C2D-5591-42E3-8A90-2C61E9C8B965}
      NAME "05-160117_1155.wav glued"
      VOLPAN 1.000000 0.000000 1.000000 -1.000000
      SOFFS 0.00000000000000
      PLAYRATE 1.00000000000000 1 0.00000000000000 -1
      CHANMODE 0
      GUID {F854A8D5-04A5-40F6-B311-77843E9F389E}
      <SOURCE WAVE
        FILE "05-160117_1156.wav"
      >
    >
    <ITEM
      POSITION 154.88594164456234
      SNAPOFFS 0.00000000000000
      LENGTH 1.65517241379311
      LOOP 1
      ALLTAKES 0
      SEL 0
      FADEIN 1 0.010000 0.000000
      FADEOUT 1 0.010000 0.000000
      MUTE 0
      IGUID {0C66247F-7352-4EDF-B081-77764C2EC7DC}
      NAME "04-160117_1216.wav"
      VOLPAN 1.000000 0.000000 1.000000 -1.000000
      SOFFS 3.50133846995917
      PLAYRATE 1.00000000000000 1 0.00000000000000 -1
      CHANMODE 0
      GUID {D9E49CF4-2C8E-4BAC-93BB-E6B4C484B017}
      RECPASS 45
      <SOURCE WAVE
        FILE "04-160117_1216.wav"
      >
    >
    <ITEM
      POSITION 156.54111405835545
      SNAPOFFS 0.00000000000000
      LENGTH 1.65517241379308
      LOOP 1
      ALLTAKES 0
      SEL 0
      FADEIN 1 0.010000 0.000000
      FADEOUT 1 0.010000 0.000000
      MUTE 0
      IGUID {3F36CB28-3D02-4B2C-BF96-ECF57168593E}
      NAME "04-160117_1219.wav"
      VOLPAN 1.000000 0.000000 1.000000 -1.000000
      SOFFS 1.65517301527154
      PLAYRATE 1.00000000000000 1 0.00000000000000 -1
      CHANMODE 0
      GUID {9E7A45AA-5CCE-4922-BCE3-C27724134875}
      RECPASS 47
      <SOURCE WAVE
        FILE "04-160117_1219.wav"
      >
    >
    <ITEM
      POSITION 158.19628647214853
      SNAPOFFS 0.00000000000000
      LENGTH 27.06135726568897
      LOOP 1
      ALLTAKES 0
      SEL 0
      FADEIN 1 0.010000 0.000000
      FADEOUT 1 0.010000 0.164806
      MUTE 0
      IGUID {59AB30FD-850E-4C15-931C-BBCE4FE8EB72}
      NAME "05-160117_1155.wav glued"
      VOLPAN 1.000000 0.000000 1.000000 -1.000000
      SOFFS 1.65517241379311
      PLAYRATE 1.00000000000000 1 0.00000000000000 -1
      CHANMODE 0
      GUID {5B5E446F-F7E1-4595-A6CE-464259F958AC}
      <SOURCE WAVE
        FILE "05-160117_1156.wav"
      >
    >
    <ITEM
      POSITION 185.09283819628646
      SNAPOFFS 0.00000000000000
      LENGTH 6.20689655172416
      LOOP 1
      ALLTAKES 0
      SEL 0
      FADEIN 1 0.010000 0.164806
      FADEOUT 1 0.010000 0.000000
      MUTE 0
      IGUID {E85691E6-D5A9-47FC-80AC-31401C130315}
      NAME "04-160117_1229.wav"
      VOLPAN 1.000000 0.000000 1.000000 -1.000000
      SOFFS 2.89657969288510
      PLAYRATE 1.00000000000000 1 0.00000000000000 -1
      CHANMODE 0
      GUID {F25ABADA-5CCE-48C4-A4BE-10E338F45FC0}
      RECPASS 49
      <SOURCE WAVE
        FILE "04-160117_1229.wav"
      >
    >
  >
  <TRACK '{335AE466-BDE5-4D59-AB64-1F0DB4C45364}'
    NAME ""
    PEAKCOL 16576
    BEAT -1
    AUTOMODE 0
    VOLPAN 0.59459619017531 0.00000000000000 -1.00000000000000
    MUTESOLO 0 0 0
    IPHASE 0
    ISBUS 1 1
    BUSCOMP 0 0
    SHOWINMIX 1 0.666700 0.500000 1 0.500000 -1 -1 -1
    FREEMODE 0
    SEL 0
    REC 0 0 0 0 0 0 0
    TRACKHEIGHT 0 0
    INQ 0 0 0 0.5000000000 100 0 0 100
    NCHAN 2
    FX 1
    TRACKID {335AE466-BDE5-4D59-AB64-1F0DB4C45364}
    PERF 0
    MIDIOUT -1
    MAINSEND 1
    <FXCHAIN
      WNDRECT 0 52 1003 602
      SHOW 0
      LASTSEL 1
      DOCKED 0
      BYPASS 0 0
      <VST "VST: ReaEQ (Cockos)" "reaeq.dll" 0 ""
        cWVlcu5e7f4CAAAAAQAAAAAAAAACAAAAAAAAAAIAAAABAAAAAAAAAA==
        AgAAAAAAAACgAAAAAQAAAAAAEAAhAAAABAAAAAAAAAABAAAA4ibg/Q==
        7iZVQN+RuMYrqr8/YI/C9Shc6z8BCAAAAAEAAACMHqL8bHyAQOY8UQ==
        IDQN3T9zaJHtfD/tPwEIAAAAAQAAAC/lCVKztqFAX/ODCtzP4T8+NQ==
        XrpJDPA/AQEAAAABAAAAAAAAAACIs0AAAAAAAADwPwAAAAAAAABAAQ==
        AQAAAAEAAAAAAAAAAADwPwAAAAA=
      >
      FLOATPOS 450 168 721 505
      FXID {138B0E60-8644-4894-A109-1E86A2D2B67B}
      WAK 0
      BYPASS 0 0
      <VST "VST: ReaVerbate (Cockos)" "reaverbate.dll" 0 ""
        OGJ2cu9e7f4CAAAAAQAAAAAAAAACAAAAAAAAAAIAAAABAAAAAAAAAA==
        AgAAAAAAAAAoAAAAAAAAAAAAEADvvq3eDfCt3vMGhjwsF3E/l5aWPg==
        Q+ZOPwAAgD8zFzg9AACAPwAAAAA=
      >
      FLOATPOS 23 23 573 357
      FXID {91C5FFA1-6B28-4B11-9D87-154950B27273}
      WAK 0
    >
  >
  <TRACK '{CF05B2AE-39FA-44A2-ABEA-130F67DA69F3}'
    NAME ""
    PEAKCOL 16576
    BEAT -1
    AUTOMODE 0
    VOLPAN 0.96517205228642 0.00000000000000 -1.00000000000000
    MUTESOLO 1 0 0
    IPHASE 0
    ISBUS 0 0
    BUSCOMP 0 0
    SHOWINMIX 1 0.666700 0.500000 1 0.500000 -1 -1 -1
    FREEMODE 0
    SEL 0
    REC 0 0 1 0 0 0 0
    TRACKHEIGHT 0 0
    INQ 0 0 0 0.5000000000 100 0 0 100
    NCHAN 2
    FX 1
    TRACKID {CF05B2AE-39FA-44A2-ABEA-130F67DA69F3}
    PERF 0
    MIDIOUT -1
    MAINSEND 1
    <FXCHAIN
      SHOW 0
      LASTSEL 0
      DOCKED 0
      BYPASS 0 0
      <VST "VST: Guitar Rig 4 (x86) (Native Instruments Software Synthesis GmbH)" "Guitar Rig 4.dll" 0 ""
        NEdpTu5e7f4CAAAAAQAAAAAAAAACAAAAAAAAAAIAAAABAAAAAAAAAA==
        AgAAAAAAAABJDwAAAQAAAAAAEAAtaW4tAgAAACNOSSNDUyNEb2N1bQ==
        ZW50IyNOSSNTb3VuZFNoZWxsI1NvdW5kIwAAAAAAAAAAAAAAQQEAAA==
        YXRhZAIAAABkbnNzYmlsehYAAAAQAAAAeNpjYmBg0PX00zVxz/QDMg==
        GQARnQImYXRhZAIAAABvZm5pYmlsegQBAADRAgAAeNqNkk9vAiEQxQ==
        7/spCHdlV02qhsVD0/ZqTNs7urOGyILhj/HjF3ZXak1NuM1783sMTA==
        oJtrJ9EFjBVa1bialhiBOuhGqGONvz7fJ0uMrOOq4VIrqLHSGG1YQQ==
        rfYqQK3+Dc9nFWZFgRA9G30G4wRYFmQwFO+AvUrgCn3rKyW9jiS5Rw==
        o7Hn6nRLxZp9eOG4QTtxRAtKeqsPjmCsO914mWYNasyF2Hr2UpYlJQ==
        o/8EmlcZUM5ByxwmB1rlMDm3Xj1Ou9Xj+rhzRuy9SxtMxqCDc+HSAw==
        e2tbODhKBjWw5AF+Gt4asODsn3RoegtmEhpst10TkqBk/zflTsYnUA==
        kj4jK34ANhvfC2F0YWQCAAAAdHNycGJpbHp9DQAA1nQAAHja7V3bcg==
        4jgTnv92nsLF7ZYHbHOwtzKzBSTkBIQEcpqaG4EFKLElxwcgecR9qg==
        XzLGlg0kcZKJndnMxVSQ5NanVqvVrW7LQrtz9b8vX7786375svPPwg==
        NIQZtB1E8PeC9K1UECAeER3hyffC+aAlqgXBcQHWgUEw/F7ApCD88w==
        4+vOxBYRdlzbMyF2xdHUw7fC0EOGLmLPHEL7e0GrUlojYlr0OdrEAg==
        o1sR6bQPrVYqa1VVlQvC2AYmnBN7WUPbm+CG2GKIp0xL0MgmUUmNlQ==
        YL4NfcqyoQO3dOEik8Lue1g4AliQaoIk/61U/pY1QS5J1cKPr18FgQ==
        jcamDwvAskT33oI+1YgrtJVA/+2M0UIMR+QIdKQicqHp0CZK0CbZSg==
        YHhUrVSiBDFgUM6Ow6a0MWtoQBdGRUHh9qcFz2PF40O8aDR2251iww==
        GpqVY4L08u7k0DVmne8FnhxPUJx4KF5Ha2cIzukkExvqIvtbNIkOfQ==
        5id/OWho0L/HwHBgoZjopPhILxwC4OmIrDOXa2sBJhYubeGzOPq5qQ==
        Nd/eZxeqr3h1iJnkjmB95KIZpPiB4flTu06DUhkCB3J9CTY0iQtFEw==
        LFi34U/ki1xxA4xi+PDaiKIqZzvTfMbE5CCq5CSmuC4yO+ECsN0Q2Q==
        TjEmiI+IZ5WXLzQRjgl2bWKkFNNtVAJxnbdvQL0xqTSmD1LXnZ95Pw==
        y/W9/qANHiZvI65STFylXIhr6bFes5tvZfNUCXLaKd9OKFRSZqt9dA==
        1OhaZPKzbrRRvaeBvulKs9KnkvpUUimEVt0ma0ra7XQ7IV5oO9rd9Q==
        /Xxxcap3b7TBoHXjqNWjz531U2jTCK3MiVrdn51DnFJcN5LgBbUBRw==
        XXV+U5X1A3TSOz+C0lXl5/mfu6dWnhbUdnPFsTYcu0JzCjCGRiim0g==
        u4vpGsKzJqeBpusQS9lD5Ba75bnCPkA4gvetkj3A/RXAfeBC4QQXTw==
        xuM8zfEghm8wpZpkSgydY2JJW/4rf+rNhGHJu7wDYMFdSL1zKa15ug==
        hQqvPZum0jrdvZ60Lpp3d39dH98AYmrnv2Ob57Wna3spladL4esUvg==
        BLy17ld1TF7WxCCN2n1c8WqbpTQu9EaoeQmxnlBnbyDiT6zINXguDA==
        5QFStkTqopQfiHYI0QbYsYgDc8hHLwTp4Rzis2YrfBfE8EwO4Te1XA==
        rdLplvIC1Q6hnsERsXUhgTg3QFGPM/+h7Qo94iCXqpL8Tb/h8GpI6A==
        u3QbyiFKGEO5h/XMJ327XfCEZcCqt+xR72U0lPndnmolO6W5sP48bw==
        KOxfuwez+7teSWrY1YOT7nHzBLtvZCjIMUNBzoWbVX3azWqRFbtaxA==
        vs2T7zIIVdWAskLoIXc0DfFVtewBOq49wu4KZN+1yRAWmyyqlCc26g==
        VlpT5F3h2eNo5xxDG+JRBK9czgFApxPOMDKYmunQBf7xTsuYi8H0oQ==
        sNRPiV7fS71L/ElYB9Ilgwk1k9Lp+C1EeEW/d+4eLLChl7pNMrmbDg==
        quqVaji/+zwtvUdoBuiBJ4wMFvkeI0ao+fevnk0mdJqFFi1wfjWJaQ==
        Ehz86AJ2YCschqF759e+h6h5JLCT8PKvkCVCk2CX1v8yyJySn8Fvcw==
        QA3VkYFoT0PkmsC59UewLPk9fU8R17XpGS6yjCXflhNYLlIX22FLaw==
        BCNQIvPwsc5yEGi1Z1nLv36fY1x5jmPcm4d+3bOOqjKwR/s4VFf3eA==
        lD98A9Pa4r0rubHpO6Fj3PHcHDpxF8ZWx7jyEX2OSAu+ek+KEVjRFQ==
        uQaBrltqW6puxFAJxnQTp5CCFmVZK2vVmqxVnqGZXiP0r5qqLZMU8Q==
        WNzILPrYenGKo14+b6RuWnUMjHsntfO2lQyfLXVQu5WnJ2A6mjZnNw==
        jtw8827V+9s/N6abz/STSoWbqp5PaqmLmqtmKef+GQRjR/5DG3fqdw==
        Nvm5T2pN/dS7mY5Py79DCkqvMvA+jhDECPgkReK54pYW66bRRXzyhA==
        9a2pXPUDZdI7abwnxvBKlafxcal9gwyB0VqklPnNNGIHVsdtBZ9dQQ==
        Teqa9eneuNh9uLrb+1R2G/odUX8DIObhMqJRhm9mvm6ttClymTY9bw==
        GxVeSk7a+z10ILl3jYPJZflhcTJV5mU1v/FPObv4Z7XwZwWech6qRQ==
        fd4bFQZE6ADHZRbdZ7TpD4k2fZhY6JuExeRswmLKWgLhiZfWwt5MIw==
        luMNi+eLe7XRqBxYFxXb22sd1oanf24WovKMLMQwCNVGJmKl+ctRew==
        jen97mA7IdjlTrAOVq1WlGqtosh/dELdp7u1TQEmCoOZ2MEEi5sq1g==
        vSqJU3QHxBV6BlzEjpDahjp9mNvX3nT31jkxWz+vwXEr5lVt13FL/Q==
        FlW7kM4yoOwKsmq6h4PCq8zorZrvuVrv0RcElMcPKtMEOH6HGK0Bag==
        1vt9LsQObUgescreBdJFGLpq2H7e9/rSq0oKO8qUMwIorwBeAttcgw==
        lw2oRsg04HD5Ed9kWVFKG9On3wVWGNzvID6pu6pUKiqdQSUbVIMoZQ==
        Aw6NmGhRXEp2otWzY9sOn6xBsWkVtuVUqxlhm4fYyPxRF/N9ViEIeQ==
        Rf9EYPRolO5dIPUnoSYFk+zhnDlW5Ck6dGtzstdSKFRTCPBqSlUrlQ==
        MpVt5Z2sqU2G6FYjdIMBmnxfUuVTZoA7mkJdaIIhwtCNmUYtU5KluQ==
        YVwcHU3Gw78WY7tYGb+NaRSZYmmSJ9/VPKp+MOvoaWeqrLF7NDLbyA==
        Rit8TZs4zhjwmXPfNKkmq5pWy2gvA+FhCMp8s6BLMeTUalWuRCsj9g==
        ONvMbuljqsAapwH7loHieq9rX/ac6+FYbjWNM/2kAffPuypJo/deEw==
        R/6tSq20raeUDFR4v/qMuIAOOH6PjVxq3HhWZ3bRvDs8Aj8PDjqnow==
        +ju61ZntG1Llg20c/Va0FCDUc+QcGiDhVGTkTIS+BMDZo9ldodlFyw==
        OxuynrBBP+6hCn2DzLPn06CVgNUCjpsDWPUErPpoxN8TkBmuvpWcRg==
        y4YgfhBSUivURstITzX6/LFRTqSs0YqByoeMNeoxUDmRsEYkYcsJTA==
        yldN1vzjrIyM3OYAJ+xugb1slrV6vQxt70vIy1ZNqfpBHfWDnkIkTQ==
        cKERMyD350OnX729KR3to6HTNnftpn40+jTC+eDWGgs7KB7c6hnnDQ==
        u6vXHqTGtHgmz/7aLdUu35SJmUWvnrKyAa5zZptQz4EZCXCDh9TIHg==
        0lXLP4XZfixTqamSnJWhG8Zjdj1gCB2CMw/38TcmzPwbE6bg3Q+q3w==
        XBVrvC4ezBEWdqEB7mOapHnV6Gjdzujy6HjWm/b367W9qkb+E2Hyjw==
        5s87sTTLDkBY9OfTyXr1WDFgPRvmBJcbJs4OkAkFdsUcpwIVqaIp1A==
        zsro1Jy7PYiB82+X40PmqlySqRGYUZzViHKO4QwaSd5ltHMYdhxVkg==
        aRnBGofMakGoD9n95Png19heA5YTllkGl2Pga4sEyzKCZa/BSjAsDw==
        ITZxNZtZwwqTMS6R7k6z3h/NKM1nwUdHS3KF+dMZgfLit3PGXjb/oA==
        dqUcD7PZCE+EM6qQ7eHKtBwcNa/q3c71mUx29x+kplfG/cXpVMaw9A==
        XzAt1Q9mWQ7MKEeHTaPATBLeGNFUrZxdgoF/PrbpqExRaxI1krSMDg==
        Fpei34Z4wpRfbDmsCjM/m92SkZkRnIPozaa5sAtMi/Iqe1TtMJGc7g==
        9fmBhToffuvYKW7O6N8pBh/yWX7Vx4bAYJ//GS0v+NeHGz7pA5g1Fg==
        vvjrtzPYrRz8B32CchfYE+gKjkFc/zTYJZOJAdfuxNrYXErXXI43lw==
        nmiupGteTte8kq55Ndk8tgn67f3ZFyAGw+DKlGVThaNcjJF+tMPaiw==
        O5Rf1qGajiFauuZSWtFKKVvSNuHaKQaLIfhJqz1qHNH1QlcOwhjGPw==
        zBWsGAxHrIkfp/DLTODadGXaZO7EP6MVcntnqTM2LMtyYd02FKntQA==
        /zeQ40K8MosSZfH38XYiWKIOXCBwXw+LqaGAL1FX0TWgkS4QGdv8Gg==
        tRATIbAQQ/uKfZRMDHWosCQcWJXsFsBVQfBtNClpM8bwvtVIgsvuNg==
        DUV72VAGVkZDCa5y3zQUJs8vGQs7K3jRWPh9KiGHYRMHA8uZEpff3g==
        wjJfgsNfWxYJ6ydBZaeYWDhB8ZQ4bMd0iblarUnPIWLxTtCO8StqIg==
        RE+HzJCrz8rQK6anXHrWG3UvICxLz0pIfwFlSYmnfG7xQV9AuZzAfA==
        Nzz9WRnN7ivH7vmgj0/3T+2u+iLKFeVZwd2XUFafFewJ95U1AV0aaw==
        a/bZ0myj3QJfQwRvfdIHp4T2Wj8fHJychV97pIuQXSJJldLe1YD1xQ==
        nqWg2ACoySqMiW2aAIMJQ+z76QGciX/ppI0mXIuJzSmcIaEqJObhCw==
        Bhy7ov+1yrUaNIPBwcDybXQBI/F2OSIx8aI6gx5cVOuIrHfK5sky+Q==
        lK/Z8BQbcAB1rZoZvElUdHQBBuqgoQn2v9KZfHCOsE53afQAxYX/CQ==
        BCVWds+yLgKVuFOMOLvkNPA//SS6YEIH4U6FMbLpJBvsAJ0Vfi9QEA==
        hCRKHDbXerzMp0BHjyiG1TQGIya2DpnfS+ea6nxfExd/+EZ+8tujPw==
        vv4ftk7HymF0YWQCAAAARE5TU2JpbHoWAAAAEAAAAHjaY2JgYND19A==
        0zVxz/QDMhkAEZ0CJg==
      >
      FLOATPOS 23 23 391 249
      FXID {50CBC53D-23F0-41F7-9D4A-0C62A5941598}
      WAK 0
    >
    <ITEM
      POSITION 108.00000000000000
      SNAPOFFS 0.00000000000000
      LENGTH 39.32553287981860
      LOOP 1
      ALLTAKES 0
      SEL 0
      FADEIN 1 0.010000 0.000000
      FADEOUT 1 0.010000 0.000000
      MUTE 0
      IGUID {BEA141CC-47F8-4DE3-8789-B7E06ED86818}
      NAME "07-160117_1013.wav"
      VOLPAN 1.000000 0.000000 1.000000 -1.000000
      SOFFS 0.00000000000000
      PLAYRATE 1.00000000000000 1 0.00000000000000 -1
      CHANMODE 0
      GUID {7D915634-A7AA-4BD2-824F-821C9C81A8FD}
      RECPASS 30
      <SOURCE WAVE
        FILE "07-160117_1013.wav"
      >
      TAKE
      NAME "07-160117_1029.wav"
      TAKEVOLPAN 0.000000 1.000000 -1.000000
      SOFFS 0.00000000000000
      PLAYRATE 1.00000000000000 1 0.00000000000000 -1
      CHANMODE 0
      GUID {F32CD018-1698-4233-8B2B-10086D77C6F0}
      RECPASS 31
      <SOURCE WAVE
        FILE "07-160117_1029.wav"
      >
      TAKE
      NAME "07-160117_1030.wav"
      TAKEVOLPAN 0.000000 1.000000 -1.000000
      SOFFS 0.00000000000000
      PLAYRATE 1.00000000000000 1 0.00000000000000 -1
      CHANMODE 0
      GUID {2361DCBE-3350-45D7-9D84-BF91A04316F9}
      RECPASS 32
      <SOURCE WAVE
        FILE "07-160117_1030.wav"
      >
      TAKE SEL
      NAME "07-160117_1037.wav"
      TAKEVOLPAN 0.000000 1.000000 -1.000000
      SOFFS 0.00000000000000
      PLAYRATE 1.00000000000000 1 0.00000000000000 -1
      CHANMODE 0
      GUID {31746B9E-B8C7-47DC-BDE1-1D175945687B}
      RECPASS 33
      <SOURCE WAVE
        FILE "07-160117_1037.wav"
      >
    >
    <ITEM
      POSITION 147.32553287981858
      SNAPOFFS 0.00000000000000
      LENGTH 0.42503401360545
      LOOP 1
      ALLTAKES 0
      SEL 0
      FADEIN 1 0.010000 0.000000
      FADEOUT 1 0.010000 0.000000
      MUTE 0
      IGUID {8177030A-8245-4904-B020-B2660AFBAEA1}
      NAME "07-160117_1029.wav"
      VOLPAN 1.000000 0.000000 1.000000 -1.000000
      SOFFS 39.32553287981858
      PLAYRATE 1.00000000000000 1 0.00000000000000 -1
      CHANMODE 0
      GUID {9BA1E0AC-7F10-443D-930F-7D568A056E2B}
      RECPASS 31
      <SOURCE WAVE
        FILE "07-160117_1029.wav"
      >
      TAKE SEL
      NAME "07-160117_1037.wav"
      TAKEVOLPAN 0.000000 1.000000 -1.000000
      SOFFS 39.32553287981858
      PLAYRATE 1.00000000000000 1 0.00000000000000 -1
      CHANMODE 0
      GUID {212DD4F5-E043-4C56-95C6-4B39B45A470D}
      RECPASS 33
      <SOURCE WAVE
        FILE "07-160117_1037.wav"
      >
    >
    <ITEM
      POSITION 147.75056689342404
      SNAPOFFS 0.00000000000000
      LENGTH 0.29333333333335
      LOOP 1
      ALLTAKES 0
      SEL 0
      FADEIN 1 0.010000 0.000000
      FADEOUT 1 0.010000 0.000000
      MUTE 0
      IGUID {E78B7EE7-2D20-41C0-BE4E-D65A068606E7}
      NAME "07-160117_1029.wav"
      VOLPAN 1.000000 0.000000 1.000000 -1.000000
      SOFFS 39.75056689342404
      PLAYRATE 1.00000000000000 1 0.00000000000000 -1
      CHANMODE 0
      GUID {0D96AA33-74A7-4DD4-A019-A7D474C0EFD3}
      RECPASS 31
      <SOURCE WAVE
        FILE "07-160117_1029.wav"
      >
    >
  >
  <TRACK '{3936FFBF-6526-4D0B-B763-6E24E1F0004F}'
    NAME ""
    PEAKCOL 16576
    BEAT -1
    AUTOMODE 0
    VOLPAN 0.99912545574414 0.49200000000000 -1.00000000000000
    MUTESOLO 0 0 0
    IPHASE 0
    ISBUS 2 -1
    BUSCOMP 0 0
    SHOWINMIX 1 0.666700 0.500000 1 0.500000 -1 -1 -1
    FREEMODE 0
    SEL 0
    REC 0 0 1 0 0 0 0
    TRACKHEIGHT 0 0
    INQ 0 0 0 0.5000000000 100 0 0 100
    NCHAN 2
    FX 1
    TRACKID {3936FFBF-6526-4D0B-B763-6E24E1F0004F}
    PERF 0
    MIDIOUT -1
    MAINSEND 1
    <FXCHAIN
      SHOW 0
      LASTSEL 0
      DOCKED 0
      BYPASS 0 0
      <VST "VST: Guitar Rig 4 (x86) (Native Instruments Software Synthesis GmbH)" "Guitar Rig 4.dll" 0 ""
        NEdpTu5e7f4CAAAAAQAAAAAAAAACAAAAAAAAAAIAAAABAAAAAAAAAA==
        AgAAAAAAAAB7DQAAAQAAAAAAEAAtaW4tAgAAACNOSSNDUyNEb2N1bQ==
        ZW50IyNOSSNTb3VuZFNoZWxsI1NvdW5kIwAAAAAAAAAAAAAAQQEAAA==
        YXRhZAIAAABkbnNzYmlsehYAAAAQAAAAeNpjYmBg0PX00zVxz/QDMg==
        GQARnQImYXRhZAIAAABvZm5pYmlsevsAAABAAgAAeNqNkc1uwjAQhA==
        73kKy3fqBJAaIcccqrZXhNreDdkgq84a+Qfx+LWT4FJUJG47s994dw==
        Zb4+95qcwDplsKHVU0kJ4N60Cg8N/fx4m9WUOC+xldogNBQNJWtRcA==
        ZwJGqDO/4cW8oqIoCOFHa45gvQInoowGyh7EiwaJ5MucORt0Itk1mg==
        jJ3E70sq1eI9KC8t2aoDWXI2WENwAlPdmzboPGtUUy7GVvPnsiw5mw==
        /DvQon4AWlYPQPXtS5d62lZ6b9Uu+LxwNkYdnZPUAcRr18HeczaqkQ==
        ZTfw3fDGggPv/qRjMziws9gQ282KsQxl+78pVzKdwFn+e1H8AA5WsQ==
        sGF0YWQCAAAAdHNycGJpbHq4CwAAIF4AAHja7Vxdc9o8Fu7e9np/gA==
        htsdB9sYsDu07wAJ+QKSBpKmnc7OCBBGiS05/ggkv34lY4wMOImTNA==
        Jt30ohPk46NHR0ePzpFkgXbn8l+fPn36938/far9M7MtcItcD1PytQ==
        oOzIBYDIkI4wMb8WzvstSS8Az4dkBC1K0NcCoQXwz7fPNdOVMPF8Nw==
        sBHxpeEkINdgEGBrJJHAHiD3a8GoMF1DajvsPSbiwOG1hEesDqMqaw==
        RkXX1QIYu9BGU+rOnzB5G15RV4rxaKwED126LKnyEiLKsLccF3kopQ==
        Ch/bDHYvIOAIEqBUgaJ+KZW/qAZQZaVS+Pb5MwC8NS57GUDHkfw7Bw==
        hVqXVmFSgP2rjfFMilvkAdZSCfvI9phIKZJZlQIcj27IMlNIIIdydg==
        HIsyYS5oIR8ti6LC9LdBEPDi8SGZNbr4ejA17opuq42VbnG3eXJ6Zg==
        n38tiOpEhZIZ4OQz9vQWoynrZOqikcT/lmw6QqHxV395eGCxv8fQ8g==
        UKG4UknxgVoEBDAYYbpuXEHWgdwtfCYRmnj5c5O0KB+aC9cXtjok3A==
        c4eoPvTxLWL4oRWEXbuug2kZQA8JdQEX2dRHkg1nvNr4Jw5drrgBRg==
        MX55rUXLR1660ULDJPxg+VDwmOK6y9TiAeD6MbJaMeGID7hnRfQvbA==
        gmNKfJdaGd00TUvkrtP2Faw3zHJjcq90/elZ8Eur7/X6bXhvvo67Kg==
        CXdVtsJd5Ydqza+/S5u7CqhZuzxdUUxSdqt9dNToOtT8VbfauH5qwA==
        nu0rt/IHSX2QVAan1dN8rZR1Ok1XJDptx7j5eTedXXwfda+Mfr915Q==
        6ZWjzofTfjhtBqdVBVerh71zSDK660YVoqM20LCrT68q6ugAn5yeHw==
        IeWy/Ov8751Ty487aru5sFgbjX3QnEBCkBW7qfLmbrqG8KwpMNBkHQ==
        opw/RGGwO4EP9iEmS3g75fwB7i8A7kMfgRNSPBmPt6mP+wl8/Qljkg==
        CbVGghFlY/5P++DNlcBSTHn70EG7iGXnStbwNEWLyJ5Nu9T6vvvTbA==
        XTRvbv7z8/gKUtv4Iwm0yJ6+G2QkT5/BHzH4CgzWql884/6y5gZZaA==
        92HiNTZ7adLprZh5KXUeobNXcPFHRuQaPB/F/oCYWZZ0IW8PRDeG6A==
        QuI51ENbaMcgBhmQLcTn3C7wXVArsAWEO7pWqbDuVrYFqhtDPUND6g==
        jsAK4q0Bik+F8B+5PjilHvYZlWxf91ueSEOg57NpaAtRogTKPTLKvQ==
        09PjgkciA/44ZY56q6BBE2d7xkpuxnBh/X0xUNj/6R/c3t2cykrDrQ==
        HJx0j5snxH+lQEFNBArqVqRZlcfTrBZdmKtF3ettyl36MVX1mSnAKQ==
        9oeTGF/FyB+g57tD4i9A9nyXDlCxyXeVtsmMIydrKPKm8NzxcuYcIw==
        F5HhEp6mbQFArxP3MLY4zXTYAH9/q2U8xeB8COb8tFLrW9G7Iq6EdQ==
        EBsyhLIwKRvHpygRiX7v3D+YEWskd5vUvJn0K/qlbnl/ej0te0ZoRw==
        6GEAhhbf+R5jrqj55fepS03WzaDFCrzfTWrblEQ/upAv2ILDeOve+w==
        vR9gFh4BvhKu/Y5NApqU+Oz5b4tOmfpbtDOFLFAdWpjVNMC+Db3rsA==
        BfOSP1P3BAtV24HlY8ea223egVqRpdgeH1pDtAQl8QyfjPgZBPY4cA==
        nPlffy4xLj8lMT6dxnndk5aqcohHeySmqzsy3D58fdtJyd5LWxPTdw==
        4sS4E/hbmMRdWKmJcfk95hxLFnzxnJRQsNArCQIR183ZltGNFJNggg==
        mwRCiiQ01dCMSlU1yk9gppc4/Yu6KqWTljaWNhqLvbZenGGpVzw3Ug==
        t506gdadlzl5S1UjnpY61Gb31mSm7f06ut297pPOgalPhn/vnu52Hg==
        PymXha46DVXNuai5EMvY909QmFjyH7ikU79x6a99Wm2OvgdXk/F37Q==
        T3iB/KIA7/04QUJBqFKigS+lSKyHRhfJzgPrU1OFL85sWLP9M4T3SA==
        E17IeIa4LbVv0QG0WrOMLr9ZR2K96rhdImeXyFC6dn2yNy527y9v9g==
        PrhuQ71Dlm5AzBNcrnR5wDe3VLcqb9q4zHo6L02L6CUn7f1TfKD4Nw==
        jQPzh3Y/O5mUppq+vdufan7bn5XC37XvtOU7tbgnJqOgT0EHej4P6A==
        Pjab/pLNpnezFfoqu2JqPrtipbXzgydB1gB7s47EEW9UPJ/d6Y1G+Q==
        wLkou8Fe67A6+P73HkIsPeEQYrwH1cY25qXbd0TtBZH3m2PtxFjnEw==
        wTpWvVIuVarlkvpXH6f7SLZS6G+lMOqIGqFE2vRgff9fEWiuFdzfLw==
        GK5/1Lysd4wro9cmk7tuy/EnvXtHO8KHiY9Y0tltzmzLxz5iHQyZqQ==
        5nVVZQ/M63tJEJ3Ke0/lvCzB75M3N95mjXINULPe6wnb68hFNG9IFw==
        qZlBVea7krKq5gOslfT5GJZaqfJvZRQtH1iNBawG9DyRnkqqrhiGXg==
        yQdWf3kkAg0ssRsrVVUtvxmwzVNO6nSzYapZDfJ0McprggadJQjwVA==
        P+rc/+zcHBtH9K4pu7Q5VG6mr0KAh93D/haTn6I9l/2UD/ZbsB+N1w==
        G7rUtaG1HneoeqVSzm9gN+JObLjYsjAkG2IjXdOrypsFR+vkM0hlnw==
        ql6WZWa9nIznpbC1YpSrrFONak4GGyYOAjYDYWVmp2ToCgt1lVJO2A==
        esLxOqbQoqDnICR+IFQtqeUKs15eCHf9VYS7iEW/eZPJwX2cw9Dpgw==
        S4Jvw20xc1xAF8Nh3vTfM2Puh+aDBzzeBM6Z5yyX9Tw2GYunSHdKyg==
        /Bu4nFy8gWHMXBiKzGWUQ1xV432Gc7oYznWgP5ygEWjCASbIT8R1xw==
        yuVdByoGMvaD60nDaHadvWvtVeK6RRSZ5cT7+0hrcxrZj6+BVUt8vg==
        MHQjH4DxdNt0qeeNoXjceUdR5VKOwVM80OvYFS2maaWKLOfEP2xExg==
        JlsMzgiamtN05qWlDsr7ZEK1KjBhz3ExMcEZYmwxSPBgt/PzTKW7+w==
        90oz0Ehv9n2iEiT/P+S3+jtjwb69jCd4N4I+TiaSjP74EnZOQ/oHig==
        B9APJOYbWlnRGDvrOeVoc9dvI2LyCD4xHBaFeYeKqWt+OeUZyy3zKQ==
        2IW2w2yVP6r2AtUBNifbAwt3kheGJM6/y+9i6qgVN28W1YrRBZHz2w==
        Il0ELX6t5HB+cdRosOGqSIgseBefKAvlLH7aW7woMir3oWsiH3gW9Q==
        wyOjPjVNC619a7VRXMkmribFlUfES9nEtWzi5WzilVXxxCQYyoe9Dw==
        EIGD6Cj+XLQkaC4mVD9YYfXZFarPq1DPZhAjm7iS1bUy+paS5ly1Yg==
        NBiin+xxwIIjNl7YyMGEoOSFr9GIIWjIRcJDmGGZDX2XjUyXTr3k9Q==
        rLG1a3PO2DAstcJ6bCix2IH9b2GWSJFFWLRSljzoUVvCkkbQh0C4lQ==
        NkFDkV2WVS0/L19ygcTNFj7RCwkXgjMpjq/4ZbdSzKFgrjiKKvnXpQ==
        i4Lozl1lNWZM4H2tlkQfUW5qivG8pvSdnJoSXRG0qSncn5/TFsd6Zg==
        W8R5asUPYxGPQMebUF+c3uKy0IPjXymDhNezoqVWXBk4UfGEenzG9A==
        qb0YrauZgzCuIjlur6UIWL4dG0MtJb7JSTtXUcyuWU4oTtuvfIZiJQ==
        CTktU3yGZlVPaE5bi4uZdK1L5uHJWkQyD1RYtTAcE9ERGvbihLJa6w==
        5/2Dk7P43mzmdvxzXDYM9y77vC7+LgPFG8CCNDCmrm1DAk2OOMxMIw==
        OGb4+a6LTUHCdIUhNqBs0CRP6wELjX0pvPhbSqa7wMK3KMqFI1mCpQ==
        63mT1tQw7NE3/57Eq2d2NudLieKTDW/xFkdYVwHwEG+tDJsRBJaSYA==
        k4T3na+qnWIyYvMSvkfSLLxMqpQou2McL0ckUCsuLTu3NAwv0ZR8aA==
        sjb4EzDGLutki1GAxQu/FhgISldKPN7Xo2RZqIE1HjMMi26MGkzdEQ==
        4pke62vGciH3FL+FYe3qLe7fPv8PdVJdjGF0YWQCAAAARE5TU2JpbA==
        ehYAAAAQAAAAeNpjYmBg0PX00zVxz/QDMhkAEZ0CJg==
      >
      FLOATPOS 23 23 391 249
      FXID {50CBC53D-23F0-41F7-9D4A-0C62A5941598}
      WAK 0
    >
  >
>
